<?xml version="1.0" encoding="UTF-8" standalone="no"?>
<svg
   xmlns:dc="http://purl.org/dc/elements/1.1/"
   xmlns:cc="http://creativecommons.org/ns#"
   xmlns:rdf="http://www.w3.org/1999/02/22-rdf-syntax-ns#"
   xmlns:svg="http://www.w3.org/2000/svg"
   xmlns="http://www.w3.org/2000/svg"
   xmlns:sodipodi="http://sodipodi.sourceforge.net/DTD/sodipodi-0.dtd"
   xmlns:inkscape="http://www.inkscape.org/namespaces/inkscape"
   id="svg8"
   version="1.1"
   viewBox="0 0 299.99999 300"
   height="30cm"
   width="30cm"
   sodipodi:docname="tshirt_text.svg"
   inkscape:version="0.92.3 (2405546, 2018-03-11)"
   inkscape:export-filename="C:\Users\Frederic\Documents\include logo\tshirt_text.png"
   inkscape:export-xdpi="149.91545"
   inkscape:export-ydpi="149.91545">
  <sodipodi:namedview
     pagecolor="#ffffff"
     bordercolor="#666666"
     borderopacity="1"
     objecttolerance="10"
     gridtolerance="10"
     guidetolerance="10"
     inkscape:pageopacity="0"
     inkscape:pageshadow="2"
     inkscape:window-width="1920"
     inkscape:window-height="1001"
     id="namedview31"
     showgrid="false"
     inkscape:zoom="0.64"
     inkscape:cx="356.69119"
     inkscape:cy="629.78035"
     inkscape:window-x="-9"
     inkscape:window-y="-9"
     inkscape:window-maximized="1"
     inkscape:current-layer="layer1"
     units="cm"
     inkscape:snap-text-baseline="true" />
  <defs
     id="defs2">
    <pattern
       y="0"
       x="0"
       height="6"
       width="6"
       patternUnits="userSpaceOnUse"
       id="EMFhbasepattern" />
  </defs>
  <metadata
     id="metadata5">
    <rdf:RDF>
      <cc:Work
         rdf:about="">
        <dc:format>image/svg+xml</dc:format>
        <dc:type
           rdf:resource="http://purl.org/dc/dcmitype/StillImage" />
        <dc:title />
      </cc:Work>
    </rdf:RDF>
  </metadata>
  <g
     transform="translate(-20.698078,262.58741)"
     id="layer1">
    <text
       xml:space="preserve"
       style="font-style:normal;font-weight:normal;font-size:28.14624596px;line-height:125%;font-family:sans-serif;letter-spacing:0px;word-spacing:0px;fill:#1f4e79;fill-opacity:1;stroke:none;stroke-width:0.70365614px;stroke-linecap:butt;stroke-linejoin:miter;stroke-opacity:1"
       x="266.20535"
       y="-230.76212"
       id="text899"><tspan
         id="tspan897"
         x="265.5228"
         y="-230.76212"
         style="font-style:normal;font-variant:normal;font-weight:500;font-stretch:normal;font-size:28.14624596px;font-family:'Fira Code';-inkscape-font-specification:'Fira Code, Medium';font-variant-ligatures:no-contextual;font-variant-caps:normal;font-variant-numeric:normal;font-feature-settings:normal;text-align:end;letter-spacing:-0.68254644px;writing-mode:lr-tb;text-anchor:end;fill:#1f4e79;fill-opacity:1;stroke-width:0.70365614px">&lt;C++&gt;</tspan></text>
    <path
       d="m 62.475199,-243.49101 h 2.336147 v -2.27984 h -2.054694 l 0.619236,-4.41901 h -2.645765 l -0.591071,4.41901 h -3.574618 l 0.619235,-4.41901 h -2.645765 l -0.591071,4.41901 h -2.392448 v 2.27984 h 2.082831 l -0.816224,5.96704 h -2.30801 v 2.25171 h 2.02653 l -0.591071,4.50344 h 2.645765 l 0.591071,-4.50344 h 3.574591 l -0.591071,4.50344 h 2.617601 l 0.591097,-4.50344 h 2.392422 v -2.25171 h -2.082831 z m -7.008469,5.96704 0.788113,-5.96704 h 3.602728 l -0.81625,5.96704 z"
       style="font-style:normal;font-variant:normal;font-weight:500;font-stretch:normal;font-size:medium;line-height:125%;font-family:'Fira Code';-inkscape-font-specification:'Fira Code Medium';letter-spacing:-0.26458332px;word-spacing:0px;fill:#1f4e79;fill-opacity:1;stroke:none;stroke-width:0.70365614px;stroke-linecap:butt;stroke-linejoin:miter;stroke-opacity:1"
       id="path901"
       inkscape:connector-curvature="0" />
    <path
       d="m 73.835361,-252.92006 c -1.238444,0 -2.054694,0.87255 -2.054694,1.99839 0,1.12587 0.81625,1.97026 2.054694,1.97026 1.210279,0 2.054667,-0.84439 2.054667,-1.97026 0,-1.12584 -0.844388,-1.99839 -2.054667,-1.99839 z m 2.167269,7.28992 h -7.430662 v 2.30801 h 4.278265 v 10.2453 h -4.419005 v 2.30801 H 80.05569 v -2.30801 h -4.05306 z"
       style="font-style:normal;font-variant:normal;font-weight:500;font-stretch:normal;font-size:medium;line-height:125%;font-family:'Fira Code';-inkscape-font-specification:'Fira Code Medium';letter-spacing:-0.26458332px;word-spacing:0px;fill:#1f4e79;fill-opacity:1;stroke:none;stroke-width:0.70365614px;stroke-linecap:butt;stroke-linejoin:miter;stroke-opacity:1"
       id="path903"
       inkscape:connector-curvature="0" />
    <path
       d="m 84.069655,-230.76882 h 3.152397 v -10.66749 c 0.788086,-1.12587 2.02653,-2.16727 3.490126,-2.16727 1.801404,0 2.110995,0.98512 2.110995,3.57459 v 9.26017 h 3.152428 v -10.83637 c 0,-2.78651 -1.379215,-4.41898 -4.137556,-4.41898 -1.801377,0 -3.574591,0.81622 -4.813034,2.33615 l -0.225259,-1.94212 h -2.730204 z"
       style="font-style:normal;font-variant:normal;font-weight:500;font-stretch:normal;font-size:medium;line-height:125%;font-family:'Fira Code';-inkscape-font-specification:'Fira Code Medium';letter-spacing:-0.26458332px;word-spacing:0px;fill:#1f4e79;fill-opacity:1;stroke:none;stroke-width:0.70365614px;stroke-linecap:butt;stroke-linejoin:miter;stroke-opacity:1"
       id="path905"
       inkscape:connector-curvature="0" />
    <path
       d="m 107.42017,-232.99239 c -2.30801,0 -3.99681,-1.40732 -3.99681,-5.12265 0,-3.71533 1.63252,-5.37597 3.99681,-5.37597 1.26658,0 2.47689,0.45036 3.63089,1.23845 l 1.4636,-1.97026 c -1.43546,-1.18214 -3.12424,-1.80135 -5.15079,-1.80135 -4.58786,0 -7.28992,3.37755 -7.28992,7.90913 0,4.64416 2.64576,7.71212 7.23362,7.71212 1.97028,0 3.91237,-0.73181 5.20709,-1.82952 l -1.43546,-2.02655 c -1.0977,0.73181 -2.27987,1.2666 -3.65903,1.2666 z"
       style="font-style:normal;font-weight:normal;font-size:medium;line-height:125%;font-family:sans-serif;letter-spacing:-0.54504168px;word-spacing:0px;fill:#1f4e79;fill-opacity:1;stroke:none;stroke-width:0.70365614px;stroke-linecap:butt;stroke-linejoin:miter;stroke-opacity:1"
       id="path907"
       inkscape:connector-curvature="0" />
    <path
       d="m 122.20011,-251.59718 h -7.6277 v 2.30801 h 4.47531 v 14.18579 c 0,2.92724 1.74507,4.70046 4.72859,4.70046 1.66064,0 2.95536,-0.3659 3.82788,-0.84439 l -0.78808,-2.19543 c -0.75995,0.30961 -1.5199,0.50663 -2.36429,0.50663 -1.32288,0 -2.25171,-0.50663 -2.25171,-1.88579 z"
       style="font-style:normal;font-variant:normal;font-weight:500;font-stretch:normal;font-size:medium;line-height:125%;font-family:'Fira Code';-inkscape-font-specification:'Fira Code Medium';letter-spacing:-0.26458332px;word-spacing:0px;fill:#1f4e79;fill-opacity:1;stroke:none;stroke-width:0.70365614px;stroke-linecap:butt;stroke-linejoin:miter;stroke-opacity:1"
       id="path909"
       inkscape:connector-curvature="0" />
    <path
       d="m 134.99573,-245.63014 h -3.15242 v 10.78007 c 0,2.78651 1.37921,4.44715 4.27826,4.44715 1.74511,0 3.5746,-0.78812 4.6723,-2.27988 l 0.19707,1.91398 h 2.73023 v -14.86132 h -3.15243 v 10.75194 c -0.73178,1.154 -2.0828,2.08283 -3.46201,2.08283 -1.4073,0 -2.11097,-0.70365 -2.11097,-2.44875 z"
       style="font-style:normal;font-variant:normal;font-weight:500;font-stretch:normal;font-size:medium;line-height:125%;font-family:'Fira Code';-inkscape-font-specification:'Fira Code Medium';letter-spacing:-0.26458332px;word-spacing:0px;fill:#1f4e79;fill-opacity:1;stroke:none;stroke-width:0.70365614px;stroke-linecap:butt;stroke-linejoin:miter;stroke-opacity:1"
       id="path911"
       inkscape:connector-curvature="0" />
    <path
       d="m 156.74189,-251.96307 v 7.57137 c -0.95697,-1.06956 -2.19541,-1.63247 -3.74345,-1.63247 -3.65905,0 -5.8826,3.29311 -5.8826,7.82469 0,4.6723 1.77322,7.79656 5.60112,7.79656 1.74508,0 3.18054,-0.78812 4.16569,-2.19544 l 0.22526,1.82954 h 2.78648 v -20.82836 z m -2.92722,8.35949 c 1.2103,0 2.19541,0.61921 2.92722,1.66063 v 7.00845 c -0.73181,1.18214 -1.77322,2.13913 -3.18054,2.13913 -1.97023,0 -3.09609,-1.60434 -3.09609,-5.40411 0,-3.71533 1.23844,-5.4041 3.34941,-5.4041 z"
       style="font-style:normal;font-variant:normal;font-weight:500;font-stretch:normal;font-size:medium;line-height:125%;font-family:'Fira Code';-inkscape-font-specification:'Fira Code Medium';letter-spacing:-0.26458332px;word-spacing:0px;fill:#1f4e79;fill-opacity:1;stroke:none;stroke-width:0.70365614px;stroke-linecap:butt;stroke-linejoin:miter;stroke-opacity:1"
       id="path913"
       inkscape:connector-curvature="0" />
    <path
       d="m 166.80733,-237.18621 h 9.85122 c 0.0564,-0.36589 0.0843,-0.90069 0.0843,-1.40732 0,-4.616 -2.47689,-7.43064 -6.4174,-7.43064 -4.22194,0 -6.78326,3.37755 -6.78326,7.82469 0,4.64416 2.53319,7.79656 7.17732,7.79656 2.08285,0 4.02494,-0.70368 5.40413,-1.82952 l -1.35105,-1.91395 c -1.26658,0.84439 -2.47686,1.29472 -3.91234,1.29472 -2.13914,0 -3.85605,-1.29472 -4.05306,-4.33454 z m 3.54643,-6.50181 c 2.11099,0 3.26497,1.54803 3.32127,4.36268 h -6.89586 c 0.19706,-2.98352 1.60433,-4.36268 3.57459,-4.36268 z"
       style="font-style:normal;font-variant:normal;font-weight:500;font-stretch:normal;font-size:medium;line-height:125%;font-family:'Fira Code';-inkscape-font-specification:'Fira Code Medium';letter-spacing:-0.26458332px;word-spacing:0px;fill:#1f4e79;fill-opacity:1;stroke:none;stroke-width:0.70365614px;stroke-linecap:butt;stroke-linejoin:miter;stroke-opacity:1"
       id="path915"
       inkscape:connector-curvature="0" />
    <flowRoot
       transform="matrix(2.6594878,0,0,2.6594878,-8.866163,-315.34015)"
       style="font-style:normal;font-weight:normal;font-size:40px;line-height:1.25;font-family:sans-serif;letter-spacing:0px;word-spacing:0px;fill:#1f4e79;fill-opacity:1;stroke:none;"
       id="flowRoot3877"
       xml:space="preserve"><flowRegion
         id="flowRegion3879"
         style="fill:#1f4e79;fill-opacity:1;"><rect
           y="-6.7230711"
           x="204.44286"
           height="77.192383"
           width="218.47784"
           id="rect3881"
           style="fill:#1f4e79;fill-opacity:1;" /></flowRegion><flowPara
         id="flowPara3883" /></flowRoot>    <g
       id="g7075"
       style="fill:#1f4e79;fill-opacity:1">
      <path
         inkscape:connector-curvature="0"
         id="path901-9"
         style="font-style:normal;font-variant:normal;font-weight:500;font-stretch:normal;font-size:medium;line-height:125%;font-family:'Fira Code';-inkscape-font-specification:'Fira Code Medium';letter-spacing:-0.26458332px;word-spacing:0px;fill:#1f4e79;fill-opacity:1;stroke:none;stroke-width:0.70365614px;stroke-linecap:butt;stroke-linejoin:miter;stroke-opacity:1"
         d="m 62.475199,-205.08652 h 2.336147 v -2.27985 h -2.054693 l 0.619235,-4.419 h -2.645765 l -0.591071,4.419 h -3.574618 l 0.619235,-4.419 h -2.645765 l -0.591071,4.419 h -2.392449 v 2.27985 h 2.082831 l -0.816223,5.96704 h -2.30801 v 2.25171 h 2.02653 l -0.591071,4.50344 h 2.645765 l 0.591071,-4.50344 h 3.574591 l -0.591071,4.50344 h 2.617601 l 0.591097,-4.50344 h 2.392423 v -2.25171 h -2.082832 z m -7.008469,5.96704 0.788113,-5.96704 h 3.602729 l -0.816251,5.96704 z" />
      <path
         inkscape:connector-curvature="0"
         id="path903-1"
         style="font-style:normal;font-variant:normal;font-weight:500;font-stretch:normal;font-size:medium;line-height:125%;font-family:'Fira Code';-inkscape-font-specification:'Fira Code Medium';letter-spacing:-0.26458332px;word-spacing:0px;fill:#1f4e79;fill-opacity:1;stroke:none;stroke-width:0.70365614px;stroke-linecap:butt;stroke-linejoin:miter;stroke-opacity:1"
         d="m 73.835361,-214.51558 c -1.238444,0 -2.054694,0.87255 -2.054694,1.9984 0,1.12586 0.81625,1.97025 2.054694,1.97025 1.21028,0 2.054667,-0.84439 2.054667,-1.97025 0,-1.12585 -0.844387,-1.9984 -2.054667,-1.9984 z m 2.16727,7.28993 h -7.430662 v 2.30801 h 4.278265 v 10.2453 h -4.419005 v 2.30801 h 11.624462 v -2.30801 h -4.05306 z" />
      <path
         inkscape:connector-curvature="0"
         id="path905-8"
         style="font-style:normal;font-variant:normal;font-weight:500;font-stretch:normal;font-size:medium;line-height:125%;font-family:'Fira Code';-inkscape-font-specification:'Fira Code Medium';letter-spacing:-0.26458332px;word-spacing:0px;fill:#1f4e79;fill-opacity:1;stroke:none;stroke-width:0.70365614px;stroke-linecap:butt;stroke-linejoin:miter;stroke-opacity:1"
         d="m 84.069656,-192.36433 h 3.152397 v -10.6675 c 0.788086,-1.12587 2.02653,-2.16727 3.490126,-2.16727 1.801404,0 2.110995,0.98513 2.110995,3.57459 v 9.26018 h 3.152424 v -10.83638 c 0,-2.7865 -1.37921,-4.41897 -4.137552,-4.41897 -1.801377,0 -3.574591,0.81622 -4.813034,2.33614 l -0.225259,-1.94211 h -2.730204 z" />
      <path
         inkscape:connector-curvature="0"
         id="path907-3"
         style="font-style:normal;font-weight:normal;font-size:medium;line-height:125%;font-family:sans-serif;letter-spacing:-0.54504168px;word-spacing:0px;fill:#1f4e79;fill-opacity:1;stroke:none;stroke-width:0.70365614px;stroke-linecap:butt;stroke-linejoin:miter;stroke-opacity:1"
         d="m 107.42017,-194.5879 c -2.30801,0 -3.99681,-1.40732 -3.99681,-5.12265 0,-3.71533 1.63253,-5.37597 3.99681,-5.37597 1.26658,0 2.47689,0.45036 3.6309,1.23844 l 1.46359,-1.97025 c -1.43546,-1.18215 -3.12423,-1.80135 -5.15079,-1.80135 -4.58785,0 -7.28992,3.37755 -7.28992,7.90913 0,4.64415 2.64576,7.71211 7.23362,7.71211 1.97028,0 3.91237,-0.73181 5.20709,-1.82951 l -1.43546,-2.02656 c -1.0977,0.73181 -2.27987,1.26661 -3.65903,1.26661 z" />
      <path
         inkscape:connector-curvature="0"
         id="path909-9"
         style="font-style:normal;font-variant:normal;font-weight:500;font-stretch:normal;font-size:medium;line-height:125%;font-family:'Fira Code';-inkscape-font-specification:'Fira Code Medium';letter-spacing:-0.26458332px;word-spacing:0px;fill:#1f4e79;fill-opacity:1;stroke:none;stroke-width:0.70365614px;stroke-linecap:butt;stroke-linejoin:miter;stroke-opacity:1"
         d="m 122.20012,-213.19269 h -7.62771 v 2.30801 h 4.47531 v 14.18578 c 0,2.92725 1.74508,4.70046 4.7286,4.70046 1.66063,0 2.95535,-0.36589 3.82788,-0.84439 l -0.78809,-2.19543 c -0.75995,0.30962 -1.5199,0.50663 -2.36428,0.50663 -1.32289,0 -2.25171,-0.50663 -2.25171,-1.88579 z" />
      <path
         inkscape:connector-curvature="0"
         id="path911-0"
         style="font-style:normal;font-variant:normal;font-weight:500;font-stretch:normal;font-size:medium;line-height:125%;font-family:'Fira Code';-inkscape-font-specification:'Fira Code Medium';letter-spacing:-0.26458332px;word-spacing:0px;fill:#1f4e79;fill-opacity:1;stroke:none;stroke-width:0.70365614px;stroke-linecap:butt;stroke-linejoin:miter;stroke-opacity:1"
         d="m 134.99574,-207.22565 h -3.15243 v 10.78007 c 0,2.7865 1.37921,4.44714 4.27827,4.44714 1.7451,0 3.57459,-0.78811 4.67229,-2.27987 l 0.19707,1.91398 h 2.73023 v -14.86132 h -3.15242 v 10.75193 c -0.73179,1.15401 -2.08281,2.08283 -3.46202,2.08283 -1.40729,0 -2.11096,-0.70364 -2.11096,-2.44875 z" />
      <path
         inkscape:connector-curvature="0"
         id="path913-6"
         style="font-style:normal;font-variant:normal;font-weight:500;font-stretch:normal;font-size:medium;line-height:125%;font-family:'Fira Code';-inkscape-font-specification:'Fira Code Medium';letter-spacing:-0.26458332px;word-spacing:0px;fill:#1f4e79;fill-opacity:1;stroke:none;stroke-width:0.70365614px;stroke-linecap:butt;stroke-linejoin:miter;stroke-opacity:1"
         d="m 156.74189,-213.55859 v 7.57138 c -0.95696,-1.06957 -2.1954,-1.63247 -3.74344,-1.63247 -3.65906,0 -5.8826,3.29311 -5.8826,7.82469 0,4.67229 1.77321,7.79655 5.60112,7.79655 1.74508,0 3.18053,-0.78811 4.16569,-2.19543 l 0.22526,1.82954 h 2.78648 v -20.82836 z m -2.92722,8.35949 c 1.21031,0 2.19541,0.61921 2.92722,1.66064 v 7.00844 c -0.73181,1.18214 -1.77321,2.13913 -3.18053,2.13913 -1.97023,0 -3.0961,-1.60433 -3.0961,-5.4041 0,-3.71533 1.23845,-5.40411 3.34941,-5.40411 z" />
      <path
         inkscape:connector-curvature="0"
         id="path915-7"
         style="font-style:normal;font-variant:normal;font-weight:500;font-stretch:normal;font-size:medium;line-height:125%;font-family:'Fira Code';-inkscape-font-specification:'Fira Code Medium';letter-spacing:-0.26458332px;word-spacing:0px;fill:#1f4e79;fill-opacity:1;stroke:none;stroke-width:0.70365614px;stroke-linecap:butt;stroke-linejoin:miter;stroke-opacity:1"
         d="m 166.80734,-198.78173 h 9.85122 c 0.0564,-0.36589 0.0843,-0.90069 0.0843,-1.40732 0,-4.61599 -2.47688,-7.43063 -6.41739,-7.43063 -4.22194,0 -6.78327,3.37755 -6.78327,7.82469 0,4.64416 2.53319,7.79655 7.17732,7.79655 2.08286,0 4.02495,-0.70367 5.40414,-1.82951 l -1.35105,-1.91396 c -1.26658,0.84439 -2.47686,1.29472 -3.91235,1.29472 -2.13913,0 -3.85604,-1.29472 -4.05306,-4.33454 z m 3.54642,-6.50181 c 2.111,0 3.26498,1.54804 3.32128,4.36268 h -6.89587 c 0.19707,-2.98352 1.60434,-4.36268 3.57459,-4.36268 z" />
    </g>
    <flowRoot
       transform="matrix(2.6594879,0,0,2.6594879,-12.917034,-278.87546)"
       style="font-style:normal;font-weight:normal;font-size:40px;line-height:1.25;font-family:sans-serif;letter-spacing:0px;word-spacing:0px;fill:#1f4e79;fill-opacity:1;stroke:none;"
       id="flowRoot3877-1"
       xml:space="preserve"><flowRegion
         id="flowRegion3879-1"
         style="fill:#1f4e79;fill-opacity:1;"><rect
           y="-6.7230711"
           x="204.44286"
           height="77.192383"
           width="218.47784"
           id="rect3881-3"
           style="fill:#1f4e79;fill-opacity:1;" /></flowRegion><flowPara
         id="flowPara3883-3" /></flowRoot>    <text
       xml:space="preserve"
       style="font-style:normal;font-weight:normal;font-size:28.14624596px;line-height:125%;font-family:sans-serif;letter-spacing:0px;word-spacing:0px;fill:#1f4e79;fill-opacity:1;stroke:none;stroke-width:0.70365614px;stroke-linecap:butt;stroke-linejoin:miter;stroke-opacity:1"
       x="298.59381"
       y="-111.1637"
       id="text899-6-3"><tspan
         id="tspan897-8-5"
         x="297.91122"
         y="-111.1637"
         style="font-style:normal;font-variant:normal;font-weight:500;font-stretch:normal;font-size:28.14624596px;font-family:'Fira Code';-inkscape-font-specification:'Fira Code, Medium';font-variant-ligatures:no-contextual;font-variant-caps:normal;font-variant-numeric:normal;font-feature-settings:normal;text-align:end;letter-spacing:-0.6825465px;writing-mode:lr-tb;text-anchor:end;fill:#1f4e79;fill-opacity:1;stroke-width:0.70365614px">&lt;LGBT+&gt;</tspan></text>
    <path
       d="m 62.475199,-123.89259 h 2.336147 v -2.27985 h -2.054693 l 0.619235,-4.419 h -2.645765 l -0.591071,4.419 h -3.574618 l 0.619235,-4.419 h -2.645765 l -0.591071,4.419 h -2.392449 v 2.27985 h 2.082831 l -0.816223,5.96704 h -2.30801 v 2.25171 h 2.02653 l -0.591071,4.50344 h 2.645765 l 0.591071,-4.50344 h 3.574591 l -0.591071,4.50344 h 2.617601 l 0.591097,-4.50344 h 2.392423 v -2.25171 h -2.082832 z m -7.008469,5.96704 0.788113,-5.96704 h 3.602729 l -0.816251,5.96704 z"
       style="font-style:normal;font-variant:normal;font-weight:500;font-stretch:normal;font-size:medium;line-height:125%;font-family:'Fira Code';-inkscape-font-specification:'Fira Code Medium';letter-spacing:-0.26458332px;word-spacing:0px;fill:#1f4e79;fill-opacity:1;stroke:none;stroke-width:0.70365614px;stroke-linecap:butt;stroke-linejoin:miter;stroke-opacity:1"
       id="path901-9-7"
       inkscape:connector-curvature="0" />
    <path
       d="m 73.835361,-133.32165 c -1.238444,0 -2.054694,0.87255 -2.054694,1.9984 0,1.12586 0.81625,1.97025 2.054694,1.97025 1.21028,0 2.054667,-0.84439 2.054667,-1.97025 0,-1.12585 -0.844387,-1.9984 -2.054667,-1.9984 z m 2.16727,7.28993 h -7.430662 v 2.30801 h 4.278265 v 10.2453 h -4.419005 v 2.30801 h 11.624462 v -2.30801 h -4.05306 z"
       style="font-style:normal;font-variant:normal;font-weight:500;font-stretch:normal;font-size:medium;line-height:125%;font-family:'Fira Code';-inkscape-font-specification:'Fira Code Medium';letter-spacing:-0.26458332px;word-spacing:0px;fill:#1f4e79;fill-opacity:1;stroke:none;stroke-width:0.70365614px;stroke-linecap:butt;stroke-linejoin:miter;stroke-opacity:1"
       id="path903-1-8"
       inkscape:connector-curvature="0" />
    <path
       d="m 84.069656,-111.1704 h 3.152397 v -10.6675 c 0.788086,-1.12587 2.02653,-2.16727 3.490126,-2.16727 1.801404,0 2.110995,0.98513 2.110995,3.57459 v 9.26018 h 3.152424 v -10.83638 c 0,-2.7865 -1.37921,-4.41897 -4.137552,-4.41897 -1.801377,0 -3.574591,0.81622 -4.813034,2.33614 l -0.225259,-1.94211 h -2.730204 z"
       style="font-style:normal;font-variant:normal;font-weight:500;font-stretch:normal;font-size:medium;line-height:125%;font-family:'Fira Code';-inkscape-font-specification:'Fira Code Medium';letter-spacing:-0.26458332px;word-spacing:0px;fill:#1f4e79;fill-opacity:1;stroke:none;stroke-width:0.70365614px;stroke-linecap:butt;stroke-linejoin:miter;stroke-opacity:1"
       id="path905-8-9"
       inkscape:connector-curvature="0" />
    <path
       d="m 107.42017,-113.39397 c -2.30801,0 -3.99681,-1.40732 -3.99681,-5.12265 0,-3.71533 1.63253,-5.37597 3.99681,-5.37597 1.26658,0 2.47689,0.45036 3.6309,1.23844 l 1.46359,-1.97025 c -1.43546,-1.18215 -3.12423,-1.80135 -5.15079,-1.80135 -4.58785,0 -7.28992,3.37755 -7.28992,7.90913 0,4.64415 2.64576,7.71211 7.23362,7.71211 1.97028,0 3.91237,-0.73181 5.20709,-1.82951 l -1.43546,-2.02656 c -1.0977,0.73181 -2.27987,1.26661 -3.65903,1.26661 z"
       style="font-style:normal;font-weight:normal;font-size:medium;line-height:125%;font-family:sans-serif;letter-spacing:-0.54504168px;word-spacing:0px;fill:#1f4e79;fill-opacity:1;stroke:none;stroke-width:0.70365614px;stroke-linecap:butt;stroke-linejoin:miter;stroke-opacity:1"
       id="path907-3-5"
       inkscape:connector-curvature="0" />
    <path
       d="m 122.20012,-131.99876 h -7.62771 v 2.30801 h 4.47531 v 14.18578 c 0,2.92725 1.74508,4.70046 4.7286,4.70046 1.66063,0 2.95535,-0.36589 3.82788,-0.84439 l -0.78809,-2.19543 c -0.75995,0.30962 -1.5199,0.50663 -2.36428,0.50663 -1.32289,0 -2.25171,-0.50663 -2.25171,-1.88579 z"
       style="font-style:normal;font-variant:normal;font-weight:500;font-stretch:normal;font-size:medium;line-height:125%;font-family:'Fira Code';-inkscape-font-specification:'Fira Code Medium';letter-spacing:-0.26458332px;word-spacing:0px;fill:#1f4e79;fill-opacity:1;stroke:none;stroke-width:0.70365614px;stroke-linecap:butt;stroke-linejoin:miter;stroke-opacity:1"
       id="path909-9-0"
       inkscape:connector-curvature="0" />
    <path
       d="m 134.99574,-126.03172 h -3.15243 v 10.78007 c 0,2.7865 1.37921,4.44714 4.27827,4.44714 1.7451,0 3.57459,-0.78811 4.67229,-2.27987 l 0.19707,1.91398 h 2.73023 v -14.86132 h -3.15242 v 10.75193 c -0.73179,1.15401 -2.08281,2.08283 -3.46202,2.08283 -1.40729,0 -2.11096,-0.70364 -2.11096,-2.44875 z"
       style="font-style:normal;font-variant:normal;font-weight:500;font-stretch:normal;font-size:medium;line-height:125%;font-family:'Fira Code';-inkscape-font-specification:'Fira Code Medium';letter-spacing:-0.26458332px;word-spacing:0px;fill:#1f4e79;fill-opacity:1;stroke:none;stroke-width:0.70365614px;stroke-linecap:butt;stroke-linejoin:miter;stroke-opacity:1"
       id="path911-0-6"
       inkscape:connector-curvature="0" />
    <path
       d="m 156.74189,-132.36466 v 7.57138 c -0.95696,-1.06957 -2.1954,-1.63247 -3.74344,-1.63247 -3.65906,0 -5.8826,3.29311 -5.8826,7.82469 0,4.67229 1.77321,7.79655 5.60112,7.79655 1.74508,0 3.18053,-0.78811 4.16569,-2.19543 l 0.22526,1.82954 h 2.78648 v -20.82836 z m -2.92722,8.35949 c 1.21031,0 2.19541,0.61921 2.92722,1.66064 v 7.00844 c -0.73181,1.18214 -1.77321,2.13913 -3.18053,2.13913 -1.97023,0 -3.0961,-1.60433 -3.0961,-5.4041 0,-3.71533 1.23845,-5.40411 3.34941,-5.40411 z"
       style="font-style:normal;font-variant:normal;font-weight:500;font-stretch:normal;font-size:medium;line-height:125%;font-family:'Fira Code';-inkscape-font-specification:'Fira Code Medium';letter-spacing:-0.26458332px;word-spacing:0px;fill:#1f4e79;fill-opacity:1;stroke:none;stroke-width:0.70365614px;stroke-linecap:butt;stroke-linejoin:miter;stroke-opacity:1"
       id="path913-6-9"
       inkscape:connector-curvature="0" />
    <path
       d="m 166.80734,-117.5878 h 9.85122 c 0.0564,-0.36589 0.0843,-0.90069 0.0843,-1.40732 0,-4.61599 -2.47688,-7.43063 -6.41739,-7.43063 -4.22194,0 -6.78327,3.37755 -6.78327,7.82469 0,4.64416 2.53319,7.79655 7.17732,7.79655 2.08286,0 4.02495,-0.70367 5.40414,-1.82951 l -1.35105,-1.91396 c -1.26658,0.84439 -2.47686,1.29472 -3.91235,1.29472 -2.13913,0 -3.85604,-1.29472 -4.05306,-4.33454 z m 3.54642,-6.50181 c 2.111,0 3.26498,1.54804 3.32128,4.36268 h -6.89587 c 0.19707,-2.98352 1.60434,-4.36268 3.57459,-4.36268 z"
       style="font-style:normal;font-variant:normal;font-weight:500;font-stretch:normal;font-size:medium;line-height:125%;font-family:'Fira Code';-inkscape-font-specification:'Fira Code Medium';letter-spacing:-0.26458332px;word-spacing:0px;fill:#1f4e79;fill-opacity:1;stroke:none;stroke-width:0.70365614px;stroke-linecap:butt;stroke-linejoin:miter;stroke-opacity:1"
       id="path915-7-3"
       inkscape:connector-curvature="0" />
    <flowRoot
       transform="matrix(2.6594879,0,0,2.6594879,-12.917034,-239.48745)"
       style="font-style:normal;font-weight:normal;font-size:40px;line-height:1.25;font-family:sans-serif;letter-spacing:0px;word-spacing:0px;fill:#1f4e79;fill-opacity:1;stroke:none;"
       id="flowRoot3877-1-4"
       xml:space="preserve"><flowRegion
         id="flowRegion3879-1-4"
         style="fill:#1f4e79;fill-opacity:1;"><rect
           y="-6.7230711"
           x="204.44286"
           height="77.192383"
           width="218.47784"
           id="rect3881-3-3"
           style="fill:#1f4e79;fill-opacity:1;" /></flowRegion><flowPara
         id="flowPara3883-3-4" /></flowRoot>    <path
       d="m 62.475199,-45.174923 h 2.336148 v -2.279846 h -2.054694 l 0.619235,-4.419006 h -2.645765 l -0.591071,4.419006 h -3.574618 l 0.619235,-4.419006 h -2.645764 l -0.591072,4.419006 h -2.392448 v 2.279846 h 2.082831 l -0.816224,5.967039 h -2.30801 v 2.251709 h 2.02653 l -0.591071,4.503444 h 2.645765 l 0.591071,-4.503444 h 3.574591 l -0.591071,4.503444 h 2.617601 l 0.591098,-4.503444 h 2.392422 v -2.251709 h -2.082831 z m -7.008468,5.967039 0.788112,-5.967039 h 3.602729 l -0.81625,5.967039 z"
       style="font-style:normal;font-variant:normal;font-weight:500;font-stretch:normal;font-size:medium;line-height:125%;font-family:'Fira Code';-inkscape-font-specification:'Fira Code Medium';letter-spacing:-0.26458332px;word-spacing:0px;fill:#1f4e79;fill-opacity:1;stroke:none;stroke-width:0.70365614px;stroke-linecap:butt;stroke-linejoin:miter;stroke-opacity:1"
       id="path901-9-9"
       inkscape:connector-curvature="0" />
    <path
       d="m 73.835362,-54.603978 c -1.238444,0 -2.054694,0.872551 -2.054694,1.998392 0,1.125868 0.81625,1.970255 2.054694,1.970255 1.210279,0 2.054667,-0.844387 2.054667,-1.970255 0,-1.125841 -0.844388,-1.998392 -2.054667,-1.998392 z m 2.167269,7.289922 h -7.430662 v 2.30801 h 4.278265 v 10.245305 h -4.419005 v 2.30801 h 11.624462 v -2.30801 h -4.05306 z"
       style="font-style:normal;font-variant:normal;font-weight:500;font-stretch:normal;font-size:medium;line-height:125%;font-family:'Fira Code';-inkscape-font-specification:'Fira Code Medium';letter-spacing:-0.26458332px;word-spacing:0px;fill:#1f4e79;fill-opacity:1;stroke:none;stroke-width:0.70365614px;stroke-linecap:butt;stroke-linejoin:miter;stroke-opacity:1"
       id="path903-1-2"
       inkscape:connector-curvature="0" />
    <path
       d="m 84.069656,-32.452731 h 3.152397 V -43.12023 c 0.788086,-1.125867 2.02653,-2.16727 3.490126,-2.16727 1.801404,0 2.110995,0.985128 2.110995,3.574592 v 9.260177 h 3.152424 v -10.836376 c 0,-2.786505 -1.37921,-4.418979 -4.137551,-4.418979 -1.801378,0 -3.574591,0.816224 -4.813035,2.336148 l -0.225259,-1.942118 H 84.06955 Z"
       style="font-style:normal;font-variant:normal;font-weight:500;font-stretch:normal;font-size:medium;line-height:125%;font-family:'Fira Code';-inkscape-font-specification:'Fira Code Medium';letter-spacing:-0.26458332px;word-spacing:0px;fill:#1f4e79;fill-opacity:1;stroke:none;stroke-width:0.70365614px;stroke-linecap:butt;stroke-linejoin:miter;stroke-opacity:1"
       id="path905-8-3"
       inkscape:connector-curvature="0" />
    <path
       d="m 107.42017,-34.676302 c -2.30801,0 -3.99681,-1.407322 -3.99681,-5.122653 0,-3.715331 1.63253,-5.375968 3.99681,-5.375968 1.26658,0 2.47689,0.450357 3.63089,1.238443 l 1.4636,-1.970255 c -1.43546,-1.182142 -3.12423,-1.801351 -5.15079,-1.801351 -4.58786,0 -7.28992,3.37755 -7.28992,7.909131 0,4.644158 2.64576,7.712116 7.23362,7.712116 1.97028,0 3.91237,-0.731811 5.20709,-1.829515 l -1.43546,-2.026556 c -1.0977,0.731811 -2.27987,1.266608 -3.65903,1.266608 z"
       style="font-style:normal;font-weight:normal;font-size:medium;line-height:125%;font-family:sans-serif;letter-spacing:-0.54504168px;word-spacing:0px;fill:#1f4e79;fill-opacity:1;stroke:none;stroke-width:0.70365614px;stroke-linecap:butt;stroke-linejoin:miter;stroke-opacity:1"
       id="path907-3-6"
       inkscape:connector-curvature="0" />
    <path
       d="m 122.20012,-53.281096 h -7.62771 v 2.30801 h 4.47531 v 14.185788 c 0,2.927246 1.74507,4.700459 4.72859,4.700459 1.66064,0 2.95536,-0.365892 3.82789,-0.844387 l -0.78809,-2.195434 c -0.75995,0.309618 -1.5199,0.506632 -2.36429,0.506632 -1.32288,0 -2.2517,-0.506632 -2.2517,-1.885789 z"
       style="font-style:normal;font-variant:normal;font-weight:500;font-stretch:normal;font-size:medium;line-height:125%;font-family:'Fira Code';-inkscape-font-specification:'Fira Code Medium';letter-spacing:-0.26458332px;word-spacing:0px;fill:#1f4e79;fill-opacity:1;stroke:none;stroke-width:0.70365614px;stroke-linecap:butt;stroke-linejoin:miter;stroke-opacity:1"
       id="path909-9-9"
       inkscape:connector-curvature="0" />
    <path
       d="m 134.99574,-47.314056 h -3.15243 v 10.780075 c 0,2.786505 1.37921,4.447142 4.27827,4.447142 1.7451,0 3.57459,-0.788112 4.67229,-2.279872 l 0.19707,1.91398 h 2.73023 v -14.861325 h -3.15242 v 10.751937 c -0.73179,1.154005 -2.08281,2.082831 -3.46202,2.082831 -1.40729,0 -2.11097,-0.703647 -2.11097,-2.44875 z"
       style="font-style:normal;font-variant:normal;font-weight:500;font-stretch:normal;font-size:medium;line-height:125%;font-family:'Fira Code';-inkscape-font-specification:'Fira Code Medium';letter-spacing:-0.26458332px;word-spacing:0px;fill:#1f4e79;fill-opacity:1;stroke:none;stroke-width:0.70365614px;stroke-linecap:butt;stroke-linejoin:miter;stroke-opacity:1"
       id="path911-0-4"
       inkscape:connector-curvature="0" />
    <path
       d="m 156.74189,-53.646988 v 7.571376 c -0.95696,-1.069566 -2.19541,-1.632474 -3.74344,-1.632474 -3.65906,0 -5.8826,3.293111 -5.8826,7.824692 0,4.672295 1.77321,7.796555 5.60112,7.796555 1.74507,0 3.18053,-0.788112 4.16569,-2.195434 l 0.22526,1.829542 h 2.78647 v -20.828365 z m -2.92722,8.359488 c 1.21031,0 2.19541,0.619209 2.92722,1.660638 v 7.008442 c -0.73181,1.182142 -1.77321,2.139132 -3.18053,2.139132 -1.97023,0 -3.0961,-1.604336 -3.0961,-5.404106 0,-3.715331 1.23844,-5.404106 3.34941,-5.404106 z"
       style="font-style:normal;font-variant:normal;font-weight:500;font-stretch:normal;font-size:medium;line-height:125%;font-family:'Fira Code';-inkscape-font-specification:'Fira Code Medium';letter-spacing:-0.26458332px;word-spacing:0px;fill:#1f4e79;fill-opacity:1;stroke:none;stroke-width:0.70365614px;stroke-linecap:butt;stroke-linejoin:miter;stroke-opacity:1"
       id="path913-6-0"
       inkscape:connector-curvature="0" />
    <path
       d="m 166.80733,-38.870129 h 9.85123 c 0.0564,-0.365892 0.0843,-0.900688 0.0843,-1.407321 0,-4.615993 -2.47689,-7.430636 -6.4174,-7.430636 -4.22193,0 -6.78326,3.37755 -6.78326,7.824692 0,4.644158 2.53319,7.796555 7.17732,7.796555 2.08286,0 4.02495,-0.703674 5.40413,-1.829515 l -1.35104,-1.913953 c -1.26658,0.844387 -2.47686,1.294718 -3.91235,1.294718 -2.13913,0 -3.85604,-1.294718 -4.05306,-4.33454 z m 3.54643,-6.501809 c 2.111,0 3.26497,1.548034 3.32128,4.362677 h -6.89587 c 0.19707,-2.98352 1.60434,-4.362677 3.57459,-4.362677 z"
       style="font-style:normal;font-variant:normal;font-weight:500;font-stretch:normal;font-size:medium;line-height:125%;font-family:'Fira Code';-inkscape-font-specification:'Fira Code Medium';letter-spacing:-0.26458332px;word-spacing:0px;fill:#1f4e79;fill-opacity:1;stroke:none;stroke-width:0.70365614px;stroke-linecap:butt;stroke-linejoin:miter;stroke-opacity:1"
       id="path915-7-2"
       inkscape:connector-curvature="0" />
    <flowRoot
       transform="matrix(0.26458333,0,0,0.26458333,20.698039,-262.58741)"
       style="font-style:normal;font-weight:normal;font-size:40px;line-height:1.25;font-family:sans-serif;letter-spacing:0px;word-spacing:0px;fill:#1f4e79;fill-opacity:1;stroke:none;"
       id="flowRoot6894"
       xml:space="preserve"><flowRegion
         id="flowRegion6896"
         style="fill:#1f4e79;fill-opacity:1;"><rect
           y="1089.6641"
           x="1098.2252"
           height="148.05048"
           width="265.16504"
           id="rect6898"
           style="fill:#1f4e79;fill-opacity:1;" /></flowRegion><flowPara
         id="flowPara6900" /></flowRoot>    <flowRoot
       transform="matrix(2.6594879,0,0,2.6594879,-11.459254,-208.3164)"
       style="font-style:normal;font-weight:normal;font-size:40px;line-height:1.25;font-family:sans-serif;letter-spacing:0px;word-spacing:0px;fill:#1f4e79;fill-opacity:1;stroke:none;"
       id="flowRoot3877-1-9"
       xml:space="preserve"><flowRegion
         id="flowRegion3879-1-2"
         style="fill:#1f4e79;fill-opacity:1;"><rect
           y="-6.7230711"
           x="204.44286"
           height="77.192383"
           width="218.47784"
           id="rect3881-3-6"
           style="fill:#1f4e79;fill-opacity:1;" /></flowRegion><flowPara
         id="flowPara3883-3-5" /></flowRoot>    <text
       xml:space="preserve"
       style="font-style:normal;font-weight:normal;font-size:28.14624596px;line-height:125%;font-family:sans-serif;letter-spacing:0px;word-spacing:0px;fill:#1f4e79;fill-opacity:1;stroke:none;stroke-width:0.70365614px;stroke-linecap:butt;stroke-linejoin:miter;stroke-opacity:1"
       x="263.44818"
       y="-71.294235"
       id="text899-6-2-9"><tspan
         id="tspan897-8-7-1"
         x="262.76559"
         y="-71.294235"
         style="font-style:normal;font-variant:normal;font-weight:500;font-stretch:normal;font-size:28.14624596px;font-family:'Fira Code';-inkscape-font-specification:'Fira Code, Medium';font-variant-ligatures:no-contextual;font-variant-caps:normal;font-variant-numeric:normal;font-feature-settings:normal;text-align:end;letter-spacing:-0.6825465px;writing-mode:lr-tb;text-anchor:end;fill:#1f4e79;fill-opacity:1;stroke-width:0.70365614px">&lt;<tspan
   style="font-size:21.16666603px;fill:#1f4e79;fill-opacity:1;stroke-width:0.70365614px"
   id="tspan6598">⠉⠏⠏</tspan>&gt;</tspan></text>
    <path
       d="m 62.475199,-84.023109 h 2.336148 v -2.279846 h -2.054694 l 0.619235,-4.419005 h -2.645765 l -0.591071,4.419005 h -3.574618 l 0.619235,-4.419005 h -2.645764 l -0.591072,4.419005 h -2.392448 v 2.279846 h 2.082831 l -0.816224,5.96704 h -2.30801 v 2.251709 h 2.02653 l -0.591071,4.503444 h 2.645765 l 0.591071,-4.503444 h 3.574591 l -0.591071,4.503444 h 2.617601 l 0.591098,-4.503444 h 2.392422 v -2.251709 h -2.082831 z m -7.008468,5.96704 0.788112,-5.96704 h 3.602729 l -0.81625,5.96704 z"
       style="font-style:normal;font-variant:normal;font-weight:500;font-stretch:normal;font-size:medium;line-height:125%;font-family:'Fira Code';-inkscape-font-specification:'Fira Code Medium';letter-spacing:-0.26458332px;word-spacing:0px;fill:#1f4e79;fill-opacity:1;stroke:none;stroke-width:0.70365614px;stroke-linecap:butt;stroke-linejoin:miter;stroke-opacity:1"
       id="path901-9-9-2"
       inkscape:connector-curvature="0" />
    <path
       d="m 73.835362,-93.452163 c -1.238444,0 -2.054694,0.872551 -2.054694,1.998392 0,1.125868 0.81625,1.970255 2.054694,1.970255 1.210279,0 2.054667,-0.844387 2.054667,-1.970255 0,-1.125841 -0.844388,-1.998392 -2.054667,-1.998392 z m 2.167269,7.289922 h -7.430662 v 2.30801 h 4.278265 v 10.245305 h -4.419005 v 2.30801 h 11.624462 v -2.30801 h -4.05306 z"
       style="font-style:normal;font-variant:normal;font-weight:500;font-stretch:normal;font-size:medium;line-height:125%;font-family:'Fira Code';-inkscape-font-specification:'Fira Code Medium';letter-spacing:-0.26458332px;word-spacing:0px;fill:#1f4e79;fill-opacity:1;stroke:none;stroke-width:0.70365614px;stroke-linecap:butt;stroke-linejoin:miter;stroke-opacity:1"
       id="path903-1-2-3"
       inkscape:connector-curvature="0" />
    <path
       d="m 84.069656,-71.300916 h 3.152397 v -10.667499 c 0.788086,-1.125867 2.02653,-2.16727 3.490126,-2.16727 1.801404,0 2.110995,0.985128 2.110995,3.574591 v 9.260178 h 3.152424 v -10.836376 c 0,-2.786505 -1.37921,-4.418979 -4.137551,-4.418979 -1.801378,0 -3.574591,0.816224 -4.813035,2.336148 l -0.225259,-1.942118 H 84.06955 Z"
       style="font-style:normal;font-variant:normal;font-weight:500;font-stretch:normal;font-size:medium;line-height:125%;font-family:'Fira Code';-inkscape-font-specification:'Fira Code Medium';letter-spacing:-0.26458332px;word-spacing:0px;fill:#1f4e79;fill-opacity:1;stroke:none;stroke-width:0.70365614px;stroke-linecap:butt;stroke-linejoin:miter;stroke-opacity:1"
       id="path905-8-3-9"
       inkscape:connector-curvature="0" />
    <path
       d="m 107.42017,-73.524488 c -2.30801,0 -3.99681,-1.407321 -3.99681,-5.122652 0,-3.715331 1.63253,-5.375969 3.99681,-5.375969 1.26658,0 2.47689,0.450358 3.63089,1.238444 l 1.4636,-1.970255 c -1.43546,-1.182142 -3.12423,-1.801351 -5.15079,-1.801351 -4.58786,0 -7.28992,3.37755 -7.28992,7.909131 0,4.644157 2.64576,7.712116 7.23362,7.712116 1.97028,0 3.91237,-0.731811 5.20709,-1.829515 l -1.43546,-2.026556 c -1.0977,0.731811 -2.27987,1.266607 -3.65903,1.266607 z"
       style="font-style:normal;font-weight:normal;font-size:medium;line-height:125%;font-family:sans-serif;letter-spacing:-0.54504168px;word-spacing:0px;fill:#1f4e79;fill-opacity:1;stroke:none;stroke-width:0.70365614px;stroke-linecap:butt;stroke-linejoin:miter;stroke-opacity:1"
       id="path907-3-6-5"
       inkscape:connector-curvature="0" />
    <path
       d="m 122.20012,-92.129281 h -7.62771 v 2.30801 h 4.47531 v 14.185788 c 0,2.927245 1.74507,4.700459 4.72859,4.700459 1.66064,0 2.95536,-0.365892 3.82789,-0.844387 l -0.78809,-2.195434 c -0.75995,0.309617 -1.5199,0.506632 -2.36429,0.506632 -1.32288,0 -2.2517,-0.506632 -2.2517,-1.885789 z"
       style="font-style:normal;font-variant:normal;font-weight:500;font-stretch:normal;font-size:medium;line-height:125%;font-family:'Fira Code';-inkscape-font-specification:'Fira Code Medium';letter-spacing:-0.26458332px;word-spacing:0px;fill:#1f4e79;fill-opacity:1;stroke:none;stroke-width:0.70365614px;stroke-linecap:butt;stroke-linejoin:miter;stroke-opacity:1"
       id="path909-9-9-9"
       inkscape:connector-curvature="0" />
    <path
       d="m 134.99574,-86.162241 h -3.15243 v 10.780075 c 0,2.786505 1.37921,4.447142 4.27827,4.447142 1.7451,0 3.57459,-0.788113 4.67229,-2.279873 l 0.19707,1.913981 h 2.73023 v -14.861325 h -3.15242 v 10.751937 c -0.73179,1.154005 -2.08281,2.082831 -3.46202,2.082831 -1.40729,0 -2.11097,-0.703647 -2.11097,-2.44875 z"
       style="font-style:normal;font-variant:normal;font-weight:500;font-stretch:normal;font-size:medium;line-height:125%;font-family:'Fira Code';-inkscape-font-specification:'Fira Code Medium';letter-spacing:-0.26458332px;word-spacing:0px;fill:#1f4e79;fill-opacity:1;stroke:none;stroke-width:0.70365614px;stroke-linecap:butt;stroke-linejoin:miter;stroke-opacity:1"
       id="path911-0-4-6"
       inkscape:connector-curvature="0" />
    <path
       d="m 156.74189,-92.495173 v 7.571376 c -0.95696,-1.069567 -2.19541,-1.632474 -3.74344,-1.632474 -3.65906,0 -5.8826,3.293111 -5.8826,7.824692 0,4.672295 1.77321,7.796555 5.60112,7.796555 1.74507,0 3.18053,-0.788113 4.16569,-2.195434 l 0.22526,1.829542 h 2.78647 v -20.828365 z m -2.92722,8.359488 c 1.21031,0 2.19541,0.619209 2.92722,1.660638 v 7.008442 c -0.73181,1.182142 -1.77321,2.139132 -3.18053,2.139132 -1.97023,0 -3.0961,-1.604336 -3.0961,-5.404106 0,-3.715331 1.23844,-5.404106 3.34941,-5.404106 z"
       style="font-style:normal;font-variant:normal;font-weight:500;font-stretch:normal;font-size:medium;line-height:125%;font-family:'Fira Code';-inkscape-font-specification:'Fira Code Medium';letter-spacing:-0.26458332px;word-spacing:0px;fill:#1f4e79;fill-opacity:1;stroke:none;stroke-width:0.70365614px;stroke-linecap:butt;stroke-linejoin:miter;stroke-opacity:1"
       id="path913-6-0-9"
       inkscape:connector-curvature="0" />
    <path
       d="m 166.80733,-77.718314 h 9.85123 c 0.0564,-0.365892 0.0843,-0.900689 0.0843,-1.407321 0,-4.615993 -2.47689,-7.430636 -6.4174,-7.430636 -4.22193,0 -6.78326,3.37755 -6.78326,7.824692 0,4.644158 2.53319,7.796555 7.17732,7.796555 2.08286,0 4.02495,-0.703674 5.40413,-1.829515 l -1.35104,-1.913954 c -1.26658,0.844388 -2.47686,1.294719 -3.91235,1.294719 -2.13913,0 -3.85604,-1.294719 -4.05306,-4.33454 z m 3.54643,-6.501809 c 2.111,0 3.26497,1.548034 3.32128,4.362677 h -6.89587 c 0.19707,-2.98352 1.60434,-4.362677 3.57459,-4.362677 z"
       style="font-style:normal;font-variant:normal;font-weight:500;font-stretch:normal;font-size:medium;line-height:125%;font-family:'Fira Code';-inkscape-font-specification:'Fira Code Medium';letter-spacing:-0.26458332px;word-spacing:0px;fill:#1f4e79;fill-opacity:1;stroke:none;stroke-width:0.70365614px;stroke-linecap:butt;stroke-linejoin:miter;stroke-opacity:1"
       id="path915-7-2-4"
       inkscape:connector-curvature="0" />
    <flowRoot
       xml:space="preserve"
       id="flowRoot6604"
       style="font-style:normal;font-weight:normal;font-size:40px;line-height:1.25;font-family:sans-serif;letter-spacing:0px;word-spacing:0px;fill:#1f4e79;fill-opacity:1;stroke:none;"
       transform="matrix(0.26458333,0,0,0.26458333,20.698088,-262.58741)"><flowRegion
         id="flowRegion6606"
         style="fill:#1f4e79;fill-opacity:1;"><rect
           id="rect6608"
           width="1367.613"
           height="1162.8618"
           x="-23.444796"
           y="-102.46394"
           style="fill:#1f4e79;fill-opacity:1;" /></flowRegion><flowPara
         id="flowPara6610" /></flowRoot>    <text
       xml:space="preserve"
       style="font-style:normal;font-weight:normal;font-size:28.14624596px;line-height:125%;font-family:sans-serif;letter-spacing:0px;word-spacing:0px;fill:#1f4e79;fill-opacity:1;stroke:none;stroke-width:0.70365614px;stroke-linecap:butt;stroke-linejoin:miter;stroke-opacity:1"
       x="282.78943"
       y="-152.75719"
       id="text899-6-2-1"><tspan
         id="tspan897-8-7-4"
         x="282.10687"
         y="-152.75719"
         style="font-style:normal;font-variant:normal;font-weight:500;font-stretch:normal;font-size:28.14624596px;font-family:'Fira Code';-inkscape-font-specification:'Fira Code, Medium';font-variant-ligatures:no-contextual;font-variant-caps:normal;font-variant-numeric:normal;font-feature-settings:normal;text-align:end;letter-spacing:-0.6825465px;writing-mode:lr-tb;text-anchor:end;fill:#1f4e79;fill-opacity:1;stroke-width:0.70365614px">&lt;<tspan
   id="tspan4382"
   style="font-size:38.80555725px;fill:#1f4e79;fill-opacity:1;stroke-width:0.70365614px">♀</tspan><tspan
   style="font-size:26.73513603px"
   id="tspan1133">⚧</tspan><tspan
   id="tspan6845"
   style="font-size:38.80555344px;fill:#1f4e79;fill-opacity:1">♂</tspan>&gt;</tspan></text>
    <path
       d="m 62.475199,-165.4861 h 2.336148 v -2.27985 h -2.054694 l 0.619235,-4.419 h -2.645765 l -0.591071,4.419 h -3.574618 l 0.619235,-4.419 h -2.645764 l -0.591072,4.419 h -2.392448 v 2.27985 h 2.082831 l -0.816224,5.96704 h -2.30801 v 2.25171 h 2.02653 l -0.591071,4.50344 h 2.645765 l 0.591071,-4.50344 h 3.574591 l -0.591071,4.50344 h 2.617601 l 0.591098,-4.50344 h 2.392422 v -2.25171 h -2.082831 z m -7.008468,5.96704 0.788112,-5.96704 h 3.602729 l -0.81625,5.96704 z"
       style="font-style:normal;font-variant:normal;font-weight:500;font-stretch:normal;font-size:medium;line-height:125%;font-family:'Fira Code';-inkscape-font-specification:'Fira Code Medium';letter-spacing:-0.26458332px;word-spacing:0px;fill:#1f4e79;fill-opacity:1;stroke:none;stroke-width:0.70365614px;stroke-linecap:butt;stroke-linejoin:miter;stroke-opacity:1"
       id="path901-9-9-3"
       inkscape:connector-curvature="0" />
    <path
       d="m 73.835362,-174.91516 c -1.238444,0 -2.054694,0.87256 -2.054694,1.9984 0,1.12586 0.81625,1.97025 2.054694,1.97025 1.210279,0 2.054667,-0.84439 2.054667,-1.97025 0,-1.12584 -0.844388,-1.9984 -2.054667,-1.9984 z m 2.167269,7.28993 h -7.430662 v 2.30801 h 4.278265 v 10.2453 h -4.419005 v 2.30801 h 11.624462 v -2.30801 h -4.05306 z"
       style="font-style:normal;font-variant:normal;font-weight:500;font-stretch:normal;font-size:medium;line-height:125%;font-family:'Fira Code';-inkscape-font-specification:'Fira Code Medium';letter-spacing:-0.26458332px;word-spacing:0px;fill:#1f4e79;fill-opacity:1;stroke:none;stroke-width:0.70365614px;stroke-linecap:butt;stroke-linejoin:miter;stroke-opacity:1"
       id="path903-1-2-8"
       inkscape:connector-curvature="0" />
    <path
       d="m 84.069656,-152.76391 h 3.152397 v -10.6675 c 0.788086,-1.12586 2.02653,-2.16727 3.490126,-2.16727 1.801404,0 2.110995,0.98513 2.110995,3.57459 v 9.26018 h 3.152424 v -10.83637 c 0,-2.78651 -1.37921,-4.41898 -4.137551,-4.41898 -1.801378,0 -3.574591,0.81622 -4.813035,2.33614 l -0.225259,-1.94211 H 84.06955 Z"
       style="font-style:normal;font-variant:normal;font-weight:500;font-stretch:normal;font-size:medium;line-height:125%;font-family:'Fira Code';-inkscape-font-specification:'Fira Code Medium';letter-spacing:-0.26458332px;word-spacing:0px;fill:#1f4e79;fill-opacity:1;stroke:none;stroke-width:0.70365614px;stroke-linecap:butt;stroke-linejoin:miter;stroke-opacity:1"
       id="path905-8-3-1"
       inkscape:connector-curvature="0" />
    <path
       d="m 107.42017,-154.98748 c -2.30801,0 -3.99681,-1.40732 -3.99681,-5.12265 0,-3.71533 1.63253,-5.37597 3.99681,-5.37597 1.26658,0 2.47689,0.45036 3.63089,1.23844 l 1.4636,-1.97025 c -1.43546,-1.18214 -3.12423,-1.80135 -5.15079,-1.80135 -4.58786,0 -7.28992,3.37755 -7.28992,7.90913 0,4.64416 2.64576,7.71211 7.23362,7.71211 1.97028,0 3.91237,-0.73181 5.20709,-1.82951 l -1.43546,-2.02656 c -1.0977,0.73181 -2.27987,1.26661 -3.65903,1.26661 z"
       style="font-style:normal;font-weight:normal;font-size:medium;line-height:125%;font-family:sans-serif;letter-spacing:-0.54504168px;word-spacing:0px;fill:#1f4e79;fill-opacity:1;stroke:none;stroke-width:0.70365614px;stroke-linecap:butt;stroke-linejoin:miter;stroke-opacity:1"
       id="path907-3-6-9"
       inkscape:connector-curvature="0" />
    <path
       d="m 122.20012,-173.59227 h -7.62771 v 2.30801 h 4.47531 v 14.18579 c 0,2.92724 1.74507,4.70045 4.72859,4.70045 1.66064,0 2.95536,-0.36589 3.82789,-0.84438 l -0.78809,-2.19544 c -0.75995,0.30962 -1.5199,0.50664 -2.36429,0.50664 -1.32288,0 -2.2517,-0.50664 -2.2517,-1.88579 z"
       style="font-style:normal;font-variant:normal;font-weight:500;font-stretch:normal;font-size:medium;line-height:125%;font-family:'Fira Code';-inkscape-font-specification:'Fira Code Medium';letter-spacing:-0.26458332px;word-spacing:0px;fill:#1f4e79;fill-opacity:1;stroke:none;stroke-width:0.70365614px;stroke-linecap:butt;stroke-linejoin:miter;stroke-opacity:1"
       id="path909-9-9-8"
       inkscape:connector-curvature="0" />
    <path
       d="m 134.99574,-167.62523 h -3.15243 v 10.78007 c 0,2.78651 1.37921,4.44714 4.27827,4.44714 1.7451,0 3.57459,-0.78811 4.67229,-2.27987 l 0.19707,1.91398 h 2.73023 v -14.86132 h -3.15242 v 10.75193 c -0.73179,1.15401 -2.08281,2.08284 -3.46202,2.08284 -1.40729,0 -2.11097,-0.70365 -2.11097,-2.44875 z"
       style="font-style:normal;font-variant:normal;font-weight:500;font-stretch:normal;font-size:medium;line-height:125%;font-family:'Fira Code';-inkscape-font-specification:'Fira Code Medium';letter-spacing:-0.26458332px;word-spacing:0px;fill:#1f4e79;fill-opacity:1;stroke:none;stroke-width:0.70365614px;stroke-linecap:butt;stroke-linejoin:miter;stroke-opacity:1"
       id="path911-0-4-8"
       inkscape:connector-curvature="0" />
    <path
       d="m 156.74189,-173.95816 v 7.57137 c -0.95696,-1.06957 -2.19541,-1.63247 -3.74344,-1.63247 -3.65906,0 -5.8826,3.29311 -5.8826,7.82469 0,4.67229 1.77321,7.79655 5.60112,7.79655 1.74507,0 3.18053,-0.78811 4.16569,-2.19543 l 0.22526,1.82954 h 2.78647 v -20.82836 z m -2.92722,8.35948 c 1.21031,0 2.19541,0.61921 2.92722,1.66064 v 7.00844 c -0.73181,1.18215 -1.77321,2.13914 -3.18053,2.13914 -1.97023,0 -3.0961,-1.60434 -3.0961,-5.40411 0,-3.71533 1.23844,-5.40411 3.34941,-5.40411 z"
       style="font-style:normal;font-variant:normal;font-weight:500;font-stretch:normal;font-size:medium;line-height:125%;font-family:'Fira Code';-inkscape-font-specification:'Fira Code Medium';letter-spacing:-0.26458332px;word-spacing:0px;fill:#1f4e79;fill-opacity:1;stroke:none;stroke-width:0.70365614px;stroke-linecap:butt;stroke-linejoin:miter;stroke-opacity:1"
       id="path913-6-0-8"
       inkscape:connector-curvature="0" />
    <path
       d="m 166.80733,-159.18131 h 9.85123 c 0.0564,-0.36589 0.0843,-0.90068 0.0843,-1.40732 0,-4.61599 -2.47689,-7.43063 -6.4174,-7.43063 -4.22193,0 -6.78326,3.37755 -6.78326,7.82469 0,4.64416 2.53319,7.79655 7.17732,7.79655 2.08286,0 4.02495,-0.70367 5.40413,-1.82951 l -1.35104,-1.91395 c -1.26658,0.84438 -2.47686,1.29471 -3.91235,1.29471 -2.13913,0 -3.85604,-1.29471 -4.05306,-4.33454 z m 3.54643,-6.50181 c 2.111,0 3.26497,1.54804 3.32128,4.36268 h -6.89587 c 0.19707,-2.98352 1.60434,-4.36268 3.57459,-4.36268 z"
       style="font-style:normal;font-variant:normal;font-weight:500;font-stretch:normal;font-size:medium;line-height:125%;font-family:'Fira Code';-inkscape-font-specification:'Fira Code Medium';letter-spacing:-0.26458332px;word-spacing:0px;fill:#1f4e79;fill-opacity:1;stroke:none;stroke-width:0.70365614px;stroke-linecap:butt;stroke-linejoin:miter;stroke-opacity:1"
       id="path915-7-2-1"
       inkscape:connector-curvature="0" />
    <flowRoot
       transform="matrix(0.26458333,0,0,0.26458333,20.698069,-262.5874)"
       style="font-style:normal;font-weight:normal;font-size:40px;line-height:1.25;font-family:sans-serif;letter-spacing:0px;word-spacing:0px;fill:#1f4e79;fill-opacity:1;stroke:none;"
       id="flowRoot4392"
       xml:space="preserve"><flowRegion
         id="flowRegion4394"
         style="fill:#1f4e79;fill-opacity:1;"><rect
           y="-63.389282"
           x="-79.712303"
           height="1006.5632"
           width="1337.9164"
           id="rect4396"
           style="fill:#1f4e79;fill-opacity:1;" /></flowRegion><flowPara
         id="flowPara4398" /></flowRoot>    <g
       id="g7036"
       style="fill:#1f4e79;fill-opacity:1">
      <path
         inkscape:connector-curvature="0"
         id="path901-9-9-7"
         style="font-style:normal;font-variant:normal;font-weight:500;font-stretch:normal;font-size:medium;line-height:125%;font-family:'Fira Code';-inkscape-font-specification:'Fira Code Medium';letter-spacing:-0.26458332px;word-spacing:0px;fill:#1f4e79;fill-opacity:1;stroke:none;stroke-width:0.70365614px;stroke-linecap:butt;stroke-linejoin:miter;stroke-opacity:1"
         d="m 62.475199,-4.606574 h 2.336148 V -6.88642 h -2.054694 l 0.619235,-4.419006 h -2.645765 l -0.591071,4.419006 h -3.574618 l 0.619235,-4.419006 h -2.645764 l -0.591072,4.419006 h -2.392448 v 2.279846 h 2.082831 l -0.816224,5.967039 h -2.30801 v 2.251709 h 2.02653 l -0.591071,4.503444 h 2.645765 l 0.591071,-4.503444 h 3.574591 l -0.591071,4.503444 h 2.617601 l 0.591098,-4.503444 h 2.392422 V 1.360465 h -2.082831 z m -7.008468,5.967039 0.788112,-5.967039 h 3.602729 l -0.81625,5.967039 z" />
      <path
         inkscape:connector-curvature="0"
         id="path903-1-2-0"
         style="font-style:normal;font-variant:normal;font-weight:500;font-stretch:normal;font-size:medium;line-height:125%;font-family:'Fira Code';-inkscape-font-specification:'Fira Code Medium';letter-spacing:-0.26458332px;word-spacing:0px;fill:#1f4e79;fill-opacity:1;stroke:none;stroke-width:0.70365614px;stroke-linecap:butt;stroke-linejoin:miter;stroke-opacity:1"
         d="m 73.835362,-14.035629 c -1.238444,0 -2.054694,0.872551 -2.054694,1.998392 0,1.125868 0.81625,1.970255 2.054694,1.970255 1.210279,0 2.054667,-0.844387 2.054667,-1.970255 0,-1.125841 -0.844388,-1.998392 -2.054667,-1.998392 z m 2.167269,7.289922 h -7.430662 v 2.30801 h 4.278265 V 5.807608 h -4.419005 v 2.30801 h 11.624462 v -2.30801 h -4.05306 z" />
      <path
         inkscape:connector-curvature="0"
         id="path905-8-3-3"
         style="font-style:normal;font-variant:normal;font-weight:500;font-stretch:normal;font-size:medium;line-height:125%;font-family:'Fira Code';-inkscape-font-specification:'Fira Code Medium';letter-spacing:-0.26458332px;word-spacing:0px;fill:#1f4e79;fill-opacity:1;stroke:none;stroke-width:0.70365614px;stroke-linecap:butt;stroke-linejoin:miter;stroke-opacity:1"
         d="m 84.069656,8.115618 h 3.152397 V -2.551881 c 0.788086,-1.125867 2.02653,-2.16727 3.490126,-2.16727 1.801404,0 2.110995,0.985128 2.110995,3.574592 v 9.260177 h 3.152424 V -2.720758 c 0,-2.786505 -1.37921,-4.418979 -4.137551,-4.418979 -1.801378,0 -3.574591,0.816224 -4.813035,2.336148 L 86.799753,-6.745707 H 84.06955 Z" />
      <path
         inkscape:connector-curvature="0"
         id="path907-3-6-4"
         style="font-style:normal;font-weight:normal;font-size:medium;line-height:125%;font-family:sans-serif;letter-spacing:-0.54504168px;word-spacing:0px;fill:#1f4e79;fill-opacity:1;stroke:none;stroke-width:0.70365614px;stroke-linecap:butt;stroke-linejoin:miter;stroke-opacity:1"
         d="m 107.42017,5.892047 c -2.30801,0 -3.99681,-1.407322 -3.99681,-5.122653 0,-3.715331 1.63253,-5.375968 3.99681,-5.375968 1.26658,0 2.47689,0.450357 3.63089,1.238443 l 1.4636,-1.970255 c -1.43546,-1.182142 -3.12423,-1.801351 -5.15079,-1.801351 -4.58786,0 -7.28992,3.37755 -7.28992,7.909131 0,4.644158 2.64576,7.712116 7.23362,7.712116 1.97028,0 3.91237,-0.731811 5.20709,-1.829515 L 111.0792,4.625439 c -1.0977,0.731811 -2.27987,1.266608 -3.65903,1.266608 z" />
      <path
         inkscape:connector-curvature="0"
         id="path909-9-9-3"
         style="font-style:normal;font-variant:normal;font-weight:500;font-stretch:normal;font-size:medium;line-height:125%;font-family:'Fira Code';-inkscape-font-specification:'Fira Code Medium';letter-spacing:-0.26458332px;word-spacing:0px;fill:#1f4e79;fill-opacity:1;stroke:none;stroke-width:0.70365614px;stroke-linecap:butt;stroke-linejoin:miter;stroke-opacity:1"
         d="m 122.20012,-12.712747 h -7.62771 v 2.30801 h 4.47531 V 3.781051 c 0,2.927246 1.74507,4.700459 4.72859,4.700459 1.66064,0 2.95536,-0.365892 3.82789,-0.844387 l -0.78809,-2.195434 c -0.75995,0.309618 -1.5199,0.506632 -2.36429,0.506632 -1.32288,0 -2.2517,-0.506632 -2.2517,-1.885789 z" />
      <path
         inkscape:connector-curvature="0"
         id="path911-0-4-61"
         style="font-style:normal;font-variant:normal;font-weight:500;font-stretch:normal;font-size:medium;line-height:125%;font-family:'Fira Code';-inkscape-font-specification:'Fira Code Medium';letter-spacing:-0.26458332px;word-spacing:0px;fill:#1f4e79;fill-opacity:1;stroke:none;stroke-width:0.70365614px;stroke-linecap:butt;stroke-linejoin:miter;stroke-opacity:1"
         d="m 134.99574,-6.745707 h -3.15243 V 4.034368 c 0,2.786505 1.37921,4.447142 4.27827,4.447142 1.7451,0 3.57459,-0.788112 4.67229,-2.279872 l 0.19707,1.91398 h 2.73023 V -6.745707 h -3.15242 V 4.00623 c -0.73179,1.154005 -2.08281,2.082831 -3.46202,2.082831 -1.40729,0 -2.11097,-0.703647 -2.11097,-2.44875 z" />
      <path
         inkscape:connector-curvature="0"
         id="path913-6-0-0"
         style="font-style:normal;font-variant:normal;font-weight:500;font-stretch:normal;font-size:medium;line-height:125%;font-family:'Fira Code';-inkscape-font-specification:'Fira Code Medium';letter-spacing:-0.26458332px;word-spacing:0px;fill:#1f4e79;fill-opacity:1;stroke:none;stroke-width:0.70365614px;stroke-linecap:butt;stroke-linejoin:miter;stroke-opacity:1"
         d="m 156.74189,-13.078639 v 7.571376 c -0.95696,-1.069566 -2.19541,-1.632474 -3.74344,-1.632474 -3.65906,0 -5.8826,3.293111 -5.8826,7.824692 0,4.672295 1.77321,7.796555 5.60112,7.796555 1.74507,0 3.18053,-0.788112 4.16569,-2.195434 l 0.22526,1.829542 h 2.78647 v -20.828365 z m -2.92722,8.359488 c 1.21031,0 2.19541,0.619209 2.92722,1.660638 v 7.008442 c -0.73181,1.182142 -1.77321,2.139132 -3.18053,2.139132 -1.97023,0 -3.0961,-1.604336 -3.0961,-5.404106 0,-3.715331 1.23844,-5.404106 3.34941,-5.404106 z" />
      <path
         inkscape:connector-curvature="0"
         id="path915-7-2-8"
         style="font-style:normal;font-variant:normal;font-weight:500;font-stretch:normal;font-size:medium;line-height:125%;font-family:'Fira Code';-inkscape-font-specification:'Fira Code Medium';letter-spacing:-0.26458332px;word-spacing:0px;fill:#1f4e79;fill-opacity:1;stroke:none;stroke-width:0.70365614px;stroke-linecap:butt;stroke-linejoin:miter;stroke-opacity:1"
         d="m 166.80733,1.69822 h 9.85123 c 0.0564,-0.365892 0.0843,-0.900688 0.0843,-1.407321 0,-4.615993 -2.47689,-7.430636 -6.4174,-7.430636 -4.22193,0 -6.78326,3.37755 -6.78326,7.824692 0,4.644158 2.53319,7.796555 7.17732,7.796555 2.08286,0 4.02495,-0.703674 5.40413,-1.829515 l -1.35104,-1.913953 c -1.26658,0.844387 -2.47686,1.294718 -3.91235,1.294718 -2.13913,0 -3.85604,-1.294718 -4.05306,-4.33454 z m 3.54643,-6.501809 c 2.111,0 3.26497,1.548034 3.32128,4.362677 h -6.89587 c 0.19707,-2.98352 1.60434,-4.362677 3.57459,-4.362677 z" />
    </g>
    <g
       aria-label="&lt;🌏🌎🌍&gt;"
       style="font-style:normal;font-weight:normal;font-size:28.14624596px;line-height:125%;font-family:sans-serif;letter-spacing:0px;word-spacing:0px;fill:#1f4e79;fill-opacity:1;stroke:none;stroke-width:0.70365614px;stroke-linecap:butt;stroke-linejoin:miter;stroke-opacity:1"
       id="text899-6-9"
       transform="translate(2.6210401,-1.9999773)">
      <path
         d="m 194.42058,-209.27353 -10.8926,6.72695 v 2.73019 l 10.80816,6.72695 1.54804,-2.27984 -9.65416,-5.79813 9.65416,-5.82627 z"
         style="font-style:normal;font-variant:normal;font-weight:500;font-stretch:normal;font-size:28.14624596px;font-family:'Fira Code';-inkscape-font-specification:'Fira Code, Medium';font-variant-ligatures:no-contextual;font-variant-caps:normal;font-variant-numeric:normal;font-feature-settings:normal;text-align:end;letter-spacing:-0.6825465px;writing-mode:lr-tb;text-anchor:end;fill:#1f4e79;fill-opacity:1;stroke-width:0.70365614px"
         id="path129"
         inkscape:connector-curvature="0" />
      <path
         d="m 209.6647,-208.82209 q 1.36517,0 2.62039,0.35732 1.26438,0.34817 2.36385,0.98952 1.09946,0.64135 1.99735,1.54841 0.90706,0.8979 1.54841,1.99736 0.64136,1.09946 0.98952,2.36384 0.35733,1.25522 0.35733,2.62039 0,1.36517 -0.35733,2.62955 -0.34816,1.25522 -0.98952,2.35468 -0.64135,1.09946 -1.54841,1.99736 -0.89789,0.90706 -1.99735,1.54841 -1.09947,0.64135 -2.36385,0.98952 -1.25522,0.35732 -2.62039,0.35732 -1.36516,0 -2.62954,-0.35732 -1.25522,-0.34817 -2.35469,-0.98952 -1.09946,-0.64135 -2.00652,-1.54841 -0.89789,-0.8979 -1.53924,-1.99736 -0.64136,-1.09946 -0.99868,-2.35468 -0.34817,-1.26438 -0.34817,-2.62955 0,-1.36517 0.34817,-2.62039 0.35732,-1.26438 0.99868,-2.36384 0.64135,-1.09946 1.53924,-1.99736 0.90706,-0.90706 2.00652,-1.54841 1.09947,-0.64135 2.35469,-0.98952 1.26438,-0.35732 2.62954,-0.35732 z m 0,18.43433 q 1.18193,0 2.27223,-0.31152 1.09946,-0.30235 2.04317,-0.86124 0.95286,-0.54974 1.73165,-1.32852 0.78795,-0.78795 1.33768,-1.73166 0.55889,-0.95286 0.86125,-2.04316 0.31151,-1.09947 0.31151,-2.28139 0,-1.18192 -0.31151,-2.27222 -0.30236,-1.09947 -0.86125,-2.04317 -0.54973,-0.95287 -1.33768,-1.73166 -0.77879,-0.78794 -1.73165,-1.33768 -0.94371,-0.55889 -2.04317,-0.86124 -1.0903,-0.31152 -2.27223,-0.31152 -0.85208,0 -1.68584,0.16492 -0.8246,0.16492 -1.61254,0.49476 0.64135,0 1.09946,0.26571 0.45811,0.2657 0.87957,0.71465 0.14659,0.15575 0.28403,0.24738 0.14659,0.0824 0.37565,0.0824 h 2.63871 q 0.21073,0 0.35732,0.0916 0.15576,0.0916 0.30236,0.23821 0.15575,0.15576 0.28402,0.24738 0.13744,0.0825 0.36649,0.0825 h 0.98952 q 0.13743,0 0.22905,0.10079 0.10079,0.0916 0.10079,0.22905 0,0.21989 -0.1466,0.27487 -0.13743,0.055 -0.30235,0.055 h -0.21073 q -0.27487,0 -0.51308,0.10995 -0.23822,0.10078 -0.42146,0.28402 -0.17409,0.17409 -0.27487,0.4123 -0.10078,0.23822 -0.10078,0.51309 0,0.13743 -0.10079,0.23821 -0.0916,0.0916 -0.22905,0.0916 -0.13744,0 -0.23822,-0.0916 -0.0916,-0.10078 -0.0916,-0.23821 0,-0.24738 -0.10995,-0.37565 -0.10078,-0.13744 -0.25654,-0.20157 -0.15576,-0.0733 -0.35732,-0.0825 -0.19241,-0.0183 -0.36649,-0.0183 -0.0916,0 -0.19241,0.009 -0.0916,0.009 -0.17408,0.0458 -0.0825,0.0367 -0.13743,0.10994 -0.055,0.0641 -0.055,0.18325 0,0.13743 0.0733,0.20156 0.0733,0.0641 0.18325,0.10079 0.10994,0.0367 0.23821,0.0733 0.12827,0.0275 0.23822,0.0916 0.10995,0.0641 0.18324,0.18324 0.0733,0.11911 0.0733,0.339 0,0.26571 -0.20157,0.46727 -0.1924,0.19241 -0.45811,0.19241 -0.22905,0 -0.35732,0.0916 -0.12827,0.0825 -0.20157,0.2199 -0.0641,0.13743 -0.0825,0.31151 -0.0183,0.16492 -0.0183,0.339 v 0.34816 q 0,0.18325 -0.10994,0.23822 -0.10079,0.055 -0.22906,0.0916 -0.1191,0.0366 -0.21989,0.0916 -0.10078,0.055 -0.10078,0.23822 v 1.31936 q 0,0.13743 -0.10079,0.23821 -0.0916,0.0916 -0.22905,0.0916 -0.13743,0 -0.20157,-0.0641 -0.0641,-0.0641 -0.10078,-0.15576 -0.0275,-0.10078 -0.0458,-0.21073 -0.0183,-0.11911 -0.055,-0.21073 -0.055,-0.12827 -0.10994,-0.1924 -0.055,-0.0641 -0.1466,-0.15576 -0.15576,-0.16492 -0.22905,-0.339 -0.0641,-0.17408 -0.10995,-0.31152 -0.0458,-0.14659 -0.10995,-0.23821 -0.055,-0.10079 -0.20156,-0.10079 -0.15576,0 -0.2199,0.10079 -0.0641,0.0916 -0.10994,0.23821 -0.0458,0.13744 -0.10995,0.31152 -0.0641,0.17408 -0.21989,0.339 -0.0916,0.0916 -0.1466,0.15576 -0.055,0.0641 -0.10994,0.1924 -0.0458,0.0916 -0.0641,0.20157 -0.009,0.10995 -0.0458,0.21073 -0.0275,0.0916 -0.0916,0.16492 -0.0641,0.0641 -0.20157,0.0641 -0.12827,0 -0.20157,-0.0641 -0.0641,-0.0733 -0.10078,-0.16492 -0.0275,-0.10078 -0.055,-0.21073 -0.0183,-0.10995 -0.055,-0.20157 -0.0458,-0.10994 -0.10078,-0.17408 -0.055,-0.0733 -0.12827,-0.15576 l -0.0367,-0.0366 q -0.0733,-0.0825 -0.12827,-0.1466 -0.055,-0.0733 -0.10079,-0.18324 -0.0366,-0.0916 -0.0641,-0.20157 -0.0183,-0.10995 -0.055,-0.20157 -0.0275,-0.10078 -0.10078,-0.16492 -0.0641,-0.0733 -0.19241,-0.0733 -0.13743,0 -0.20156,0.0733 -0.0641,0.0733 -0.10079,0.18324 -0.0367,0.10995 -0.0733,0.23822 -0.0275,0.12827 -0.0916,0.23822 -0.0641,0.10994 -0.18324,0.18324 -0.11911,0.0733 -0.339,0.0733 -0.27487,0 -0.46727,-0.19241 -0.19241,-0.1924 -0.19241,-0.46727 -0.2657,0 -0.46727,0.20157 -0.19241,0.19241 -0.19241,0.45811 0,0.2657 0.19241,0.46727 0.20157,0.19241 0.46727,0.19241 0.27487,0 0.46727,0.1924 0.19241,0.19241 0.19241,0.46728 0,0.23821 -0.10995,0.38481 -0.10078,0.14659 -0.22905,0.27486 -0.11911,0.12827 -0.2199,0.28403 -0.10078,0.1466 -0.10078,0.37565 v 0.34816 q 0,0.32068 -0.0458,0.51309 -0.0458,0.18324 -0.15576,0.28402 -0.10994,0.10079 -0.30235,0.13744 -0.19241,0.0275 -0.49476,0.0275 l -0.0916,-0.15575 q 0.54057,1.0903 1.34684,1.97903 0.81544,0.87957 1.81412,1.49344 0.99867,0.62303 2.14395,0.95286 1.15443,0.33901 2.373,0.33901 z m -6.09285,-5.26826 q 0.16492,0 0.16492,0.16492 0,0.21073 -0.1466,0.35732 -0.13743,0.13743 -0.34816,0.13743 -0.16492,0 -0.16492,-0.16492 0,-0.0916 0.0458,-0.1191 0.055,-0.0275 0.11911,-0.0458 0.0641,-0.0183 0.10995,-0.0458 0.055,-0.0275 0.055,-0.1191 0,-0.16492 0.16492,-0.16492 z m 7.41221,-0.65052 q 0.18324,0 0.23822,0.10078 0.055,0.10079 0.0916,0.22906 0.0367,0.11911 0.0916,0.21989 0.055,0.10079 0.23822,0.10079 0.2657,0 0.45811,0.20156 0.20157,0.19241 0.20157,0.45811 v 0.65968 q 0,0.23822 -0.10995,0.38481 -0.10078,0.1466 -0.22906,0.27487 -0.1191,0.12827 -0.21989,0.27486 -0.10078,0.1466 -0.10078,0.38482 -0.23822,0 -0.38481,-0.10079 -0.1466,-0.10078 -0.27487,-0.21989 -0.12827,-0.12827 -0.28403,-0.22905 -0.14659,-0.10995 -0.37565,-0.10995 h -0.34816 q -0.18324,0 -0.35733,-0.0183 -0.17408,-0.0183 -0.31151,-0.0825 -0.13743,-0.0733 -0.21989,-0.20156 -0.0825,-0.13744 -0.0825,-0.35733 0,-0.27486 0.10078,-0.51308 0.10995,-0.23822 0.28403,-0.4123 0.18324,-0.18324 0.42146,-0.28403 0.23822,-0.10994 0.51308,-0.10994 0.18325,0 0.23822,-0.10079 0.055,-0.10078 0.0916,-0.21989 0.0366,-0.12827 0.0916,-0.22906 0.055,-0.10078 0.23822,-0.10078 z m -0.32984,-1.31935 q 0.22906,0 0.37565,0.10994 0.15576,0.10079 0.28403,0.22906 0.12827,0.1191 0.27486,0.21989 0.1466,0.10078 0.38482,0.10078 0.13743,0 0.22905,0.10079 0.10079,0.0916 0.10079,0.22905 0,0.12827 -0.10079,0.22906 -0.10078,0.10078 -0.22905,0.10078 -0.23822,0 -0.38482,-0.10078 -0.13743,-0.10079 -0.2657,-0.2199 -0.12827,-0.12827 -0.27486,-0.22905 -0.1466,-0.10995 -0.39398,-0.10995 -0.13743,0 -0.23822,-0.0916 -0.0916,-0.10078 -0.0916,-0.23822 0,-0.13743 0.0916,-0.22905 0.10079,-0.10078 0.23822,-0.10078 z m 3.28923,3.28922 q 0.13743,0 0.22905,0.10079 0.10079,0.0916 0.10079,0.22905 0,0.23822 -0.10995,0.38481 -0.10078,0.1466 -0.22905,0.27487 -0.11911,0.12827 -0.2199,0.28403 -0.10078,0.14659 -0.10078,0.37565 0,0.13743 -0.10079,0.23821 -0.0916,0.0916 -0.22905,0.0916 -0.12827,0 -0.22905,-0.10078 -0.10079,-0.10078 -0.10079,-0.22905 0,-0.23822 0.10079,-0.38482 0.10078,-0.14659 0.21989,-0.27486 0.12827,-0.12827 0.22905,-0.27487 0.10995,-0.14659 0.10995,-0.38481 0,-0.13743 0.0916,-0.22905 0.10078,-0.10079 0.23822,-0.10079 z m -3.28923,-5.92794 q -0.13743,0 -0.23822,-0.0916 -0.0916,-0.10078 -0.0916,-0.23821 0,-0.23822 0.10079,-0.38482 0.10078,-0.14659 0.21989,-0.2657 0.12827,-0.12827 0.22905,-0.27487 0.10995,-0.14659 0.10995,-0.38481 0,-0.13743 0.0916,-0.22905 0.10079,-0.10079 0.23822,-0.10079 0.13743,0 0.22905,0.10079 0.10079,0.0916 0.10079,0.22905 0,0.23822 -0.10995,0.38481 -0.10078,0.1466 -0.22905,0.27487 -0.11911,0.11911 -0.2199,0.2657 -0.10078,0.1466 -0.10078,0.38482 0,0.13743 -0.10078,0.23821 -0.0916,0.0916 -0.22906,0.0916 z m -0.76962,1.97904 q -0.0916,0 -0.15576,-0.0641 -0.0641,-0.0641 -0.0641,-0.15576 0,-0.18324 0.12828,-0.31151 0.12827,-0.12827 0.31151,-0.12827 0.0916,0 0.15576,0.0641 0.0641,0.0641 0.0641,0.15576 0,0.18325 -0.12827,0.31152 -0.12827,0.12827 -0.31151,0.12827 z m -0.2199,0.98951 q 0,0.20157 -0.0825,0.38482 -0.0733,0.17408 -0.21074,0.31151 -0.13743,0.13743 -0.32067,0.21989 -0.17408,0.0733 -0.37565,0.0733 -0.20157,0 -0.38481,-0.0733 -0.17409,-0.0825 -0.31152,-0.21989 -0.13743,-0.13743 -0.21989,-0.31151 -0.0733,-0.18325 -0.0733,-0.38482 0,-0.12827 0.10079,-0.22905 0.10078,-0.10078 0.22905,-0.10078 0.18324,0 0.23822,0.10994 0.055,0.10079 0.0916,0.22906 0.0367,0.1191 0.0916,0.21989 0.055,0.10078 0.23822,0.10078 0.18324,0 0.23822,-0.10078 0.055,-0.10079 0.0916,-0.21989 0.0367,-0.12827 0.0916,-0.22906 0.055,-0.10994 0.23822,-0.10994 0.13743,0 0.22905,0.10078 0.10078,0.0916 0.10078,0.22905 z"
         style="font-size:18.76416588px;letter-spacing:-2.21191692px;fill:#1f4e79;fill-opacity:1;stroke-width:0.70365614px"
         id="path131"
         inkscape:connector-curvature="0" />
      <path
         d="m 231.89751,-208.82209 q 1.36517,0 2.62039,0.35732 1.26438,0.34817 2.36384,0.98952 1.09947,0.64135 1.99736,1.54841 0.90706,0.8979 1.54841,1.99736 0.64135,1.09946 0.98952,2.36384 0.35732,1.25522 0.35732,2.62039 0,1.36517 -0.35732,2.62955 -0.34817,1.25522 -0.98952,2.35468 -0.64135,1.09946 -1.54841,1.99736 -0.89789,0.90706 -1.99736,1.54841 -1.09946,0.64135 -2.36384,0.98952 -1.25522,0.35732 -2.62039,0.35732 -1.36516,0 -2.62955,-0.35732 -1.25522,-0.34817 -2.35468,-0.98952 -1.09946,-0.64135 -2.00652,-1.54841 -0.89789,-0.8979 -1.53925,-1.99736 -0.64135,-1.09946 -0.99868,-2.35468 -0.34816,-1.26438 -0.34816,-2.62955 0,-1.36517 0.34816,-2.62039 0.35733,-1.26438 0.99868,-2.36384 0.64136,-1.09946 1.53925,-1.99736 0.90706,-0.90706 2.00652,-1.54841 1.09946,-0.64135 2.35468,-0.98952 1.26439,-0.35732 2.62955,-0.35732 z m 0,18.43433 q 1.18192,0 2.27223,-0.31152 1.09946,-0.30235 2.04316,-0.86124 0.95287,-0.54974 1.73166,-1.32852 0.78795,-0.78795 1.33768,-1.73166 0.55889,-0.95286 0.86124,-2.04316 0.31152,-1.09947 0.31152,-2.28139 0,-1.44763 -0.45811,-2.78531 -0.45811,-1.33768 -1.34684,-2.48295 h -0.8246 q -0.49476,0 -0.84292,-0.14659 -0.339,-0.1466 -0.62303,-0.36649 -0.27487,-0.2199 -0.51308,-0.47644 -0.23822,-0.25654 -0.51309,-0.47643 -0.27486,-0.21989 -0.62303,-0.36649 -0.34816,-0.14659 -0.83375,-0.14659 h -0.2199 q -0.16492,0 -0.30235,0.0733 -0.13743,0.0641 -0.13743,0.25655 0,0.21989 0.15575,0.28402 0.16492,0.055 0.35733,0.055 0.0825,0 0.15576,0 0.0825,-0.009 0.14659,-0.009 0.0916,0 0.17408,0.009 0.0916,0.009 0.16492,0.0458 0.0733,0.0275 0.11911,0.10078 0.0458,0.0641 0.0458,0.17408 0,0.12827 -0.055,0.20157 -0.0458,0.0641 -0.12827,0.10079 -0.0825,0.0275 -0.18324,0.0366 -0.0916,0 -0.18325,0 0.18325,0.0367 0.31152,0.1466 0.13743,0.10078 0.2657,0.21989 0.12827,0.10995 0.2657,0.20157 0.1466,0.0825 0.35733,0.0825 h 0.32984 q 0.13743,0 0.22905,0.10078 0.10079,0.0916 0.10079,0.22906 0,0.21989 -0.1466,0.27486 -0.13743,0.055 -0.30235,0.055 h -0.21073 q -0.12827,0 -0.22906,0.10078 -0.0916,0.10079 -0.0916,0.22906 0,0.13743 -0.0733,0.20156 -0.0733,0.0641 -0.18324,0.10079 -0.10995,0.0367 -0.23822,0.0733 -0.12827,0.0275 -0.23821,0.0916 -0.10995,0.0641 -0.18325,0.18324 -0.0733,0.11911 -0.0733,0.339 0,0.23822 -0.10995,0.38482 -0.10079,0.14659 -0.22906,0.27486 -0.1191,0.11911 -0.21989,0.2657 -0.10078,0.1466 -0.10078,0.38482 v 0.18324 q 0,0.0825 -0.009,0.17408 -0.009,0.0825 -0.0458,0.15576 -0.0275,0.0641 -0.10078,0.10995 -0.0641,0.0366 -0.17408,0.0366 -0.18325,0 -0.23822,-0.10078 -0.055,-0.10078 -0.0916,-0.21989 -0.0366,-0.12827 -0.0916,-0.22906 -0.055,-0.10994 -0.23822,-0.10994 h -0.98952 q -0.2657,0 -0.46727,0.20156 -0.1924,0.19241 -0.1924,0.45811 v 0.34817 q 0,0.18324 0.0183,0.35732 0.0183,0.17408 0.0825,0.31152 0.0733,0.13743 0.20157,0.21989 0.13743,0.0825 0.35732,0.0825 0.18325,0 0.23822,-0.10078 0.055,-0.10079 0.0916,-0.2199 0.0367,-0.12827 0.0916,-0.22905 0.055,-0.10995 0.23821,-0.10995 0.18325,0 0.23822,0.10995 0.055,0.10078 0.0916,0.22905 0.0367,0.11911 0.0916,0.2199 0.055,0.10078 0.23822,0.10078 0.18324,0 0.23822,0.10995 0.0641,0.10078 0.0916,0.22905 0.0275,0.11911 0.0825,0.21989 0.0641,0.10079 0.24738,0.10079 h 1.96987 q 0.27486,0 0.51308,0.10994 0.23822,0.10079 0.4123,0.28403 0.18324,0.17408 0.28403,0.4123 0.10994,0.23822 0.10994,0.51308 0,0.26571 0.19241,0.46727 0.20157,0.19241 0.46727,0.19241 0.26571,0 0.45811,0.19241 0.20157,0.1924 0.20157,0.45811 0,0.43062 -0.18324,0.73297 -0.18325,0.29319 -0.47644,0.58638 l -1.97903,1.97903 q -0.19241,0.19241 -0.34816,0.32068 -0.15576,0.12827 -0.32984,0.20157 -0.16492,0.0733 -0.36649,0.10078 -0.20157,0.0367 -0.47644,0.0367 -0.17408,0 -0.31151,-0.0641 -0.13743,-0.055 -0.13743,-0.26571 0,-0.18324 0.10078,-0.23821 0.10079,-0.055 0.21989,-0.0916 0.12827,-0.0366 0.22906,-0.0916 0.10995,-0.055 0.10995,-0.23821 v -1.6492 q 0,-0.27486 -0.19241,-0.46727 -0.19241,-0.19241 -0.46727,-0.19241 -0.2199,0 -0.35733,-0.0825 -0.12827,-0.0825 -0.20157,-0.21989 -0.0641,-0.13743 -0.0825,-0.30235 -0.0183,-0.17408 -0.0183,-0.339 0,-0.27487 0.0183,-0.50392 0.0183,-0.22906 0.0825,-0.43063 0.0733,-0.20156 0.20157,-0.38481 0.12827,-0.18324 0.35733,-0.36648 -0.42146,0 -0.73298,-0.18325 -0.31151,-0.18324 -0.58638,-0.47643 -0.22905,-0.24738 -0.42146,-0.37565 -0.1924,-0.13744 -0.39397,-0.19241 -0.20157,-0.0641 -0.42146,-0.0733 -0.2199,-0.0183 -0.49476,-0.0183 h -0.24738 q -0.2657,0 -0.45811,-0.19241 -0.19241,-0.20156 -0.19241,-0.46727 0,-0.32067 -0.10078,-0.54973 -0.0916,-0.23822 -0.23822,-0.42146 -0.14659,-0.18324 -0.32067,-0.34816 -0.17409,-0.16492 -0.32068,-0.34817 -0.1466,-0.18324 -0.24738,-0.4123 -0.0916,-0.22905 -0.0916,-0.54973 0,-0.4123 -0.15576,-0.76962 -0.15576,-0.35733 -0.43062,-0.62303 -0.26571,-0.27487 -0.62303,-0.43062 -0.35733,-0.15576 -0.76963,-0.15576 h -0.81543 q -0.88873,1.14527 -1.356,2.48295 -0.45811,1.33768 -0.45811,2.78531 0,1.18192 0.30235,2.28139 0.31151,1.0903 0.86124,2.04316 0.5589,0.94371 1.33768,1.73166 0.78795,0.77878 1.73166,1.32852 0.95287,0.55889 2.04317,0.86124 1.09946,0.31152 2.28138,0.31152 z m 0,-17.11498 q -1.00784,0 -1.98819,0.22906 -0.9712,0.22905 -1.86909,0.68716 l 0.56806,0.39398 h 1.31019 q 0.1924,0 0.23822,0.10994 0.055,0.10079 0.0733,0.22906 0.0275,0.11911 0.0825,0.21989 0.0641,0.10078 0.26571,0.10078 0.13743,0 0.24738,-0.0916 0.1191,-0.0916 0.1191,-0.23821 0.0367,-0.16492 0.11911,-0.33901 0.0825,-0.17408 0.20157,-0.31151 0.11911,-0.14659 0.27487,-0.23822 0.16492,-0.0916 0.35732,-0.0916 h 3.29839 q -0.78795,-0.32984 -1.62171,-0.49476 -0.82459,-0.16492 -1.67668,-0.16492 z m 0.98952,1.96987 q -0.18325,0 -0.23822,0.10995 -0.055,0.10079 -0.0916,0.22906 -0.0366,0.1191 -0.0916,0.21989 -0.055,0.10078 -0.23822,0.10078 -0.10995,0 -0.21989,-0.009 -0.10079,-0.009 -0.21073,-0.009 -0.0916,0 -0.19241,0.009 -0.0916,0.009 -0.17408,0.0458 -0.0825,0.0367 -0.13743,0.10995 -0.055,0.0641 -0.055,0.18324 0,0.11911 0.055,0.19241 0.055,0.0641 0.13743,0.10078 0.0825,0.0366 0.17408,0.0458 0.10079,0.009 0.19241,0.009 0.10994,0 0.21073,-0.009 0.10994,-0.009 0.21989,-0.009 0.18324,0 0.23822,0.10995 0.055,0.10078 0.0916,0.22905 0.0367,0.11911 0.0916,0.21989 0.055,0.10079 0.23822,0.10079 0.22905,0 0.27486,-0.1466 0.055,-0.14659 0.055,-0.32067 v -0.19241 q 0,-0.25654 0.16492,-0.43978 0.16492,-0.19241 0.42146,-0.2199 h -0.25654 q -0.18325,0 -0.23822,-0.10078 -0.055,-0.10079 -0.0916,-0.21989 -0.0275,-0.12827 -0.0916,-0.22906 -0.055,-0.10995 -0.23822,-0.10995 z m 1.04449,0.65968 q 0.0183,0.009 0.0458,0.009 z"
         style="font-size:18.76416588px;letter-spacing:-2.21191692px;fill:#1f4e79;fill-opacity:1;stroke-width:0.70365614px"
         id="path133"
         inkscape:connector-curvature="0" />
      <path
         d="m 254.13032,-208.82209 q 1.36517,0 2.62039,0.35732 1.26438,0.34817 2.36384,0.98952 1.09946,0.64135 1.99736,1.54841 0.90706,0.8979 1.54841,1.99736 0.64135,1.09946 0.98952,2.36384 0.35732,1.25522 0.35732,2.62039 0,1.36517 -0.35732,2.62955 -0.34817,1.25522 -0.98952,2.35468 -0.64135,1.09946 -1.54841,1.99736 -0.8979,0.90706 -1.99736,1.54841 -1.09946,0.64135 -2.36384,0.98952 -1.25522,0.35732 -2.62039,0.35732 -1.36517,0 -2.62955,-0.35732 -1.25522,-0.34817 -2.35468,-0.98952 -1.09947,-0.64135 -2.00652,-1.54841 -0.8979,-0.8979 -1.53925,-1.99736 -0.64135,-1.09946 -0.99868,-2.35468 -0.34816,-1.26438 -0.34816,-2.62955 0,-1.36517 0.34816,-2.62039 0.35733,-1.26438 0.99868,-2.36384 0.64135,-1.09946 1.53925,-1.99736 0.90705,-0.90706 2.00652,-1.54841 1.09946,-0.64135 2.35468,-0.98952 1.26438,-0.35732 2.62955,-0.35732 z m 0,18.43433 q 1.18192,0 2.27222,-0.31152 1.09947,-0.30235 2.04317,-0.86124 0.95287,-0.54974 1.73165,-1.32852 0.78795,-0.78795 1.33768,-1.73166 0.5589,-0.95286 0.86125,-2.04316 0.31152,-1.09947 0.31152,-2.28139 0,-0.8979 -0.18325,-1.79579 -0.20157,0.21073 -0.40314,0.40314 -0.20156,0.18324 -0.36648,0.38481 -0.15576,0.20157 -0.25654,0.44895 -0.10079,0.23821 -0.10079,0.55889 -0.27486,0 -0.46727,-0.19241 -0.19241,-0.1924 -0.19241,-0.46727 0,-0.27486 -0.10994,-0.51308 -0.10079,-0.23822 -0.28403,-0.4123 -0.17408,-0.18324 -0.4123,-0.28403 -0.23822,-0.10994 -0.51308,-0.10994 -0.25654,0 -0.40314,-0.10079 -0.13743,-0.10078 -0.25654,-0.21989 -0.11911,-0.12827 -0.2657,-0.22905 -0.13744,-0.10079 -0.39398,-0.10079 0,0.27487 0.19241,0.46727 0.20157,0.18325 0.46727,0.18325 0,0.27486 -0.10995,0.52224 -0.10078,0.23822 -0.28402,0.42146 -0.17408,0.17408 -0.4123,0.27487 -0.23822,0.10078 -0.51308,0.10078 0,-0.25654 -0.0641,-0.44895 -0.055,-0.20156 -0.16492,-0.36648 -0.10995,-0.16492 -0.25654,-0.31152 -0.13743,-0.15575 -0.30235,-0.32067 l -0.055,-0.055 q 0.0916,0.20157 0.13744,0.4123 0.055,0.21073 0.055,0.43062 0,0.27487 0.10078,0.51309 0.10079,0.23821 0.27487,0.42146 0.18324,0.17408 0.42146,0.28403 0.23822,0.10078 0.51308,0.10078 -0.6047,0.49476 -0.96203,1.17276 -0.34816,0.678 -0.34816,1.46595 0,0.23822 -0.10995,0.38481 -0.10078,0.13744 -0.22905,0.26571 -0.11911,0.1191 -0.21989,0.2657 -0.10079,0.14659 -0.10079,0.39397 0,0.4123 -0.15575,0.76963 -0.15576,0.35732 -0.43063,0.63219 -0.2657,0.2657 -0.62303,0.42146 -0.35732,0.15576 -0.76962,0.15576 -0.22906,0 -0.35733,-0.0825 -0.12827,-0.0825 -0.20156,-0.2199 -0.0641,-0.13743 -0.0825,-0.31151 -0.0183,-0.17408 -0.0183,-0.34816 v -0.35733 q 0,-0.22905 -0.10994,-0.37565 -0.10079,-0.14659 -0.22906,-0.27486 -0.11911,-0.13744 -0.21989,-0.28403 -0.10079,-0.1466 -0.10079,-0.38481 v -1.3102 q 0,-0.27486 -0.10078,-0.51308 -0.10078,-0.23822 -0.28403,-0.4123 -0.17408,-0.18324 -0.4123,-0.28403 -0.23821,-0.10994 -0.51308,-0.10994 h -1.31935 q -0.27487,0 -0.52225,-0.10079 -0.23822,-0.10078 -0.42146,-0.27486 -0.17408,-0.18325 -0.27487,-0.42146 -0.10078,-0.24738 -0.10078,-0.52225 0,-0.11911 -0.009,-0.23822 0,-0.1191 0,-0.23821 0,-0.29319 0.0641,-0.45811 0.0733,-0.17408 0.27487,-0.38481 0.009,-0.0183 0.0183,-0.0183 0.009,-0.009 0.0183,-0.0183 0.13743,-0.1466 0.21073,-0.25654 0.0825,-0.11911 0.0825,-0.35733 0,-0.27486 0.1924,-0.46727 0.19241,-0.19241 0.46728,-0.19241 h 0.65967 q 0.22906,0 0.37565,-0.10078 0.15576,-0.10078 0.28403,-0.21989 0.12827,-0.12827 0.27487,-0.22906 0.14659,-0.10994 0.37565,-0.10994 h 0.65967 q 0.17409,0 0.22906,0.10994 0.0641,0.10079 0.10078,0.22906 0.0366,0.11911 0.0916,0.21989 0.055,0.10078 0.23822,0.10078 H 254.79 q 0.36648,0 0.70549,0.12827 0.34816,0.12827 0.61386,0.37565 v -0.50392 q 0,-0.22905 -0.0825,-0.35732 -0.0825,-0.12827 -0.21989,-0.19241 -0.13743,-0.0733 -0.31151,-0.0916 -0.17409,-0.0183 -0.34817,-0.0183 H 254.79 q -0.18325,0 -0.23822,-0.10079 -0.055,-0.10078 -0.0916,-0.21989 -0.0367,-0.12827 -0.10079,-0.22906 -0.055,-0.10994 -0.22905,-0.10994 -0.18324,0 -0.23822,0.10994 -0.055,0.10079 -0.0916,0.22906 -0.0366,0.11911 -0.10078,0.21989 -0.055,0.10079 -0.22906,0.10079 -0.23822,0 -0.38481,-0.10079 -0.1466,-0.10078 -0.28403,-0.21989 -0.12827,-0.12827 -0.27486,-0.22906 -0.1466,-0.10994 -0.37565,-0.10994 -0.22906,0 -0.37565,0.10994 -0.1466,0.10079 -0.27487,0.22906 -0.12827,0.11911 -0.28403,0.21989 -0.14659,0.10079 -0.37565,0.10079 -0.27486,0 -0.46727,-0.19241 -0.1924,-0.19241 -0.1924,-0.46727 0,-0.17408 0.10078,-0.22906 0.10078,-0.0641 0.21989,-0.10078 0.12827,-0.0367 0.22906,-0.0916 0.10994,-0.055 0.10994,-0.23822 0,-0.17408 -0.10994,-0.22905 -0.10079,-0.0641 -0.22906,-0.10079 -0.11911,-0.0367 -0.21989,-0.0916 -0.10078,-0.055 -0.10078,-0.23822 0,-0.27486 0.1924,-0.46727 0.19241,-0.19241 0.46727,-0.19241 0.13744,0 0.22906,0.10079 0.10078,0.0916 0.10078,0.22905 0,0.13744 0.0916,0.23822 0.10079,0.0916 0.23822,0.0916 0.21989,0 0.36649,0.10995 0.14659,0.10078 0.27486,0.22905 0.13744,0.11911 0.28403,0.2199 0.1466,0.10078 0.38481,0.10078 0.23822,0 0.38482,-0.10078 0.14659,-0.10079 0.27486,-0.2199 0.12827,-0.12827 0.27487,-0.22905 0.14659,-0.10995 0.38481,-0.10995 0.27486,0 0.46727,-0.1924 0.19241,-0.19241 0.19241,-0.46728 0,-0.2657 -0.20157,-0.4581 -0.19241,-0.20157 -0.45811,-0.20157 -0.13743,0 -0.23822,0.10078 -0.0916,0.0916 -0.0916,0.22906 0,0.18324 -0.10995,0.23821 -0.10078,0.055 -0.22905,0.0916 -0.11911,0.0367 -0.21989,0.10079 -0.10079,0.055 -0.10079,0.22905 0,0.13744 -0.10078,0.23822 -0.0916,0.0916 -0.22906,0.0916 -0.2657,0 -0.46727,-0.1924 -0.1924,-0.20157 -0.1924,-0.46728 0,-0.2657 0.1924,-0.4581 0.20157,-0.20157 0.46727,-0.20157 0.23822,0 0.38482,-0.10079 0.14659,-0.10078 0.2657,-0.21989 0.12827,-0.12827 0.27487,-0.22905 0.14659,-0.10079 0.39397,-0.10079 0.24738,0 0.39397,0.10079 0.1466,0.10078 0.27487,0.22905 0.12827,0.11911 0.2657,0.21989 0.1466,0.10079 0.38481,0.10079 0.25655,0 0.45811,-0.0641 0.21073,-0.0641 0.38482,-0.17408 0.17408,-0.11911 0.32984,-0.2657 0.15575,-0.15576 0.32067,-0.32984 -0.65968,-0.23822 -1.37433,-0.35733 -0.71465,-0.11911 -1.43846,-0.11911 -1.18192,0 -2.28139,0.31152 -1.0903,0.30235 -2.04316,0.86124 -0.94371,0.54974 -1.73166,1.33768 -0.77878,0.77879 -1.33768,1.73166 -0.54973,0.9437 -0.86124,2.04317 -0.30236,1.0903 -0.30236,2.27222 0,1.18192 0.30236,2.28139 0.31151,1.0903 0.86124,2.04316 0.5589,0.94371 1.33768,1.73166 0.78795,0.77878 1.73166,1.32852 0.95286,0.55889 2.04316,0.86124 1.09947,0.31152 2.28139,0.31152 z m 3.61906,-5.26826 q 0.13744,0 0.22906,0.10078 0.10078,0.0916 0.10078,0.22905 v 0.65968 q 0,0.13744 -0.10078,0.23822 -0.0916,0.0916 -0.22906,0.0916 -0.12827,0 -0.22905,-0.10078 -0.10078,-0.10079 -0.10078,-0.22906 v -0.65968 q 0,-0.12827 0.10078,-0.22905 0.10078,-0.10078 0.22905,-0.10078 z"
         style="font-size:18.76416588px;letter-spacing:-2.21191692px;fill:#1f4e79;fill-opacity:1;stroke-width:0.70365614px"
         id="path135"
         inkscape:connector-curvature="0" />
      <path
         d="m 267.88421,-209.27353 -1.4636,2.33614 9.62601,5.76998 -9.62601,5.82627 1.54804,2.2517 10.80816,-6.72695 v -2.73019 z"
         style="font-style:normal;font-variant:normal;font-weight:500;font-stretch:normal;font-size:28.14624596px;font-family:'Fira Code';-inkscape-font-specification:'Fira Code, Medium';font-variant-ligatures:no-contextual;font-variant-caps:normal;font-variant-numeric:normal;font-feature-settings:normal;text-align:end;letter-spacing:-0.6825465px;writing-mode:lr-tb;text-anchor:end;fill:#1f4e79;fill-opacity:1;stroke-width:0.70365614px"
         id="path137"
         inkscape:connector-curvature="0" />
    </g>
    <g
       aria-label="&lt;♿&gt;"
       style="font-style:normal;font-weight:normal;font-size:28.14624596px;line-height:125%;font-family:sans-serif;letter-spacing:0px;word-spacing:0px;fill:#1f4e79;fill-opacity:1;stroke:none;stroke-width:0.70365614px;stroke-linecap:butt;stroke-linejoin:miter;stroke-opacity:1"
       id="text899-6-2-8"
       transform="translate(2.6211101,39.940811)">
      <path
         d="m 194.42051,-89.228066 -10.8926,6.726953 v 2.730186 l 10.80816,6.726953 1.54804,-2.279846 -9.65416,-5.798127 9.65416,-5.826273 z"
         style="font-style:normal;font-variant:normal;font-weight:500;font-stretch:normal;font-size:28.14624596px;font-family:'Fira Code';-inkscape-font-specification:'Fira Code, Medium';font-variant-ligatures:no-contextual;font-variant-caps:normal;font-variant-numeric:normal;font-feature-settings:normal;text-align:end;letter-spacing:-0.6825465px;writing-mode:lr-tb;text-anchor:end;fill:#1f4e79;fill-opacity:1;stroke-width:0.70365614px"
         id="path157"
         inkscape:connector-curvature="0" />
      <path
         d="m 200.96055,-97.99837 h 31.60956 v 31.609554 h -31.60956 z m 1.97903,29.630521 h 27.65149 v -27.651488 h -27.65149 z m 9.86768,-13.825744 q 1.22316,0 2.29513,0.467271 1.08572,0.467272 1.89657,1.278126 0.81086,0.79711 1.27813,1.88283 0.46727,1.071976 0.46727,2.295128 0,1.223153 -0.46727,2.308872 -0.46727,1.085719 -1.27813,1.88283 -0.79711,0.810854 -1.88283,1.278125 -1.08571,0.467272 -2.30887,0.467272 -1.22315,0 -2.30887,-0.467272 -1.07198,-0.467271 -1.88283,-1.278125 -0.79711,-0.810854 -1.26438,-1.88283 -0.46727,-1.085719 -0.46727,-2.308872 0,-1.223152 0.46727,-2.295128 0.46727,-1.08572 1.26438,-1.88283 0.81085,-0.810854 1.88283,-1.278126 1.08572,-0.467271 2.30887,-0.467271 z m 0,9.881421 q 0.8246,0 1.53925,-0.302352 0.72839,-0.316096 1.26438,-0.852084 0.53599,-0.535988 0.83834,-1.250639 0.3161,-0.728394 0.3161,-1.552991 0,-0.79711 -0.3161,-1.511761 -0.31609,-0.728394 -0.86582,-1.264382 -0.53599,-0.535988 -1.26439,-0.852084 -0.71465,-0.316095 -1.51176,-0.316095 -0.81085,0 -1.53925,0.316095 -0.71465,0.302352 -1.25063,0.838341 -0.53599,0.535988 -0.85209,1.264382 -0.30235,0.71465 -0.30235,1.525504 0,0.810854 0.3161,1.525505 0.31609,0.714651 0.85208,1.264382 0.53599,0.535988 1.25064,0.852084 0.71465,0.316095 1.5255,0.316095 z m -0.97577,-10.870938 q -0.42604,0 -0.71465,-0.274865 -0.27487,-0.288609 -0.27487,-0.714651 0,-0.247379 0.0962,-0.439785 l 1.97903,-3.944323 q 0.12369,-0.261122 0.35732,-0.398555 0.23364,-0.151176 0.52225,-0.151176 h 4.96132 q 0.4123,0 0.75589,0.164919 0.35732,0.151176 0.61844,0.426042 0.27487,0.261122 0.42605,0.632191 0.15117,0.357326 0.15117,0.755881 0,0.467271 -0.20615,0.87957 l -2.63871,5.277421 q -0.70091,-0.742137 -1.56673,-1.250639 -0.85209,-0.522245 -1.8416,-0.75588 l 2.07523,-4.150472 h -2.11646 l -1.70417,3.394591 q -0.12369,0.247379 -0.37107,0.398555 -0.23363,0.151176 -0.5085,0.151176 z m 10.85719,3.958066 q 0.39856,0 0.68717,0.288609 0.30235,0.288609 0.30235,0.687164 0,0.109947 -0.13743,0.563475 -0.12369,0.453528 -0.32984,1.085719 -0.20615,0.618448 -0.45353,1.360586 -0.24738,0.728394 -0.46727,1.388071 -0.21989,0.645935 -0.39856,1.154436 -0.17866,0.508502 -0.23363,0.700908 -0.10995,0.302352 -0.37107,0.481015 -0.26112,0.192406 -0.57722,0.192406 -0.39855,0 -0.68716,-0.302353 -0.28861,-0.302352 -0.28861,-0.700907 0,-0.137433 0.0962,-0.494758 0.0962,-0.357326 0.24738,-0.838341 0.15118,-0.481015 0.34358,-1.017003 0.19241,-0.549731 0.35733,-1.044489 0.17866,-0.508502 0.31609,-0.907057 0.15118,-0.412299 0.2199,-0.632191 h -1.66294 q -0.13743,-1.017003 -0.60471,-1.96529 z m -1.97903,-9.881421 q -0.4123,0 -0.76962,-0.151176 -0.35733,-0.16492 -0.63219,-0.426042 -0.26113,-0.274866 -0.4123,-0.632191 -0.15118,-0.357326 -0.15118,-0.769624 0,-0.412299 0.15118,-0.769624 0.15117,-0.357325 0.4123,-0.618448 0.27486,-0.274865 0.63219,-0.426042 0.35732,-0.164919 0.76962,-0.164919 0.4123,0 0.76963,0.164919 0.35732,0.151177 0.61844,0.426042 0.27487,0.261123 0.42604,0.618448 0.16492,0.357325 0.16492,0.769624 0,0.412298 -0.16492,0.783367 -0.15117,0.357325 -0.42604,0.632191 -0.26112,0.261123 -0.61844,0.412299 -0.35733,0.151176 -0.76963,0.151176 z"
         style="font-style:normal;font-variant:normal;font-weight:500;font-stretch:normal;font-size:28.14624596px;font-family:'Fira Code';-inkscape-font-specification:'Fira Code, Medium';font-variant-ligatures:no-contextual;font-variant-caps:normal;font-variant-numeric:normal;font-feature-settings:normal;text-align:end;letter-spacing:-0.6825465px;writing-mode:lr-tb;text-anchor:end;fill:#1f4e79;fill-opacity:1;stroke-width:0.70365614px"
         id="path159"
         inkscape:connector-curvature="0" />
      <path
         d="m 239.14929,-89.228066 -1.4636,2.336139 9.62601,5.76998 -9.62601,5.826273 1.54804,2.2517 10.80816,-6.726953 v -2.730186 z"
         style="font-style:normal;font-variant:normal;font-weight:500;font-stretch:normal;font-size:28.14624596px;font-family:'Fira Code';-inkscape-font-specification:'Fira Code, Medium';font-variant-ligatures:no-contextual;font-variant-caps:normal;font-variant-numeric:normal;font-feature-settings:normal;text-align:end;letter-spacing:-0.6825465px;writing-mode:lr-tb;text-anchor:end;fill:#1f4e79;fill-opacity:1;stroke-width:0.70365614px"
         id="path161"
         inkscape:connector-curvature="0" />
    </g>
    <g
       transform="translate(2.6211101,-0.09820889)"
       id="text899-6-2-7-0"
       style="font-style:normal;font-weight:normal;font-size:28.14624596px;line-height:125%;font-family:sans-serif;letter-spacing:0px;word-spacing:0px;fill:#1f4e79;fill-opacity:1;stroke:none;stroke-width:0.70365614px;stroke-linecap:butt;stroke-linejoin:miter;stroke-opacity:1"
       aria-label="&lt;🤟&gt;">
      <path
         inkscape:connector-curvature="0"
         id="path194"
         style="font-style:normal;font-variant:normal;font-weight:500;font-stretch:normal;font-size:28.14624596px;font-family:'Fira Code';-inkscape-font-specification:'Fira Code, Medium';font-variant-ligatures:no-contextual;font-variant-caps:normal;font-variant-numeric:normal;font-feature-settings:normal;text-align:end;letter-spacing:-0.6825465px;writing-mode:lr-tb;text-anchor:end;fill:#1f4e79;fill-opacity:1;stroke-width:0.70365614px"
         d="m 194.4205,-8.7935784 -10.89259,6.7269528 v 2.73018583 l 10.80815,6.72695277 1.54805,-2.2798459 -9.65416,-5.79812668 9.65416,-5.82627292 z" />
      <path
         inkscape:connector-curvature="0"
         id="path196"
         style="font-style:normal;font-variant:normal;font-weight:500;font-stretch:normal;font-size:28.14624596px;font-family:'Fira Code';-inkscape-font-specification:'Fira Code, Medium';font-variant-ligatures:no-contextual;font-variant-caps:normal;font-variant-numeric:normal;font-feature-settings:normal;text-align:end;letter-spacing:-0.6825465px;writing-mode:lr-tb;text-anchor:end;fill:#1f4e79;fill-opacity:1;stroke-width:0.70365614px"
         d="m 221.69916,-4.7276553 q 0.8246,0 1.53925,0.3160956 0.72839,0.3023522 1.26438,0.8383403 0.53599,0.5359881 0.83834,1.2643821 0.3161,0.7146508 0.3161,1.53924786 0,0.78336719 -0.30235,1.52550454 -0.28861,0.7283941 -0.85209,1.2643821 l -7.5588,7.3251705 q -1.37433,1.3330983 -3.02353,2.0202623 -1.64919,0.700908 -3.57325,0.700908 -1.9378,0 -3.65571,-0.742137 -1.70417,-0.728394 -2.9823,-2.0065199 -1.26438,-1.2781254 -2.00652,-2.9822926 -0.74213,-1.7041673 -0.74213,-3.6419703 V -11.640527 q 0,-0.714651 0.27486,-1.333099 0.27487,-0.632191 0.74214,-1.099463 0.46727,-0.467271 1.08572,-0.742137 0.63219,-0.274866 1.34684,-0.274866 0.71465,0 1.3331,0.274866 0.63219,0.274866 1.09946,0.742137 0.48102,0.467272 0.75588,1.099463 0.27487,0.618448 0.27487,1.333099 v 1.9790327 h 1.97903 q 0.12369,0 0.24738,0.027487 0.12369,0.013743 0.24738,0.013743 0.12369,0 0.24738,-0.013743 0.12369,-0.027487 0.24738,-0.027487 h 0.97577 v -2.9685497 q 0,-0.810853 0.3161,-1.525504 0.31609,-0.728394 0.85208,-1.264382 0.53599,-0.535988 1.25064,-0.838341 0.72839,-0.316095 1.53925,-0.316095 0.81085,0 1.5255,0.316095 0.7284,0.302353 1.26438,0.838341 0.53599,0.535988 0.83834,1.264382 0.3161,0.714651 0.3161,1.525504 v 8.4383768 q 0.45353,-0.2611224 0.94829,-0.3985552 0.5085,-0.1374329 1.03074,-0.1374329 z M 210.34721,10.101348 q 1.5255,0 2.83112,-0.5634743 1.30561,-0.5634747 2.39133,-1.6079643 l 7.53132,-7.29768386 q 0.27486,-0.27486568 0.42604,-0.64593435 0.15118,-0.37106868 0.15118,-0.75588063 0,-0.41229856 -0.16492,-0.76962396 -0.15118,-0.3573253 -0.42605,-0.6184477 -0.26112,-0.2748657 -0.61844,-0.4260419 -0.35733,-0.1649194 -0.76963,-0.1649194 -0.43978,0 -0.75588,0.1511762 -0.30235,0.1511761 -0.63219,0.4260418 l -2.83112,2.39133142 h -3.18844 q -0.9208,0 -1.73165,0.35732538 -0.79711,0.34358211 -1.40182,0.9482866 -0.6047,0.6047045 -0.96203,1.4155583 -0.34358,0.7971105 -0.34358,1.7179105 0,0.2061493 -0.15117,0.3573254 -0.13744,0.1374328 -0.34359,0.1374328 -0.20615,0 -0.35732,-0.1374328 -0.13744,-0.1511761 -0.13744,-0.3573254 0,-1.1269493 0.42605,-2.1164658 0.42604,-0.9895164 1.15443,-1.71791048 0.74214,-0.74213735 1.73166,-1.16817915 0.98951,-0.42604181 2.11646,-0.42604181 h 3.46331 V -12.630044 q 0,-0.412298 -0.16492,-0.769624 -0.15118,-0.357325 -0.42604,-0.618447 -0.26112,-0.274866 -0.61845,-0.426042 -0.35732,-0.151176 -0.76962,-0.151176 -0.54973,0 -0.98952,0.261122 v 11.1320603 q 0,0.5085015 -0.20615,0.9482866 -0.1924,0.4397851 -0.53599,0.7696239 -0.32984,0.3298388 -0.78336,0.52224478 -0.43979,0.19240598 -0.93455,0.19240598 -0.59096,0 -1.1132,-0.26112236 -0.5085,-0.2611224 -0.86583,-0.7421374 -0.35733,0.4672717 -0.87957,0.7421374 -0.5085,0.26112236 -1.09946,0.26112236 -0.5085,0 -0.96203,-0.19240598 -0.45353,-0.19240598 -0.79711,-0.52224478 -0.32984,-0.3435821 -0.52225,-0.7971105 -0.1924,-0.4535284 -0.1924,-0.9620299 v -8.3971464 q 0,-0.302352 -0.12369,-0.563475 -0.10995,-0.274866 -0.3161,-0.481015 -0.20615,-0.206149 -0.48101,-0.316095 -0.26113,-0.12369 -0.56348,-0.12369 -0.30235,0 -0.57722,0.12369 -0.26112,0.109946 -0.46727,0.316095 -0.1924,0.206149 -0.31609,0.481015 -0.10995,0.261123 -0.10995,0.563475 V 2.6937182 q 0,1.5255045 0.57722,2.8860896 0.59096,1.3468419 1.59422,2.3501016 1.00326,1.0032598 2.3501,1.5804777 1.36059,0.5909609 2.88609,0.5909609 z M 206.8839,-7.6824614 v 4.4390808 q 0,0.3160955 0.10995,0.5909612 0.12369,0.2611224 0.31609,0.4672717 0.20615,0.192406 0.46728,0.3160955 0.27486,0.1099463 0.59096,0.1099463 0.30235,0 0.57721,-0.1099463 0.27487,-0.1236895 0.46728,-0.3160955 0.20615,-0.2061493 0.31609,-0.4672717 0.12369,-0.2748657 0.12369,-0.5909612 v -4.4390808 z m 3.95807,0 v 4.4390808 q 0,0.3160955 0.10994,0.5909612 0.12369,0.2611224 0.3161,0.4672717 0.20615,0.192406 0.46727,0.3160955 0.27487,0.1099463 0.59096,0.1099463 0.30235,0 0.57722,-0.1099463 0.27487,-0.1236895 0.46727,-0.3298388 0.19241,-0.2061493 0.30235,-0.4672717 0.12369,-0.2748656 0.12369,-0.5772179 v -4.4390808 z" />
      <path
         inkscape:connector-curvature="0"
         id="path198"
         style="font-style:normal;font-variant:normal;font-weight:500;font-stretch:normal;font-size:28.14624596px;font-family:'Fira Code';-inkscape-font-specification:'Fira Code, Medium';font-variant-ligatures:no-contextual;font-variant-caps:normal;font-variant-numeric:normal;font-feature-settings:normal;text-align:end;letter-spacing:-0.6825465px;writing-mode:lr-tb;text-anchor:end;fill:#1f4e79;fill-opacity:1;stroke-width:0.70365614px"
         d="m 232.22267,-8.7935784 -1.46361,2.3361384 9.62602,5.76998042 -9.62602,5.82627288 1.54805,2.2516997 10.80816,-6.72695277 V -2.0666256 Z" />
    </g>
  </g>
</svg>
