<?xml version="1.0" encoding="UTF-8" standalone="no"?>
<svg
   xmlns:dc="http://purl.org/dc/elements/1.1/"
   xmlns:cc="http://creativecommons.org/ns#"
   xmlns:rdf="http://www.w3.org/1999/02/22-rdf-syntax-ns#"
   xmlns:svg="http://www.w3.org/2000/svg"
   xmlns="http://www.w3.org/2000/svg"
   xmlns:sodipodi="http://sodipodi.sourceforge.net/DTD/sodipodi-0.dtd"
   xmlns:inkscape="http://www.inkscape.org/namespaces/inkscape"
   xml:space="preserve"
   enable-background="new 0 0 258.429 51.107"
   viewBox="0 0 258.429 51.107"
   height="51.107px"
   width="258.429px"
   y="0px"
   x="0px"
   sodipodi:docname="rainbow_on_black_130x.svg"
   inkscape:version="1.0beta2 (368ca91, 2020-02-26)"
   id="svg8"
   version="1.1"><metadata
   id="metadata40"><rdf:RDF><cc:Work
       rdf:about=""><dc:format>image/svg+xml</dc:format><dc:type
         rdf:resource="http://purl.org/dc/dcmitype/StillImage" /><dc:title></dc:title></cc:Work></rdf:RDF></metadata><defs
   id="defs38">
	
	
	
</defs>
<sodipodi:namedview
   inkscape:document-rotation="0"
   pagecolor="#ffffff"
   bordercolor="#666666"
   borderopacity="1"
   objecttolerance="10"
   gridtolerance="10"
   guidetolerance="10"
   showgrid="false"
   inkscape:zoom="1.8417903"
   inkscape:cx="284.0619"
   inkscape:cy="18.12758"
   inkscape:window-maximized="0"
   inkscape:pageopacity="0"
   inkscape:pageshadow="2"
   inkscape:window-width="2201"
   inkscape:window-height="1233"
   inkscape:window-x="854"
   inkscape:window-y="206"
   inkscape:current-layer="svg8"
   id="namedview31">
	</sodipodi:namedview>

<g
   id="g126"><path
     inkscape:connector-curvature="0"
     d="M 0.4465845,0.35139334 H 491.23706 c 0.0533,0 0.0971,0.0409498 0.0971,0.0930677 V 94.38887 c 0,0.05025 -0.0419,0.09493 -0.0971,0.09493 H 0.4465845 c -0.053307,0 -0.0951912,-0.04281 -0.0951912,-0.09493 V 0.44446104 c 0,-0.0502565 0.043788,-0.0930677 0.0951912,-0.0930677 z"
     stroke-linejoin="round"
     stroke-linecap="square"
     stroke-width="0.355787"
     stroke="#000000"
     id="rect1087" /><g
     id="g90"
     transform="translate(1.9908893,-1.226231)"><g
       transform="matrix(1.903808,0,0,1.903808,-0.15681069,-0.15681069)"
       id="text899">
		<path
   id="path4527"
   fill="#ffffff"
   d="m 176.023,16.898 -11.611,7.17 v 2.91 l 11.521,7.17 1.65,-2.43 -10.29,-6.18 10.29,-6.21 z"
   inkscape:connector-curvature="0" />
		<path
   id="path4529"
   fill="#ffffff"
   d="m 189.983,13.808 c -5.04,0 -9.18,3.78 -9.18,10.74 0,7.02 3.96,10.77 9.239,10.77 3.031,0 5.101,-1.109 6.48,-2.46 l -1.68,-2.13 c -1.141,0.9 -2.46,1.771 -4.68,1.771 -3.271,0 -5.73,-2.221 -5.73,-7.95 0,-5.85 2.609,-8.01 5.7,-8.01 1.62,0 3.03,0.51 4.29,1.529 l 1.8,-2.159 c -1.68,-1.351 -3.419,-2.101 -6.239,-2.101 z"
   inkscape:connector-curvature="0" />
		<path
   id="path4531"
   fill="#ffffff"
   d="m 206.944,18.188 h -2.94 v 6.061 h -5.91 v 2.67 h 5.91 v 6.06 h 2.94 v -6.06 h 5.97 v -2.67 h -5.97 z"
   inkscape:connector-curvature="0" />
		<path
   id="path4533"
   fill="#ffffff"
   d="m 224.205,18.188 h -2.939 v 6.061 h -5.91 v 2.67 h 5.91 v 6.06 h 2.939 v -6.06 h 5.971 v -2.67 h -5.971 z"
   inkscape:connector-curvature="0" />
		<path
   id="path4535"
   fill="#ffffff"
   d="m 235.015,16.898 -1.56,2.49 10.26,6.15 -10.26,6.21 1.649,2.399 11.521,-7.17 v -2.91 z"
   inkscape:connector-curvature="0" />
	</g><g
       id="g917"
       transform="matrix(1.903808,0,0,1.903808,-111.56669,60.648891)">
		<path
   id="path901"
   fill="#a7489a"
   d="m 80.982,-10.57 h 2.49 v -2.431 h -2.19 l 0.66,-4.71 h -2.82 l -0.63,4.71 h -3.81 l 0.66,-4.71 h -2.82 l -0.63,4.71 h -2.55 v 2.431 h 2.22 l -0.87,6.359 h -2.46 v 2.4 h 2.16 l -0.63,4.8 h 2.82 l 0.63,-4.8 h 3.81 l -0.63,4.8 h 2.79 l 0.63,-4.8 h 2.55 v -2.4 h -2.22 z m -7.47,6.359 0.84,-6.359 h 3.84 l -0.87,6.359 z"
   inkscape:connector-curvature="0" />
		<path
   id="path903"
   fill="#734da0"
   d="m 93.09,-20.621 c -1.32,0 -2.19,0.931 -2.19,2.131 0,1.199 0.87,2.1 2.19,2.1 1.29,0 2.19,-0.9 2.19,-2.1 0,-1.2 -0.9,-2.131 -2.19,-2.131 z m 2.31,7.771 h -7.92 v 2.46 h 4.56 V 0.53 H 87.33 V 2.99 H 99.72 V 0.53 H 95.4 Z"
   inkscape:connector-curvature="0" />
		<path
   id="path905"
   fill="#43b8ca"
   d="m 103.998,2.989 h 3.36 v -11.37 c 0.84,-1.2 2.16,-2.31 3.72,-2.31 1.92,0 2.25,1.05 2.25,3.81 v 9.87 h 3.36 V -8.56 c 0,-2.97 -1.47,-4.71 -4.41,-4.71 -1.92,0 -3.81,0.87 -5.13,2.49 l -0.24,-2.07 h -2.91 z"
   inkscape:connector-curvature="0" />
		<path
   id="path907"
   fill="#1294ae"
   d="m 128.887,0.619 c -2.46,0 -4.26,-1.5 -4.26,-5.46 0,-3.96 1.74,-5.729 4.26,-5.729 1.35,0 2.64,0.479 3.87,1.319 l 1.56,-2.1 c -1.53,-1.26 -3.33,-1.92 -5.49,-1.92 -4.89,0 -7.77,3.6 -7.77,8.43 0,4.95 2.82,8.22 7.71,8.22 2.1,0 4.17,-0.779 5.55,-1.949 l -1.53,-2.16 c -1.17,0.78 -2.431,1.349 -3.9,1.349 z"
   inkscape:connector-curvature="0" />
		<path
   id="path909"
   fill="#6a9b40"
   d="m 144.64,-19.211 h -8.13 v 2.46 h 4.77 v 15.12 c 0,3.12 1.86,5.01 5.04,5.01 1.77,0 3.15,-0.39 4.08,-0.899 l -0.84,-2.34 c -0.81,0.33 -1.62,0.54 -2.52,0.54 -1.41,0 -2.4,-0.54 -2.4,-2.011 z"
   inkscape:connector-curvature="0" />
		<path
   id="path911"
   fill="#e5dc1d"
   d="m 158.278,-12.85 h -3.36 v 11.49 c 0,2.97 1.47,4.739 4.56,4.739 1.86,0 3.81,-0.84 4.98,-2.43 l 0.21,2.04 h 2.91 v -15.84 h -3.36 v 11.46 c -0.78,1.229 -2.22,2.22 -3.69,2.22 -1.5,0 -2.25,-0.75 -2.25,-2.609 z"
   inkscape:connector-curvature="0" />
		<path
   id="path913"
   fill="#e79525"
   d="m 181.457,-19.6 v 8.07 c -1.02,-1.141 -2.34,-1.74 -3.99,-1.74 -3.9,0 -6.27,3.51 -6.27,8.34 0,4.98 1.89,8.31 5.97,8.31 1.86,0 3.39,-0.84 4.44,-2.34 l 0.24,1.95 h 2.97 v -22.2 z m -3.121,8.91 c 1.29,0 2.34,0.66 3.12,1.77 v 7.471 c -0.78,1.26 -1.89,2.279 -3.39,2.279 -2.1,0 -3.3,-1.71 -3.3,-5.76 0.001,-3.96 1.32,-5.76 3.57,-5.76 z"
   inkscape:connector-curvature="0" />
		<path
   id="path915"
   fill="#d83e3e"
   d="m 192.185,-3.85 h 10.5 c 0.06,-0.39 0.09,-0.96 0.09,-1.5 0,-4.92 -2.641,-7.92 -6.84,-7.92 -4.5,0 -7.23,3.6 -7.23,8.34 0,4.95 2.7,8.31 7.65,8.31 2.22,0 4.289,-0.75 5.76,-1.949 l -1.439,-2.04 c -1.351,0.899 -2.641,1.38 -4.171,1.38 -2.281,-0.001 -4.111,-1.381 -4.32,-4.621 z m 3.779,-6.93 c 2.25,0 3.48,1.649 3.541,4.649 h -7.351 c 0.211,-3.179 1.711,-4.649 3.81,-4.649 z"
   inkscape:connector-curvature="0" />
	</g><g
       transform="matrix(2.1576367,0,0,2.1576367,-102.06178,91.108034)"
       id="text830">
	<path
   d="m 63.359,-8.092 -0.373,2.355 -0.416,-2.031 h -0.43 l -0.508,2.031 -0.343,-2.031 h -0.445 l -0.402,2.031 -0.377,-2.031 H 59.62 l -0.416,2.031 -0.402,-2.031 h -0.445 l -0.411,2.031 -0.406,-2.031 h -0.43 l -0.45,2.031 -0.372,-2.355 H 55.96 l 0.488,2.539 h 0.484 l 0.382,-1.909 0.329,1.909 h 0.585 l 0.343,-1.909 0.338,1.909 h 0.561 l 0.358,-1.909 0.324,1.909 h 0.585 l 0.315,-1.909 0.295,1.909 h 0.566 l 0.43,-1.909 0.353,1.909 h 0.503 l 0.46,-2.539 z"
   fill="#a7489a"
   inkscape:connector-curvature="0"
   id="path832" />
	<path
   d="m 65.219,-5.901 c 0,0.227 0.165,0.397 0.392,0.397 0.227,0 0.392,-0.17 0.392,-0.397 0,-0.217 -0.165,-0.387 -0.392,-0.387 -0.228,0 -0.392,0.169 -0.392,0.387 z"
   fill="#a7489a"
   inkscape:connector-curvature="0"
   id="path834" />
	<path
   d="m 68.515,-9.238 c -0.145,0 -0.242,0.102 -0.242,0.237 0,0.145 0.097,0.246 0.242,0.246 0.155,0 0.256,-0.102 0.256,-0.246 0,-0.135 -0.101,-0.237 -0.256,-0.237 z m 0.285,1.146 h -1.078 v 0.261 H 68.5 v 2.016 h -0.803 v 0.261 h 1.838 V -5.815 H 68.8 Z"
   fill="#734da0"
   inkscape:connector-curvature="0"
   id="path836" />
	<path
   d="m 70.491,-5.553 h 0.3 v -1.871 c 0.131,-0.203 0.421,-0.464 0.759,-0.464 0.445,0 0.493,0.241 0.493,0.822 v 1.513 h 0.3 V -7.39 c 0,-0.47 -0.203,-0.75 -0.72,-0.75 -0.286,0 -0.653,0.155 -0.851,0.42 l -0.029,-0.372 h -0.252 z"
   fill="#734da0"
   inkscape:connector-curvature="0"
   id="path838" />
	<path
   d="m 74.483,-5.78 c -0.474,0 -0.813,-0.32 -0.813,-1.035 0,-0.701 0.339,-1.055 0.808,-1.055 0.232,0 0.45,0.078 0.682,0.233 l 0.16,-0.213 c -0.237,-0.189 -0.517,-0.29 -0.827,-0.29 -0.74,0 -1.156,0.576 -1.156,1.325 0,0.798 0.416,1.311 1.156,1.311 0.271,0 0.614,-0.112 0.832,-0.3 L 75.17,-6.002 c -0.188,0.13 -0.416,0.222 -0.687,0.222 z"
   fill="#734da0"
   inkscape:connector-curvature="0"
   id="path840" />
	<path
   d="m 77.18,-9.122 h -1.088 v 0.265 h 0.788 v 2.728 c 0,0.396 0.314,0.624 0.716,0.624 0.242,0 0.44,-0.059 0.566,-0.121 l -0.087,-0.232 c -0.15,0.058 -0.29,0.091 -0.445,0.091 -0.261,0 -0.449,-0.097 -0.449,-0.362 v -2.993 z"
   fill="#734da0"
   inkscape:connector-curvature="0"
   id="path842" />
	<path
   d="M 79.489,-8.092 H 79.19 v 1.853 c 0,0.464 0.246,0.735 0.735,0.735 0.295,0 0.614,-0.146 0.827,-0.407 l 0.034,0.358 h 0.251 v -2.539 h -0.3 v 1.891 c -0.15,0.233 -0.45,0.445 -0.769,0.445 -0.334,0 -0.479,-0.159 -0.479,-0.518 z"
   fill="#734da0"
   inkscape:connector-curvature="0"
   id="path844" />
	<path
   d="m 83.637,-9.16 v 1.344 c -0.179,-0.213 -0.401,-0.324 -0.716,-0.324 -0.624,0 -0.991,0.566 -0.991,1.325 0,0.778 0.305,1.311 0.982,1.311 0.261,0 0.522,-0.112 0.725,-0.397 l 0.039,0.348 h 0.261 v -3.568 z m -0.638,1.281 c 0.261,0 0.488,0.135 0.638,0.363 v 1.315 c -0.15,0.223 -0.368,0.436 -0.691,0.436 -0.449,0 -0.677,-0.383 -0.677,-1.055 -0.001,-0.701 0.26,-1.059 0.73,-1.059 z"
   fill="#734da0"
   inkscape:connector-curvature="0"
   id="path846" />
	<path
   d="m 85.211,-6.704 h 1.726 c 0,-0.048 0.005,-0.116 0.005,-0.203 0,-0.759 -0.368,-1.233 -0.986,-1.233 -0.639,0 -1.069,0.546 -1.069,1.32 0,0.788 0.416,1.316 1.117,1.316 0.28,0 0.595,-0.107 0.827,-0.286 l -0.155,-0.222 c -0.232,0.154 -0.42,0.232 -0.686,0.232 -0.411,0 -0.769,-0.285 -0.779,-0.924 z m 0.755,-1.156 c 0.402,0 0.677,0.29 0.691,0.89 h -1.441 c 0.034,-0.6 0.339,-0.89 0.75,-0.89 z"
   fill="#734da0"
   inkscape:connector-curvature="0"
   id="path848" />
	<path
   d="m 88.982,-5.78 c -0.474,0 -0.813,-0.32 -0.813,-1.035 0,-0.701 0.339,-1.055 0.807,-1.055 0.232,0 0.45,0.078 0.682,0.233 L 89.817,-7.85 C 89.58,-8.039 89.3,-8.14 88.99,-8.14 c -0.74,0 -1.156,0.576 -1.156,1.325 0,0.798 0.416,1.311 1.156,1.311 0.271,0 0.614,-0.112 0.832,-0.3 l -0.155,-0.198 c -0.187,0.13 -0.415,0.222 -0.685,0.222 z"
   fill="#43b8ca"
   inkscape:connector-curvature="0"
   id="path850" />
	<path
   d="m 91.847,-8.14 c -0.329,0 -0.595,0.165 -0.774,0.42 L 91.04,-8.092 h -0.252 v 3.549 l 0.3,-0.039 v -1.223 c 0.179,0.198 0.406,0.3 0.696,0.3 0.672,0 0.977,-0.551 0.977,-1.321 0,-0.787 -0.237,-1.314 -0.914,-1.314 z m -0.058,0.261 c 0.45,0 0.643,0.377 0.643,1.05 0,0.711 -0.232,1.05 -0.696,1.05 -0.266,0 -0.503,-0.135 -0.648,-0.344 v -1.315 c 0.15,-0.214 0.392,-0.441 0.701,-0.441 z"
   fill="#43b8ca"
   inkscape:connector-curvature="0"
   id="path852" />
	<path
   d="m 94.747,-8.14 c -0.329,0 -0.595,0.165 -0.774,0.42 l -0.034,-0.372 h -0.252 v 3.549 l 0.3,-0.039 v -1.223 c 0.179,0.198 0.406,0.3 0.696,0.3 0.672,0 0.977,-0.551 0.977,-1.321 0,-0.787 -0.236,-1.314 -0.913,-1.314 z m -0.058,0.261 c 0.45,0 0.643,0.377 0.643,1.05 0,0.711 -0.232,1.05 -0.696,1.05 -0.266,0 -0.503,-0.135 -0.648,-0.344 v -1.315 c 0.149,-0.214 0.391,-0.441 0.701,-0.441 z"
   fill="#43b8ca"
   inkscape:connector-curvature="0"
   id="path854" />
	<path
   d="m 97.115,-5.901 c 0,0.227 0.164,0.397 0.392,0.397 0.227,0 0.392,-0.17 0.392,-0.397 0,-0.217 -0.165,-0.387 -0.392,-0.387 -0.228,0 -0.392,0.169 -0.392,0.387 z"
   fill="#43b8ca"
   inkscape:connector-curvature="0"
   id="path856" />
	<path
   d="m 100.415,-8.14 c -0.696,0 -1.054,0.546 -1.054,1.32 0,0.783 0.353,1.316 1.05,1.316 0.691,0 1.05,-0.561 1.05,-1.321 -0.001,-0.798 -0.349,-1.315 -1.046,-1.315 z m 0,0.266 c 0.474,0 0.716,0.338 0.716,1.049 0,0.711 -0.242,1.055 -0.72,1.055 -0.479,0 -0.72,-0.344 -0.72,-1.05 -0.001,-0.716 0.25,-1.054 0.724,-1.054 z"
   fill="#1294ae"
   inkscape:connector-curvature="0"
   id="path858" />
	<path
   d="m 104.036,-8.14 c -0.474,0 -0.726,0.246 -0.924,0.657 l -0.058,-0.609 h -0.643 v 0.252 h 0.416 v 2.036 h -0.416 v 0.251 h 1.238 v -0.251 h -0.522 v -1.18 c 0.179,-0.6 0.464,-0.87 0.87,-0.87 h 0.063 l -0.005,0.063 v 0.498 h 0.29 l 0.034,-0.798 c -0.116,-0.03 -0.213,-0.049 -0.343,-0.049 z"
   fill="#1294ae"
   inkscape:connector-curvature="0"
   id="path860" />
	<path
   d="m 107.298,-8.319 c -0.295,0.111 -0.489,0.174 -1.146,0.179 -0.586,0 -0.977,0.372 -0.977,0.87 0,0.324 0.136,0.546 0.416,0.692 -0.184,0.121 -0.276,0.28 -0.276,0.43 0,0.252 0.189,0.474 0.595,0.474 h 0.469 c 0.348,0 0.634,0.131 0.634,0.396 0,0.309 -0.29,0.459 -0.871,0.459 -0.595,0 -0.74,-0.154 -0.74,-0.474 h -0.276 c 0,0.523 0.266,0.75 1.025,0.75 0.735,0 1.17,-0.261 1.17,-0.754 0,-0.382 -0.392,-0.672 -0.88,-0.672 h -0.469 c -0.266,0 -0.358,-0.102 -0.358,-0.233 0,-0.106 0.068,-0.213 0.145,-0.28 0.116,0.043 0.218,0.058 0.406,0.058 0.585,0 0.919,-0.363 0.919,-0.865 0,-0.281 -0.135,-0.503 -0.426,-0.639 0.276,0 0.517,0 0.745,-0.063 z m -1.156,0.416 c 0.411,0 0.614,0.222 0.614,0.633 0,0.396 -0.208,0.639 -0.6,0.639 -0.469,0 -0.672,-0.271 -0.672,-0.639 0,-0.363 0.199,-0.633 0.658,-0.633 z"
   fill="#1294ae"
   inkscape:connector-curvature="0"
   id="path862" />
</g></g></g>
</svg>
