<?xml version="1.0" encoding="UTF-8" standalone="no"?>
<svg
   xmlns:dc="http://purl.org/dc/elements/1.1/"
   xmlns:cc="http://creativecommons.org/ns#"
   xmlns:rdf="http://www.w3.org/1999/02/22-rdf-syntax-ns#"
   xmlns:svg="http://www.w3.org/2000/svg"
   xmlns="http://www.w3.org/2000/svg"
   xmlns:sodipodi="http://sodipodi.sourceforge.net/DTD/sodipodi-0.dtd"
   xmlns:inkscape="http://www.inkscape.org/namespaces/inkscape"
   sodipodi:docname="with_rainbow_include_for_dark.svg"
   inkscape:version="1.0 (4035a4f, 2020-05-01)"
   id="svg807"
   version="1.1"
   viewBox="0 0 195.40628 91.466691"
   height="91.46669mm"
   width="195.40628mm">
  <defs
     id="defs801">
    <linearGradient
       id="SVGID_1_-5"
       gradientUnits="userSpaceOnUse"
       x1="249.7"
       y1="-6379.4976"
       x2="249.7"
       y2="-6846.1475"
       gradientTransform="matrix(1,0,0,-1,0,-6379.4976)">
      <stop
         offset="0"
         style="stop-color:#A7489A"
         id="stop57-9" />
      <stop
         offset="0.1411"
         style="stop-color:#734DA0"
         id="stop59-4" />
      <stop
         offset="0.2871"
         style="stop-color:#43B8CA"
         id="stop61-3" />
      <stop
         offset="0.3861"
         style="stop-color:#1294AE"
         id="stop63-9" />
      <stop
         offset="0.521"
         style="stop-color:#6A9B40"
         id="stop65-0" />
      <stop
         offset="0.6061"
         style="stop-color:#E5DC1D"
         id="stop67-5" />
      <stop
         offset="0.7833"
         style="stop-color:#E79525"
         id="stop69-6" />
      <stop
         offset="0.9541"
         style="stop-color:#D83E3E"
         id="stop71-3" />
    </linearGradient>
    <clipPath
       clipPathUnits="userSpaceOnUse"
       id="clipPath26">
      <path
         d="M 0,86.5 H 131.5 V 0 H 0 Z"
         id="path24"
         inkscape:connector-curvature="0" />
    </clipPath>
  </defs>
  <sodipodi:namedview
     inkscape:window-maximized="0"
     inkscape:window-y="26"
     inkscape:window-x="0"
     inkscape:window-height="874"
     inkscape:window-width="1440"
     inkscape:guide-bbox="true"
     showguides="true"
     showgrid="false"
     inkscape:document-rotation="0"
     inkscape:current-layer="layer1"
     inkscape:document-units="mm"
     inkscape:cy="232.75786"
     inkscape:cx="327.8558"
     inkscape:zoom="0.84391316"
     inkscape:pageshadow="2"
     inkscape:pageopacity="0.0"
     borderopacity="1.0"
     bordercolor="#666666"
     pagecolor="#ffffff"
     id="base">
    <sodipodi:guide
       id="guide1093"
       orientation="0,-1"
       position="109.2548,18.33221" />
  </sodipodi:namedview>
  <metadata
     id="metadata804">
    <rdf:RDF>
      <cc:Work
         rdf:about="">
        <dc:format>image/svg+xml</dc:format>
        <dc:type
           rdf:resource="http://purl.org/dc/dcmitype/StillImage" />
        <dc:title></dc:title>
      </cc:Work>
    </rdf:RDF>
  </metadata>
  <g
     transform="translate(100.29731,-19.496177)"
     id="layer1"
     inkscape:groupmode="layer"
     inkscape:label="Layer 1">
    <g
       transform="translate(-5.4486574,2.1646183)"
       id="g1270">
      <rect
         style="fill:#000000;fill-rule:evenodd;stroke-width:0.268292"
         id="rect1044"
         width="195.40628"
         height="91.46669"
         x="-94.848648"
         y="17.331558" />
      <g
         id="g1091"
         transform="translate(-2.3537934,-0.37656596)">
        <g
           inkscape:export-ydpi="699.86102"
           inkscape:export-xdpi="699.86102"
           transform="matrix(0.13566471,0,0,0.13566471,13.49338,43.881764)"
           id="g592">
          <g
             transform="matrix(2.1605298,0,0,2.1606223,3.0940287,286.24398)"
             id="text899">
            <path
               id="path4527"
               fill="#ffffff"
               d="m 176.023,16.898 -11.611,7.17 v 2.91 l 11.521,7.17 1.65,-2.43 -10.29,-6.18 10.29,-6.21 z"
               inkscape:connector-curvature="0" />
            <path
               id="path4529"
               fill="#ffffff"
               d="m 189.983,13.808 c -5.04,0 -9.18,3.78 -9.18,10.74 0,7.02 3.96,10.77 9.239,10.77 3.031,0 5.101,-1.109 6.48,-2.46 l -1.68,-2.13 c -1.141,0.9 -2.46,1.771 -4.68,1.771 -3.271,0 -5.73,-2.221 -5.73,-7.95 0,-5.85 2.609,-8.01 5.7,-8.01 1.62,0 3.03,0.51 4.29,1.529 l 1.8,-2.159 c -1.68,-1.351 -3.419,-2.101 -6.239,-2.101 z"
               inkscape:connector-curvature="0" />
            <path
               id="path4531"
               fill="#ffffff"
               d="m 206.944,18.188 h -2.94 v 6.061 h -5.91 v 2.67 h 5.91 v 6.06 h 2.94 v -6.06 h 5.97 v -2.67 h -5.97 z"
               inkscape:connector-curvature="0" />
            <path
               id="path4533"
               fill="#ffffff"
               d="m 224.205,18.188 h -2.939 v 6.061 h -5.91 v 2.67 h 5.91 v 6.06 h 2.939 v -6.06 h 5.971 v -2.67 h -5.971 z"
               inkscape:connector-curvature="0" />
            <path
               id="path4535"
               fill="#ffffff"
               d="m 235.015,16.898 -1.56,2.49 10.26,6.15 -10.26,6.21 1.649,2.399 11.521,-7.17 v -2.91 z"
               inkscape:connector-curvature="0" />
          </g>
          <g
             id="g917"
             transform="matrix(2.1605298,0,0,2.1606223,-123.33909,355.25208)">
            <path
               id="path901"
               fill="#a7489a"
               d="m 80.982,-10.57 h 2.49 v -2.431 h -2.19 l 0.66,-4.71 h -2.82 l -0.63,4.71 h -3.81 l 0.66,-4.71 h -2.82 l -0.63,4.71 h -2.55 v 2.431 h 2.22 l -0.87,6.359 h -2.46 v 2.4 h 2.16 l -0.63,4.8 h 2.82 l 0.63,-4.8 h 3.81 l -0.63,4.8 h 2.79 l 0.63,-4.8 h 2.55 v -2.4 h -2.22 z m -7.47,6.359 0.84,-6.359 h 3.84 l -0.87,6.359 z"
               inkscape:connector-curvature="0" />
            <path
               id="path903"
               fill="#734da0"
               d="m 93.09,-20.621 c -1.32,0 -2.19,0.931 -2.19,2.131 0,1.199 0.87,2.1 2.19,2.1 1.29,0 2.19,-0.9 2.19,-2.1 0,-1.2 -0.9,-2.131 -2.19,-2.131 z m 2.31,7.771 h -7.92 v 2.46 h 4.56 V 0.53 H 87.33 V 2.99 H 99.72 V 0.53 H 95.4 Z"
               inkscape:connector-curvature="0" />
            <path
               id="path905"
               fill="#43b8ca"
               d="m 103.998,2.989 h 3.36 v -11.37 c 0.84,-1.2 2.16,-2.31 3.72,-2.31 1.92,0 2.25,1.05 2.25,3.81 v 9.87 h 3.36 V -8.56 c 0,-2.97 -1.47,-4.71 -4.41,-4.71 -1.92,0 -3.81,0.87 -5.13,2.49 l -0.24,-2.07 h -2.91 z"
               inkscape:connector-curvature="0" />
            <path
               id="path907"
               fill="#1294ae"
               d="m 128.887,0.619 c -2.46,0 -4.26,-1.5 -4.26,-5.46 0,-3.96 1.74,-5.729 4.26,-5.729 1.35,0 2.64,0.479 3.87,1.319 l 1.56,-2.1 c -1.53,-1.26 -3.33,-1.92 -5.49,-1.92 -4.89,0 -7.77,3.6 -7.77,8.43 0,4.95 2.82,8.22 7.71,8.22 2.1,0 4.17,-0.779 5.55,-1.949 l -1.53,-2.16 c -1.17,0.78 -2.431,1.349 -3.9,1.349 z"
               inkscape:connector-curvature="0" />
            <path
               id="path909"
               fill="#6a9b40"
               d="m 144.64,-19.211 h -8.13 v 2.46 h 4.77 v 15.12 c 0,3.12 1.86,5.01 5.04,5.01 1.77,0 3.15,-0.39 4.08,-0.899 l -0.84,-2.34 c -0.81,0.33 -1.62,0.54 -2.52,0.54 -1.41,0 -2.4,-0.54 -2.4,-2.011 z"
               inkscape:connector-curvature="0" />
            <path
               id="path911"
               fill="#e5dc1d"
               d="m 158.278,-12.85 h -3.36 v 11.49 c 0,2.97 1.47,4.739 4.56,4.739 1.86,0 3.81,-0.84 4.98,-2.43 l 0.21,2.04 h 2.91 v -15.84 h -3.36 v 11.46 c -0.78,1.229 -2.22,2.22 -3.69,2.22 -1.5,0 -2.25,-0.75 -2.25,-2.609 z"
               inkscape:connector-curvature="0" />
            <path
               id="path913"
               fill="#e79525"
               d="m 181.457,-19.6 v 8.07 c -1.02,-1.141 -2.34,-1.74 -3.99,-1.74 -3.9,0 -6.27,3.51 -6.27,8.34 0,4.98 1.89,8.31 5.97,8.31 1.86,0 3.39,-0.84 4.44,-2.34 l 0.24,1.95 h 2.97 v -22.2 z m -3.121,8.91 c 1.29,0 2.34,0.66 3.12,1.77 v 7.471 c -0.78,1.26 -1.89,2.279 -3.39,2.279 -2.1,0 -3.3,-1.71 -3.3,-5.76 0.001,-3.96 1.32,-5.76 3.57,-5.76 z"
               inkscape:connector-curvature="0" />
            <path
               id="path915"
               fill="#d83e3e"
               d="m 192.185,-3.85 h 10.5 c 0.06,-0.39 0.09,-0.96 0.09,-1.5 0,-4.92 -2.641,-7.92 -6.84,-7.92 -4.5,0 -7.23,3.6 -7.23,8.34 0,4.95 2.7,8.31 7.65,8.31 2.22,0 4.289,-0.75 5.76,-1.949 l -1.439,-2.04 c -1.351,0.899 -2.641,1.38 -4.171,1.38 -2.281,-0.001 -4.111,-1.381 -4.32,-4.621 z m 3.779,-6.93 c 2.25,0 3.48,1.649 3.541,4.649 h -7.351 c 0.211,-3.179 1.711,-4.649 3.81,-4.649 z"
               inkscape:connector-curvature="0" />
          </g>
        </g>
        <g
           inkscape:export-ydpi="699.86102"
           inkscape:export-xdpi="699.86102"
           transform="matrix(0.09422972,0,0,0.09091989,28.8777,38.468033)"
           id="g78">
          <g
             id="g76">
            <linearGradient
               id="linearGradient1335"
               gradientUnits="userSpaceOnUse"
               x1="249.7"
               y1="-6379.4976"
               x2="249.7"
               y2="-6846.1475"
               gradientTransform="matrix(1,0,0,-1,0,-6379.4976)">
              <stop
                 offset="0"
                 style="stop-color:#A7489A"
                 id="stop1319" />
              <stop
                 offset="0.1411"
                 style="stop-color:#734DA0"
                 id="stop1321" />
              <stop
                 offset="0.2871"
                 style="stop-color:#43B8CA"
                 id="stop1323" />
              <stop
                 offset="0.3861"
                 style="stop-color:#1294AE"
                 id="stop1325" />
              <stop
                 offset="0.521"
                 style="stop-color:#6A9B40"
                 id="stop1327" />
              <stop
                 offset="0.6061"
                 style="stop-color:#E5DC1D"
                 id="stop1329" />
              <stop
                 offset="0.7833"
                 style="stop-color:#E79525"
                 id="stop1331" />
              <stop
                 offset="0.9541"
                 style="stop-color:#D83E3E"
                 id="stop1333" />
            </linearGradient>
            <path
               style="fill:url(#SVGID_1_-5)"
               inkscape:connector-curvature="0"
               class="st0"
               d="m 486.6,184.3 13.1,-74.5 H 421.1 L 465.7,0 H 386.3 L 341.7,109.7 H 261.2 L 305.8,0 H 226.5 L 181.9,109.7 H 73.1 L 60,184.3 h 91.7 l -40,98.5 H 12.8 L -0.3,357.3 H 81.4 L 37,466.7 h 79.3 l 44.4,-109.3 h 80.5 l -44.4,109.3 h 79.3 l 44.4,-109.3 h 105.8 l 13.1,-74.5 h -88.5 l 40,-98.5 z M 271.5,282.7 H 191 l 40,-98.5 h 80.5 z"
               id="path74" />
          </g>
        </g>
      </g>
      <rect
         style="fill:#ffffff;stroke-width:0.138672"
         id="rect1046"
         width="13.280439"
         height="14.402729"
         x="-42.534416"
         y="53.057816" />
      <rect
         y="53.338387"
         x="-15.692966"
         height="14.402729"
         width="13.280439"
         id="rect1046-5"
         style="fill:#ffffff;stroke-width:0.138672" />
      <g
         id="g1042"
         transform="translate(-86.082135,83.913333)">
        <g
           id="g12"
           transform="matrix(0.84783732,0,0,-0.84783732,10.431324,-45.216846)">
          <path
             d="M 0,0 2.182,-4.42 7.059,-5.129 3.53,-8.57 4.363,-13.428 0,-11.134 l -4.363,-2.294 0.833,4.858 -3.529,3.441 4.877,0.709 z"
             style="fill:#ffcc05;fill-opacity:1;fill-rule:nonzero;stroke:none"
             id="path14"
             inkscape:connector-curvature="0" />
        </g>
        <g
           id="g16"
           transform="matrix(0.84783732,0,0,-0.84783732,14.667036,8.7173088)">
          <path
             d="M 0,0 V 9.604 H 7.196 V 7.47 H 2.466 V 6.013 h 4.47 V 3.879 H 2.466 V 2.134 h 4.73 V 0 Z"
             style="fill:#778ca5;fill-opacity:1;fill-rule:nonzero;stroke:none"
             id="path18"
             inkscape:connector-curvature="0" />
        </g>
        <g
           transform="matrix(0.84783732,0,0,-0.84783732,-8.4645943,19.536322)"
           id="g20">
          <g
             id="g22"
             clip-path="url(#clipPath26)">
            <g
               id="g28"
               transform="translate(46.6018,12.6019)">
              <path
                 d="m 0,0 c -2.653,0 -4.456,1.99 -4.456,4.312 v 5.45 H -1.99 V 4.297 C -1.99,3 -1.283,2.192 0,2.192 c 1.283,0 2.005,0.779 2.005,2.105 V 9.762 H 4.456 V 4.312 C 4.456,1.99 2.653,0 0,0"
                 style="fill:#778ca5;fill-opacity:1;fill-rule:nonzero;stroke:none"
                 id="path30"
                 inkscape:connector-curvature="0" />
            </g>
            <g
               id="g32"
               transform="translate(64.1169,20.3747)">
              <path
                 d="M 0,0 H -2.495 V -2.423 H 0 c 0.62,0 1.168,0.534 1.168,1.24 C 1.168,-0.476 0.663,0 0,0 m 1.586,-7.614 -2.365,3.273 H -2.495 V -7.614 H -4.961 V 1.99 h 5.379 c 2.004,0 3.216,-1.37 3.216,-3.115 0,-1.197 -0.577,-2.293 -1.616,-2.841 L 4.7,-7.614 Z"
                 style="fill:#778ca5;fill-opacity:1;fill-rule:nonzero;stroke:none"
                 id="path34"
                 inkscape:connector-curvature="0" />
            </g>
            <g
               id="g36"
               transform="translate(80.2622,20.3169)">
              <path
                 d="m 0,0 c -1.586,0 -2.465,-1.284 -2.465,-2.754 0,-1.471 0.85,-2.769 2.465,-2.769 1.615,0 2.452,1.298 2.452,2.769 C 2.452,-1.284 1.586,0 0,0 m 0,-7.715 c -2.769,0 -4.931,2.192 -4.931,4.961 0,2.768 2.162,4.946 4.931,4.946 2.769,0 4.918,-2.178 4.918,-4.946 0,-2.769 -2.149,-4.961 -4.918,-4.961"
                 style="fill:#778ca5;fill-opacity:1;fill-rule:nonzero;stroke:none"
                 id="path38"
                 inkscape:connector-curvature="0" />
            </g>
            <g
               id="g40"
               transform="translate(97.5758,20.3886)">
              <path
                 d="M 0,0 H -2.408 V -2.552 H 0 c 0.62,0 1.168,0.505 1.168,1.298 C 1.168,-0.461 0.663,0 0,0 m 0.346,-4.542 h -2.754 v -3.086 h -2.466 v 9.604 h 5.22 c 1.932,0 3.288,-1.442 3.288,-3.23 0,-1.788 -1.356,-3.288 -3.288,-3.288"
                 style="fill:#778ca5;fill-opacity:1;fill-rule:nonzero;stroke:none"
                 id="path42"
                 inkscape:connector-curvature="0" />
            </g>
            <g
               id="g44"
               transform="translate(108.4726,12.7607)">
              <path
                 d="M 0,0 V 9.604 H 7.196 V 7.47 H 2.466 V 6.013 h 4.47 V 3.879 H 2.466 V 2.134 h 4.73 V 0 Z"
                 style="fill:#778ca5;fill-opacity:1;fill-rule:nonzero;stroke:none"
                 id="path46"
                 inkscape:connector-curvature="0" />
            </g>
            <g
               id="g48"
               transform="translate(42.3412,42.523)">
              <path
                 d="m 0,0 c -3.045,0 -5.513,2.468 -5.513,5.513 0,3.045 2.468,5.513 5.513,5.513 1.526,0 2.907,-0.621 3.905,-1.623 l 6.872,6.845 c -5.946,5.946 -15.567,5.946 -21.512,0 -5.946,-5.946 -5.946,-15.566 0,-21.512 5.945,-5.946 15.566,-5.946 21.512,0 L 3.898,1.615 C 2.9,0.617 1.522,0 0,0"
                 style="fill:#2476ed;fill-opacity:1;fill-rule:nonzero;stroke:none"
                 id="path50"
                 inkscape:connector-curvature="0" />
            </g>
            <g
               id="g52"
               transform="translate(75.2559,49.3738)">
              <path
                 d="M 0,0 H -3.272 V -3.32 H -6.128 V 0 h -3.297 v 2.784 h 3.297 v 3.345 h 2.856 V 2.784 H 0 Z M -3.701,13.093 H -17.533 V -15.81 h 13.956 v 5.491 c 6.442,0 11.685,5.285 11.685,11.685 0,6.524 -5.326,11.727 -11.809,11.727"
                 style="fill:#2e86ef;fill-opacity:1;fill-rule:nonzero;stroke:none"
                 id="path54"
                 inkscape:connector-curvature="0" />
            </g>
            <g
               id="g56"
               transform="translate(106.7993,49.3738)">
              <path
                 d="M 0,0 H -3.272 V -3.32 H -6.128 V 0 h -3.297 v 2.784 h 3.297 v 3.345 h 2.856 V 2.784 H 0 Z M -3.701,13.093 H -17.533 V -15.81 h 13.956 v 5.491 c 6.442,0 11.685,5.285 11.685,11.685 0,6.524 -5.326,11.727 -11.809,11.727"
                 style="fill:#4097ff;fill-opacity:1;fill-rule:nonzero;stroke:none"
                 id="path58"
                 inkscape:connector-curvature="0" />
            </g>
            <g
               id="g60"
               transform="translate(16.2872,57.8981)">
              <path
                 d="M 0,0 1.377,-2.79 4.456,-3.237 2.228,-5.409 2.754,-8.475 0,-7.027 l -2.754,-1.448 0.526,3.066 -2.228,2.172 3.079,0.447 z"
                 style="fill:#ffcc05;fill-opacity:1;fill-rule:nonzero;stroke:none"
                 id="path62"
                 inkscape:connector-curvature="0" />
            </g>
            <g
               id="g64"
               transform="translate(38.2872,77.8981)">
              <path
                 d="M 0,0 1.377,-2.79 4.456,-3.237 2.228,-5.409 2.754,-8.475 0,-7.027 l -2.754,-1.448 0.526,3.066 -2.228,2.172 3.079,0.447 z"
                 style="fill:#ffcc05;fill-opacity:1;fill-rule:nonzero;stroke:none"
                 id="path66"
                 inkscape:connector-curvature="0" />
            </g>
          </g>
        </g>
      </g>
    </g>
  </g>
</svg>
