<?xml version="1.0" encoding="UTF-8" standalone="no"?> <!-- Created with Vectornator for iOS (http://vectornator.io/) --><!DOCTYPE svg PUBLIC "-//W3C//DTD SVG 1.1//EN" "http://www.w3.org/Graphics/SVG/1.1/DTD/svg11.dtd">
<svg height="100%" style="fill-rule:evenodd;clip-rule:evenodd;stroke-linecap:round;stroke-linejoin:round;" xmlns:xlink="http://www.w3.org/1999/xlink" xmlns="http://www.w3.org/2000/svg" xml:space="preserve" width="100%" xmlns:vectornator="http://vectornator.io" version="1.1" viewBox="0 0 4000 4000">
<metadata>
<vectornator:setting key="DynamicGuides" value="1"/>
<vectornator:setting key="Units" value="Pixels"/>
<vectornator:setting key="RulersVisible" value="1"/>
<vectornator:setting key="SnapToGuides" value="1"/>
<vectornator:setting key="GridSpacing" value="36"/>
</metadata>
<defs>
<linearGradient y1="-3" id="LinearGradient" x1="1975.82" y2="3997" x2="1975.82" gradientUnits="userSpaceOnUse" gradientTransform="matrix(1 0 0 1 0 3)">
<stop stop-color="#a7489a" offset="0.0503018"/>
<stop stop-color="#734da0" offset="0.207243"/>
<stop stop-color="#43b8ca" offset="0.321932"/>
<stop stop-color="#1294ae" offset="0.45674"/>
<stop stop-color="#6a9b40" offset="0.555332"/>
<stop stop-color="#e5dc1d" offset="0.639839"/>
<stop stop-color="#e79525" offset="0.810865"/>
<stop stop-color="#d83e3e" offset="1"/>
</linearGradient>
</defs>
<g id="g917" vectornator:layerName="g917">
<path d="M3198.48+1379.9L3791.93+1379.9L3791.93+910.145L3269.98+910.145L3427.28+0L2755.18+0L2605.02+910.145L1696.97+910.145L1854.27+0L1182.16+0L1032.01+910.145L424.257+910.145L424.257+1379.9L953.362+1379.9L746.01+2608.7L159.705+2608.7L159.705+3072.46L674.509+3072.46L524.358+4000L1196.46+4000L1346.61+3072.46L2254.67+3072.46L2104.52+4000L2769.48+4000L2919.63+3072.46L3527.38+3072.46L3527.38+2608.7L2998.28+2608.7L3198.48+1379.9ZM1433.3+2622.4L1633.5+1393.6L2548.7+1393.6L2341.35+2622.4L1433.3+2622.4Z" opacity="1" fill="url(#LinearGradient)"/>
</g>
</svg>
