<?xml version="1.0" encoding="UTF-8" standalone="no"?>
<!-- Generator: Adobe Illustrator 15.1.0, SVG Export Plug-In . SVG Version: 6.00 Build 0)  -->

<svg
   xmlns:dc="http://purl.org/dc/elements/1.1/"
   xmlns:cc="http://creativecommons.org/ns#"
   xmlns:rdf="http://www.w3.org/1999/02/22-rdf-syntax-ns#"
   xmlns:svg="http://www.w3.org/2000/svg"
   xmlns="http://www.w3.org/2000/svg"
   xmlns:sodipodi="http://sodipodi.sourceforge.net/DTD/sodipodi-0.dtd"
   xmlns:inkscape="http://www.inkscape.org/namespaces/inkscape"
   version="1.1"
   id="svg8"
   inkscape:version="0.92.4 (5da689c313, 2019-01-14)"
   sodipodi:docname="rainbow_on_transparent_white_cpp.svg"
   x="0px"
   y="0px"
   width="258.429px"
   height="51.107px"
   viewBox="0 0 258.429 51.107"
   enable-background="new 0 0 258.429 51.107"
   xml:space="preserve"
   inkscape:export-filename="I:\include\assets\stickers\rainbow_on_transparent_white_cpp.png"
   inkscape:export-xdpi="1619"
   inkscape:export-ydpi="1619"><metadata
   id="metadata4020"><rdf:RDF><cc:Work
       rdf:about=""><dc:format>image/svg+xml</dc:format><dc:type
         rdf:resource="http://purl.org/dc/dcmitype/StillImage" /><dc:title></dc:title></cc:Work></rdf:RDF></metadata><defs
   id="defs4018">
	
	
	
</defs>
<sodipodi:namedview
   id="namedview31"
   inkscape:current-layer="svg8"
   inkscape:window-y="-8"
   inkscape:window-x="-8"
   inkscape:window-height="1137"
   inkscape:window-width="1600"
   inkscape:pageshadow="2"
   inkscape:pageopacity="0"
   inkscape:window-maximized="1"
   inkscape:cy="57.106846"
   inkscape:cx="106.58017"
   inkscape:zoom="5.2093695"
   showgrid="false"
   guidetolerance="10"
   gridtolerance="10"
   objecttolerance="10"
   borderopacity="1"
   bordercolor="#666666"
   pagecolor="#ffffff">
	</sodipodi:namedview>
<g
   id="text899">
		<path
   style="fill:#ffffff"
   inkscape:connector-curvature="0"
   d="m 176.023,16.898 -11.611,7.17 v 2.91 l 11.521,7.17 1.65,-2.43 -10.29,-6.18 10.29,-6.21 z"
   id="path4527" />
		<path
   style="fill:#ffffff"
   inkscape:connector-curvature="0"
   d="m 189.983,13.808 c -5.04,0 -9.18,3.78 -9.18,10.74 0,7.02 3.96,10.77 9.239,10.77 3.031,0 5.101,-1.109 6.48,-2.46 l -1.68,-2.13 c -1.141,0.9 -2.46,1.771 -4.68,1.771 -3.271,0 -5.73,-2.221 -5.73,-7.95 0,-5.85 2.609,-8.01 5.7,-8.01 1.62,0 3.03,0.51 4.29,1.529 l 1.8,-2.159 c -1.68,-1.351 -3.419,-2.101 -6.239,-2.101 z"
   id="path4529" />
		<path
   style="fill:#ffffff"
   inkscape:connector-curvature="0"
   d="m 206.944,18.188 h -2.94 v 6.061 h -5.91 v 2.67 h 5.91 v 6.06 h 2.94 v -6.06 h 5.97 v -2.67 h -5.97 z"
   id="path4531" />
		<path
   style="fill:#ffffff"
   inkscape:connector-curvature="0"
   d="m 224.205,18.188 h -2.939 v 6.061 h -5.91 v 2.67 h 5.91 v 6.06 h 2.939 v -6.06 h 5.971 v -2.67 h -5.971 z"
   id="path4533" />
		<path
   style="fill:#ffffff"
   inkscape:connector-curvature="0"
   d="m 235.015,16.898 -1.56,2.49 10.26,6.15 -10.26,6.21 1.649,2.399 11.521,-7.17 v -2.91 z"
   id="path4535" />
	</g><g
   transform="translate(-58.519493,31.938988)"
   id="g917">
		<path
   style="fill:#a7489a"
   inkscape:connector-curvature="0"
   d="m 80.982,-10.57 h 2.49 v -2.431 h -2.19 l 0.66,-4.71 h -2.82 l -0.63,4.71 h -3.81 l 0.66,-4.71 h -2.82 l -0.63,4.71 h -2.55 v 2.431 h 2.22 l -0.87,6.359 h -2.46 v 2.4 h 2.16 l -0.63,4.8 h 2.82 l 0.63,-4.8 h 3.81 l -0.63,4.8 h 2.79 l 0.63,-4.8 h 2.55 v -2.4 h -2.22 z m -7.47,6.359 0.84,-6.359 h 3.84 l -0.87,6.359 z"
   id="path901" />
		<path
   style="fill:#734da0"
   inkscape:connector-curvature="0"
   d="m 93.09,-20.621 c -1.32,0 -2.19,0.931 -2.19,2.131 0,1.199 0.87,2.1 2.19,2.1 1.29,0 2.19,-0.9 2.19,-2.1 0,-1.2 -0.9,-2.131 -2.19,-2.131 z m 2.31,7.771 h -7.92 v 2.46 h 4.56 V 0.53 H 87.33 V 2.99 H 99.72 V 0.53 H 95.4 Z"
   id="path903" />
		<path
   style="fill:#43b8ca"
   inkscape:connector-curvature="0"
   d="m 103.998,2.989 h 3.36 v -11.37 c 0.84,-1.2 2.16,-2.31 3.72,-2.31 1.92,0 2.25,1.05 2.25,3.81 v 9.87 h 3.36 V -8.56 c 0,-2.97 -1.47,-4.71 -4.41,-4.71 -1.92,0 -3.81,0.87 -5.13,2.49 l -0.24,-2.07 h -2.91 z"
   id="path905" />
		<path
   style="fill:#1294ae"
   inkscape:connector-curvature="0"
   d="m 128.887,0.619 c -2.46,0 -4.26,-1.5 -4.26,-5.46 0,-3.96 1.74,-5.729 4.26,-5.729 1.35,0 2.64,0.479 3.87,1.319 l 1.56,-2.1 c -1.53,-1.26 -3.33,-1.92 -5.49,-1.92 -4.89,0 -7.77,3.6 -7.77,8.43 0,4.95 2.82,8.22 7.71,8.22 2.1,0 4.17,-0.779 5.55,-1.949 l -1.53,-2.16 c -1.17,0.78 -2.431,1.349 -3.9,1.349 z"
   id="path907" />
		<path
   style="fill:#6a9b40"
   inkscape:connector-curvature="0"
   d="m 144.64,-19.211 h -8.13 v 2.46 h 4.77 v 15.12 c 0,3.12 1.86,5.01 5.04,5.01 1.77,0 3.15,-0.39 4.08,-0.899 l -0.84,-2.34 c -0.81,0.33 -1.62,0.54 -2.52,0.54 -1.41,0 -2.4,-0.54 -2.4,-2.011 z"
   id="path909" />
		<path
   style="fill:#e5dc1d"
   inkscape:connector-curvature="0"
   d="m 158.278,-12.85 h -3.36 v 11.49 c 0,2.97 1.47,4.739 4.56,4.739 1.86,0 3.81,-0.84 4.98,-2.43 l 0.21,2.04 h 2.91 v -15.84 h -3.36 v 11.46 c -0.78,1.229 -2.22,2.22 -3.69,2.22 -1.5,0 -2.25,-0.75 -2.25,-2.609 z"
   id="path911" />
		<path
   style="fill:#e79525"
   inkscape:connector-curvature="0"
   d="m 181.457,-19.6 v 8.07 c -1.02,-1.141 -2.34,-1.74 -3.99,-1.74 -3.9,0 -6.27,3.51 -6.27,8.34 0,4.98 1.89,8.31 5.97,8.31 1.86,0 3.39,-0.84 4.44,-2.34 l 0.24,1.95 h 2.97 v -22.2 z m -3.121,8.91 c 1.29,0 2.34,0.66 3.12,1.77 v 7.471 c -0.78,1.26 -1.89,2.279 -3.39,2.279 -2.1,0 -3.3,-1.71 -3.3,-5.76 0.001,-3.96 1.32,-5.76 3.57,-5.76 z"
   id="path913" />
		<path
   style="fill:#d83e3e"
   inkscape:connector-curvature="0"
   d="m 192.185,-3.85 h 10.5 c 0.06,-0.39 0.09,-0.96 0.09,-1.5 0,-4.92 -2.641,-7.92 -6.84,-7.92 -4.5,0 -7.23,3.6 -7.23,8.34 0,4.95 2.7,8.31 7.65,8.31 2.22,0 4.289,-0.75 5.76,-1.949 l -1.439,-2.04 c -1.351,0.899 -2.641,1.38 -4.171,1.38 -2.281,-0.001 -4.111,-1.381 -4.32,-4.621 z m 3.779,-6.93 c 2.25,0 3.48,1.649 3.541,4.649 h -7.351 c 0.211,-3.179 1.711,-4.649 3.81,-4.649 z"
   id="path915" />
	</g>
<g
   id="text830"
   transform="matrix(1.1333268,0,0,1.1333268,-53.526915,47.93805)">
	<path
   id="path832"
   inkscape:connector-curvature="0"
   fill="#A7489A"
   d="M63.359-8.092l-0.373,2.355l-0.416-2.031h-0.43   l-0.508,2.031l-0.343-2.031h-0.445l-0.402,2.031l-0.377-2.031h-0.445l-0.416,2.031l-0.402-2.031h-0.445l-0.411,2.031l-0.406-2.031   h-0.43l-0.45,2.031l-0.372-2.355H55.96l0.488,2.539h0.484l0.382-1.909l0.329,1.909h0.585l0.343-1.909l0.338,1.909h0.561   l0.358-1.909l0.324,1.909h0.585l0.315-1.909l0.295,1.909h0.566l0.43-1.909l0.353,1.909h0.503l0.46-2.539H63.359z" />
	<path
   id="path834"
   inkscape:connector-curvature="0"
   fill="#A7489A"
   d="M65.219-5.901c0,0.227,0.165,0.397,0.392,0.397   c0.227,0,0.392-0.17,0.392-0.397c0-0.217-0.165-0.387-0.392-0.387C65.383-6.288,65.219-6.119,65.219-5.901z" />
	<path
   id="path836"
   inkscape:connector-curvature="0"
   fill="#734DA0"
   d="M68.515-9.238c-0.145,0-0.242,0.102-0.242,0.237   c0,0.145,0.097,0.246,0.242,0.246c0.155,0,0.256-0.102,0.256-0.246C68.771-9.136,68.67-9.238,68.515-9.238L68.515-9.238z    M68.8-8.092h-1.078v0.261H68.5v2.016h-0.803v0.261h1.838v-0.261H68.8V-8.092z" />
	<path
   id="path838"
   inkscape:connector-curvature="0"
   fill="#734DA0"
   d="M70.491-5.553h0.3v-1.871   c0.131-0.203,0.421-0.464,0.759-0.464c0.445,0,0.493,0.241,0.493,0.822v1.513h0.3V-7.39c0-0.47-0.203-0.75-0.72-0.75   c-0.286,0-0.653,0.155-0.851,0.42l-0.029-0.372h-0.252V-5.553z" />
	<path
   id="path840"
   inkscape:connector-curvature="0"
   fill="#734DA0"
   d="M74.483-5.78c-0.474,0-0.813-0.32-0.813-1.035   c0-0.701,0.339-1.055,0.808-1.055c0.232,0,0.45,0.078,0.682,0.233l0.16-0.213c-0.237-0.189-0.517-0.29-0.827-0.29   c-0.74,0-1.156,0.576-1.156,1.325c0,0.798,0.416,1.311,1.156,1.311c0.271,0,0.614-0.112,0.832-0.3L75.17-6.002   C74.982-5.872,74.754-5.78,74.483-5.78L74.483-5.78z" />
	<path
   id="path842"
   inkscape:connector-curvature="0"
   fill="#734DA0"
   d="M77.18-9.122h-1.088v0.265h0.788v2.728   c0,0.396,0.314,0.624,0.716,0.624c0.242,0,0.44-0.059,0.566-0.121l-0.087-0.232c-0.15,0.058-0.29,0.091-0.445,0.091   c-0.261,0-0.449-0.097-0.449-0.362V-9.122z" />
	<path
   id="path844"
   inkscape:connector-curvature="0"
   fill="#734DA0"
   d="M79.489-8.092H79.19v1.853c0,0.464,0.246,0.735,0.735,0.735   c0.295,0,0.614-0.146,0.827-0.407l0.034,0.358h0.251v-2.539h-0.3v1.891c-0.15,0.233-0.45,0.445-0.769,0.445   c-0.334,0-0.479-0.159-0.479-0.518V-8.092z" />
	<path
   id="path846"
   inkscape:connector-curvature="0"
   fill="#734DA0"
   d="M83.637-9.16v1.344c-0.179-0.213-0.401-0.324-0.716-0.324   c-0.624,0-0.991,0.566-0.991,1.325c0,0.778,0.305,1.311,0.982,1.311c0.261,0,0.522-0.112,0.725-0.397l0.039,0.348h0.261v-3.568   L83.637-9.16z M82.999-7.879c0.261,0,0.488,0.135,0.638,0.363v1.315c-0.15,0.223-0.368,0.436-0.691,0.436   c-0.449,0-0.677-0.383-0.677-1.055C82.268-7.521,82.529-7.879,82.999-7.879L82.999-7.879z" />
	<path
   id="path848"
   inkscape:connector-curvature="0"
   fill="#734DA0"
   d="M85.211-6.704h1.726c0-0.048,0.005-0.116,0.005-0.203   c0-0.759-0.368-1.233-0.986-1.233c-0.639,0-1.069,0.546-1.069,1.32c0,0.788,0.416,1.316,1.117,1.316   c0.28,0,0.595-0.107,0.827-0.286l-0.155-0.222C86.444-5.858,86.256-5.78,85.99-5.78C85.579-5.78,85.221-6.065,85.211-6.704   L85.211-6.704z M85.966-7.86c0.402,0,0.677,0.29,0.691,0.89h-1.441C85.25-7.57,85.555-7.86,85.966-7.86z" />
	<path
   id="path850"
   inkscape:connector-curvature="0"
   fill="#43B8CA"
   d="M88.982-5.78c-0.474,0-0.813-0.32-0.813-1.035   c0-0.701,0.339-1.055,0.807-1.055c0.232,0,0.45,0.078,0.682,0.233l0.159-0.213c-0.237-0.189-0.517-0.29-0.827-0.29   c-0.74,0-1.156,0.576-1.156,1.325c0,0.798,0.416,1.311,1.156,1.311c0.271,0,0.614-0.112,0.832-0.3l-0.155-0.198   C89.48-5.872,89.252-5.78,88.982-5.78L88.982-5.78z" />
	<path
   id="path852"
   inkscape:connector-curvature="0"
   fill="#43B8CA"
   d="M91.847-8.14c-0.329,0-0.595,0.165-0.774,0.42L91.04-8.092   h-0.252v3.549l0.3-0.039v-1.223c0.179,0.198,0.406,0.3,0.696,0.3c0.672,0,0.977-0.551,0.977-1.321   C92.761-7.613,92.524-8.14,91.847-8.14L91.847-8.14z M91.789-7.879c0.45,0,0.643,0.377,0.643,1.05c0,0.711-0.232,1.05-0.696,1.05   c-0.266,0-0.503-0.135-0.648-0.344v-1.315C91.238-7.652,91.48-7.879,91.789-7.879L91.789-7.879z" />
	<path
   id="path854"
   inkscape:connector-curvature="0"
   fill="#43B8CA"
   d="M94.747-8.14c-0.329,0-0.595,0.165-0.774,0.42l-0.034-0.372   h-0.252v3.549l0.3-0.039v-1.223c0.179,0.198,0.406,0.3,0.696,0.3c0.672,0,0.977-0.551,0.977-1.321   C95.66-7.613,95.424-8.14,94.747-8.14L94.747-8.14z M94.689-7.879c0.45,0,0.643,0.377,0.643,1.05c0,0.711-0.232,1.05-0.696,1.05   c-0.266,0-0.503-0.135-0.648-0.344v-1.315C94.137-7.652,94.379-7.879,94.689-7.879z" />
	<path
   id="path856"
   inkscape:connector-curvature="0"
   fill="#43B8CA"
   d="M97.115-5.901c0,0.227,0.164,0.397,0.392,0.397   c0.227,0,0.392-0.17,0.392-0.397c0-0.217-0.165-0.387-0.392-0.387C97.279-6.288,97.115-6.119,97.115-5.901z" />
	<path
   id="path858"
   inkscape:connector-curvature="0"
   fill="#1294AE"
   d="M100.415-8.14c-0.696,0-1.054,0.546-1.054,1.32   c0,0.783,0.353,1.316,1.05,1.316c0.691,0,1.05-0.561,1.05-1.321C101.46-7.623,101.112-8.14,100.415-8.14z M100.415-7.874   c0.474,0,0.716,0.338,0.716,1.049s-0.242,1.055-0.72,1.055c-0.479,0-0.72-0.344-0.72-1.05C99.69-7.536,99.941-7.874,100.415-7.874z   " />
	<path
   id="path860"
   inkscape:connector-curvature="0"
   fill="#1294AE"
   d="M104.036-8.14c-0.474,0-0.726,0.246-0.924,0.657   l-0.058-0.609h-0.643v0.252h0.416v2.036h-0.416v0.251h1.238v-0.251h-0.522v-1.18c0.179-0.6,0.464-0.87,0.87-0.87h0.063   l-0.005,0.063v0.498h0.29l0.034-0.798C104.263-8.121,104.166-8.14,104.036-8.14z" />
	<path
   id="path862"
   inkscape:connector-curvature="0"
   fill="#1294AE"
   d="M107.298-8.319c-0.295,0.111-0.489,0.174-1.146,0.179   c-0.586,0-0.977,0.372-0.977,0.87c0,0.324,0.136,0.546,0.416,0.692c-0.184,0.121-0.276,0.28-0.276,0.43   c0,0.252,0.189,0.474,0.595,0.474h0.469c0.348,0,0.634,0.131,0.634,0.396c0,0.309-0.29,0.459-0.871,0.459   c-0.595,0-0.74-0.154-0.74-0.474h-0.276c0,0.523,0.266,0.75,1.025,0.75c0.735,0,1.17-0.261,1.17-0.754   c0-0.382-0.392-0.672-0.88-0.672h-0.469c-0.266,0-0.358-0.102-0.358-0.233c0-0.106,0.068-0.213,0.145-0.28   c0.116,0.043,0.218,0.058,0.406,0.058c0.585,0,0.919-0.363,0.919-0.865c0-0.281-0.135-0.503-0.426-0.639   c0.276,0,0.517,0,0.745-0.063L107.298-8.319z M106.142-7.903c0.411,0,0.614,0.222,0.614,0.633c0,0.396-0.208,0.639-0.6,0.639   c-0.469,0-0.672-0.271-0.672-0.639C105.484-7.633,105.683-7.903,106.142-7.903z" />
</g>
</svg>