<?xml version="1.0" encoding="UTF-8" standalone="no"?>
<svg
   xmlns:dc="http://purl.org/dc/elements/1.1/"
   xmlns:cc="http://creativecommons.org/ns#"
   xmlns:rdf="http://www.w3.org/1999/02/22-rdf-syntax-ns#"
   xmlns:svg="http://www.w3.org/2000/svg"
   xmlns="http://www.w3.org/2000/svg"
   xmlns:sodipodi="http://sodipodi.sourceforge.net/DTD/sodipodi-0.dtd"
   xmlns:inkscape="http://www.inkscape.org/namespaces/inkscape"
   id="svg8"
   version="1.1"
   viewBox="0 0 91.167862 18.029465"
   height="18.029465mm"
   width="91.167862mm"
   sodipodi:docname="sticker.svg"
   inkscape:version="0.92.2 (5c3e80d, 2017-08-06)">
  <sodipodi:namedview
     pagecolor="#ffffff"
     bordercolor="#666666"
     borderopacity="1"
     objecttolerance="10"
     gridtolerance="10"
     guidetolerance="10"
     inkscape:pageopacity="0"
     inkscape:pageshadow="2"
     inkscape:window-width="1920"
     inkscape:window-height="1137"
     id="namedview31"
     showgrid="false"
     inkscape:zoom="4.2661689"
     inkscape:cx="172.28572"
     inkscape:cy="34.071429"
     inkscape:window-x="-8"
     inkscape:window-y="311"
     inkscape:window-maximized="1"
     inkscape:current-layer="svg8" />
  <defs
     id="defs2" />
  <metadata
     id="metadata5">
    <rdf:RDF>
      <cc:Work
         rdf:about="">
        <dc:format>image/svg+xml</dc:format>
        <dc:type
           rdf:resource="http://purl.org/dc/dcmitype/StillImage" />
        <dc:title />
      </cc:Work>
    </rdf:RDF>
  </metadata>
  <g
     id="g30">
    <rect
       style="opacity:1;fill:#000000;fill-opacity:1;fill-rule:nonzero;stroke:#000000;stroke-width:0.18903376;stroke-linecap:square;stroke-linejoin:round;stroke-miterlimit:4;stroke-dasharray:none;stroke-opacity:1;paint-order:normal"
       id="rect1087"
       width="90.978828"
       height="17.840431"
       x="0.094517261"
       y="0.094516866"
       ry="0.017858855" />
    <text
       xml:space="preserve"
       style="font-style:normal;font-weight:normal;font-size:10.58333302px;line-height:125%;font-family:sans-serif;letter-spacing:0px;word-spacing:0px;fill:#ffffff;fill-opacity:1;stroke:none;stroke-width:0.26458332px;stroke-linecap:butt;stroke-linejoin:miter;stroke-opacity:1"
       x="88.103157"
       y="12.322025"
       id="text899"><tspan
         id="tspan897"
         x="87.846504"
         y="12.322025"
         style="font-style:normal;font-variant:normal;font-weight:500;font-stretch:normal;font-size:10.58333302px;font-family:'Fira Code';-inkscape-font-specification:'Fira Code, Medium';font-variant-ligatures:no-contextual;font-variant-caps:normal;font-variant-numeric:normal;font-feature-settings:normal;text-align:end;letter-spacing:-0.25664583px;writing-mode:lr-tb;text-anchor:end;fill:#ffffff;fill-opacity:1;stroke-width:0.26458332px">&lt;C++&gt;</tspan></text>
    <g
       id="g917"
       transform="translate(-83.333629,-20.850597)">
      <path
         inkscape:connector-curvature="0"
         id="path901"
         style="font-style:normal;font-variant:normal;font-weight:500;font-stretch:normal;font-size:medium;line-height:125%;font-family:'Fira Code';-inkscape-font-specification:'Fira Code Medium';letter-spacing:-0.26458332px;word-spacing:0px;fill:#a7489a;fill-opacity:1;stroke:none;stroke-width:0.26458332px;stroke-linecap:butt;stroke-linejoin:miter;stroke-opacity:1"
         d="m 91.257813,28.388952 h 0.878416 v -0.85725 h -0.772583 l 0.232833,-1.661583 h -0.994833 l -0.22225,1.661583 h -1.344083 l 0.232833,-1.661583 h -0.994833 l -0.22225,1.661583 H 87.15148 v 0.85725 h 0.783166 l -0.306916,2.243666 h -0.867834 v 0.846667 h 0.762 l -0.22225,1.693333 h 0.994834 l 0.222249,-1.693333 h 1.344084 l -0.22225,1.693333 h 0.98425 l 0.22225,-1.693333 h 0.899583 v -0.846667 h -0.783167 z m -2.63525,2.243666 0.296333,-2.243666 h 1.354667 l -0.306917,2.243666 z" />
      <path
         inkscape:connector-curvature="0"
         id="path903"
         style="font-style:normal;font-variant:normal;font-weight:500;font-stretch:normal;font-size:medium;line-height:125%;font-family:'Fira Code';-inkscape-font-specification:'Fira Code Medium';letter-spacing:-0.26458332px;word-spacing:0px;fill:#734da0;fill-opacity:1;stroke:none;stroke-width:0.26458332px;stroke-linecap:butt;stroke-linejoin:miter;stroke-opacity:1"
         d="m 95.529345,24.843535 c -0.465666,0 -0.772583,0.328084 -0.772583,0.751417 0,0.423333 0.306917,0.740833 0.772583,0.740833 0.455084,0 0.772584,-0.3175 0.772584,-0.740833 0,-0.423333 -0.3175,-0.751417 -0.772584,-0.751417 z m 0.814917,2.741084 h -2.794 v 0.867833 h 1.608667 v 3.852333 h -1.661584 v 0.867833 h 4.370917 v -0.867833 h -1.524 z" />
      <path
         inkscape:connector-curvature="0"
         id="path905"
         style="font-style:normal;font-variant:normal;font-weight:500;font-stretch:normal;font-size:medium;line-height:125%;font-family:'Fira Code';-inkscape-font-specification:'Fira Code Medium';letter-spacing:-0.26458332px;word-spacing:0px;fill:#43b8ca;fill-opacity:1;stroke:none;stroke-width:0.26458332px;stroke-linecap:butt;stroke-linejoin:miter;stroke-opacity:1"
         d="m 99.377545,33.172618 h 1.185335 v -4.011083 c 0.29633,-0.423333 0.762,-0.814916 1.31233,-0.814916 0.67734,0 0.79375,0.370416 0.79375,1.344083 v 3.481916 h 1.18534 v -4.074583 c 0,-1.04775 -0.51859,-1.661583 -1.55576,-1.661583 -0.67733,0 -1.34408,0.306917 -1.80975,0.878417 l -0.0847,-0.73025 h -1.026578 z" />
      <path
         inkscape:connector-curvature="0"
         id="path907"
         style="font-style:normal;font-weight:normal;font-size:medium;line-height:125%;font-family:sans-serif;letter-spacing:-0.54504168px;word-spacing:0px;fill:#1294ae;fill-opacity:1;stroke:none;stroke-width:0.26458332px;stroke-linecap:butt;stroke-linejoin:miter;stroke-opacity:1"
         d="m 108.15758,32.336535 c -0.86784,0 -1.50284,-0.529167 -1.50284,-1.926167 0,-1.396999 0.61384,-2.021416 1.50284,-2.021416 0.47625,0 0.93133,0.169333 1.36525,0.465667 l 0.55033,-0.740834 c -0.53975,-0.4445 -1.17475,-0.677333 -1.93675,-0.677333 -1.72508,0 -2.74108,1.27 -2.74108,2.973916 0,1.74625 0.99483,2.899834 2.71991,2.899834 0.74084,0 1.47109,-0.275167 1.95792,-0.687917 l -0.53975,-0.762 c -0.41275,0.275167 -0.85725,0.47625 -1.37583,0.47625 z" />
      <path
         inkscape:connector-curvature="0"
         id="path909"
         style="font-style:normal;font-variant:normal;font-weight:500;font-stretch:normal;font-size:medium;line-height:125%;font-family:'Fira Code';-inkscape-font-specification:'Fira Code Medium';letter-spacing:-0.26458332px;word-spacing:0px;fill:#6a9b40;fill-opacity:1;stroke:none;stroke-width:0.26458332px;stroke-linecap:butt;stroke-linejoin:miter;stroke-opacity:1"
         d="m 113.71499,25.340952 h -2.86809 v 0.867833 h 1.68275 v 5.334 c 0,1.100667 0.65617,1.767417 1.778,1.767417 0.62442,0 1.11125,-0.137584 1.43933,-0.3175 l -0.29633,-0.8255 c -0.28575,0.116416 -0.5715,0.1905 -0.889,0.1905 -0.49742,0 -0.84666,-0.1905 -0.84666,-0.709084 z" />
      <path
         inkscape:connector-curvature="0"
         id="path911"
         style="font-style:normal;font-variant:normal;font-weight:500;font-stretch:normal;font-size:medium;line-height:125%;font-family:'Fira Code';-inkscape-font-specification:'Fira Code Medium';letter-spacing:-0.26458332px;word-spacing:0px;fill:#e5dc1d;fill-opacity:1;stroke:none;stroke-width:0.26458332px;stroke-linecap:butt;stroke-linejoin:miter;stroke-opacity:1"
         d="m 118.52627,27.584619 h -1.18534 v 4.053416 c 0,1.04775 0.51859,1.672167 1.60867,1.672167 0.65617,0 1.34408,-0.296334 1.75683,-0.85725 l 0.0741,0.719666 h 1.02659 v -5.587999 h -1.18534 v 4.042833 c -0.27516,0.433916 -0.78316,0.783166 -1.30175,0.783166 -0.52916,0 -0.79375,-0.264583 -0.79375,-0.92075 z" />
      <path
         inkscape:connector-curvature="0"
         id="path913"
         style="font-style:normal;font-variant:normal;font-weight:500;font-stretch:normal;font-size:medium;line-height:125%;font-family:'Fira Code';-inkscape-font-specification:'Fira Code Medium';letter-spacing:-0.26458332px;word-spacing:0px;fill:#e79525;fill-opacity:1;stroke:none;stroke-width:0.26458332px;stroke-linecap:butt;stroke-linejoin:miter;stroke-opacity:1"
         d="m 126.70305,25.203369 v 2.846916 c -0.35983,-0.402166 -0.8255,-0.613833 -1.40758,-0.613833 -1.37584,0 -2.21192,1.23825 -2.21192,2.942166 0,1.756834 0.66675,2.931584 2.10608,2.931584 0.65617,0 1.19592,-0.296334 1.56634,-0.8255 l 0.0847,0.687916 h 1.04775 v -7.831666 z m -1.10067,3.14325 c 0.45509,0 0.8255,0.232833 1.10067,0.624416 v 2.63525 c -0.27517,0.4445 -0.66675,0.804333 -1.19592,0.804333 -0.74083,0 -1.16416,-0.60325 -1.16416,-2.032 0,-1.396999 0.46566,-2.031999 1.25941,-2.031999 z" />
      <path
         inkscape:connector-curvature="0"
         id="path915"
         style="font-style:normal;font-variant:normal;font-weight:500;font-stretch:normal;font-size:medium;line-height:125%;font-family:'Fira Code';-inkscape-font-specification:'Fira Code Medium';letter-spacing:-0.26458332px;word-spacing:0px;fill:#d83e3e;fill-opacity:1;stroke:none;stroke-width:0.26458332px;stroke-linecap:butt;stroke-linejoin:miter;stroke-opacity:1"
         d="m 130.48775,30.759618 h 3.70416 c 0.0212,-0.137583 0.0317,-0.338666 0.0317,-0.529166 0,-1.735667 -0.93133,-2.794 -2.413,-2.794 -1.5875,0 -2.55058,1.27 -2.55058,2.942166 0,1.74625 0.9525,2.931584 2.69875,2.931584 0.78317,0 1.51342,-0.264584 2.032,-0.687917 l -0.508,-0.719667 c -0.47625,0.3175 -0.93133,0.486834 -1.47108,0.486834 -0.80434,0 -1.44992,-0.486834 -1.524,-1.629834 z m 1.3335,-2.444749 c 0.79375,0 1.22766,0.582083 1.24883,1.640416 h -2.59292 c 0.0741,-1.121833 0.60325,-1.640416 1.34409,-1.640416 z" />
    </g>
  </g>
  <g
     aria-label="www.includecpp.org"
     style="font-style:normal;font-variant:normal;font-weight:300;font-stretch:normal;font-size:1.70596194px;line-height:125%;font-family:'Fira Code';-inkscape-font-specification:'Fira Code Light';text-align:start;letter-spacing:0px;word-spacing:0px;text-anchor:start;fill:#ffffff;fill-opacity:1;stroke:none;stroke-width:0.05917531px;stroke-linecap:butt;stroke-linejoin:miter;stroke-opacity:1"
     id="text830"
     transform="matrix(1.1333268,0,0,1.1333268,-78.341051,-4.8515347)">
    <path
       d="m 74.814851,16.348175 -0.131359,0.830803 -0.146713,-0.716504 h -0.151831 l -0.179126,0.716504 -0.121123,-0.716504 H 73.92775 l -0.141594,0.716504 -0.133065,-0.716504 h -0.156949 l -0.146713,0.716504 -0.141595,-0.716504 h -0.156948 l -0.145007,0.716504 -0.143301,-0.716504 h -0.15183 l -0.158655,0.716504 -0.131359,-0.830803 h -0.116005 l 0.172302,0.89563 h 0.170596 l 0.134771,-0.673855 0.116006,0.673855 h 0.206421 l 0.121123,-0.673855 0.119418,0.673855 h 0.197891 l 0.126241,-0.673855 0.1143,0.673855 h 0.206421 l 0.110888,-0.673855 0.104063,0.673855 h 0.199598 l 0.151831,-0.673855 0.124535,0.673855 h 0.17742 l 0.162066,-0.89563 z"
       style="font-style:normal;font-variant:normal;font-weight:300;font-stretch:normal;font-size:1.70596194px;font-family:'Fira Code';-inkscape-font-specification:'Fira Code Light';text-align:end;text-anchor:end;fill:#a7489a;fill-opacity:1;stroke-width:0.05917531px"
       id="path832"
       inkscape:connector-curvature="0" />
    <path
       d="m 75.47098,17.120976 c 0,0.08018 0.058,0.139889 0.138183,0.139889 0.08018,0 0.138182,-0.05971 0.138182,-0.139889 0,-0.07677 -0.058,-0.136477 -0.138182,-0.136477 -0.08018,0 -0.138183,0.05971 -0.138183,0.136477 z"
       style="font-style:normal;font-variant:normal;font-weight:300;font-stretch:normal;font-size:1.70596194px;font-family:'Fira Code';-inkscape-font-specification:'Fira Code Light';text-align:end;text-anchor:end;fill:#a7489a;fill-opacity:1;stroke-width:0.05917531px"
       id="path834"
       inkscape:connector-curvature="0" />
    <path
       d="m 76.633779,15.943862 c -0.05118,0 -0.0853,0.03583 -0.0853,0.08359 0,0.05118 0.03412,0.087 0.0853,0.087 0.05459,0 0.09042,-0.03582 0.09042,-0.087 0,-0.04777 -0.03582,-0.08359 -0.09042,-0.08359 z m 0.100652,0.404313 h -0.380429 v 0.09212 h 0.274659 v 0.711386 h -0.283189 v 0.09212 h 0.648265 v -0.09212 h -0.259306 z"
       style="font-style:normal;font-variant:normal;font-weight:300;font-stretch:normal;font-size:1.70596194px;font-family:'Fira Code';-inkscape-font-specification:'Fira Code Light';text-align:end;text-anchor:end;fill:#734da0;fill-opacity:1;stroke-width:0.05917531px"
       id="path836"
       inkscape:connector-curvature="0" />
    <path
       d="m 77.330852,17.243805 h 0.105769 v -0.660207 c 0.04606,-0.07165 0.148419,-0.163773 0.267836,-0.163773 0.156949,0 0.174008,0.0853 0.174008,0.290014 v 0.533966 h 0.10577 v -0.648266 c 0,-0.165478 -0.07165,-0.264424 -0.254188,-0.264424 -0.100652,0 -0.230305,0.05459 -0.300249,0.148419 l -0.01024,-0.131359 h -0.08871 z"
       style="font-style:normal;font-variant:normal;font-weight:300;font-stretch:normal;font-size:1.70596194px;font-family:'Fira Code';-inkscape-font-specification:'Fira Code Light';text-align:end;text-anchor:end;fill:#734da0;fill-opacity:1;stroke-width:0.05917531px"
       id="path838"
       inkscape:connector-curvature="0" />
    <path
       d="m 78.73931,17.163625 c -0.167185,0 -0.286602,-0.112594 -0.286602,-0.365076 0,-0.247365 0.119417,-0.3719 0.284896,-0.3719 0.08189,0 0.158654,0.0273 0.24054,0.08189 l 0.0563,-0.07506 c -0.08359,-0.06653 -0.182538,-0.102358 -0.291719,-0.102358 -0.261013,0 -0.407725,0.20301 -0.407725,0.467434 0,0.281484 0.146712,0.462316 0.407725,0.462316 0.09553,0 0.216657,-0.03924 0.293425,-0.10577 l -0.05459,-0.06995 c -0.06653,0.04606 -0.146712,0.07848 -0.242246,0.07848 z"
       style="font-style:normal;font-variant:normal;font-weight:300;font-stretch:normal;font-size:1.70596194px;font-family:'Fira Code';-inkscape-font-specification:'Fira Code Light';text-align:end;text-anchor:end;fill:#734da0;fill-opacity:1;stroke-width:0.05917531px"
       id="path840"
       inkscape:connector-curvature="0" />
    <path
       d="m 79.69057,15.984805 h -0.383842 v 0.09383 H 79.5848 v 0.962162 c 0,0.139889 0.110888,0.22007 0.252483,0.22007 0.0853,0 0.155242,-0.02047 0.199597,-0.04265 l -0.03071,-0.08189 c -0.05289,0.02047 -0.102358,0.03241 -0.156949,0.03241 -0.09212,0 -0.158654,-0.03412 -0.158654,-0.127948 z"
       style="font-style:normal;font-variant:normal;font-weight:300;font-stretch:normal;font-size:1.70596194px;font-family:'Fira Code';-inkscape-font-specification:'Fira Code Light';text-align:end;text-anchor:end;fill:#734da0;fill-opacity:1;stroke-width:0.05917531px"
       id="path842"
       inkscape:connector-curvature="0" />
    <path
       d="m 80.505354,16.348175 h -0.10577 v 0.653383 c 0,0.163773 0.087,0.259307 0.259306,0.259307 0.104064,0 0.216657,-0.05118 0.29172,-0.143301 l 0.01194,0.126241 h 0.08871 v -0.89563 h -0.105769 v 0.667031 c -0.05289,0.08189 -0.158655,0.156949 -0.271248,0.156949 -0.117712,0 -0.16889,-0.0563 -0.16889,-0.182538 z"
       style="font-style:normal;font-variant:normal;font-weight:300;font-stretch:normal;font-size:1.70596194px;font-family:'Fira Code';-inkscape-font-specification:'Fira Code Light';text-align:end;text-anchor:end;fill:#734da0;fill-opacity:1;stroke-width:0.05917531px"
       id="path844"
       inkscape:connector-curvature="0" />
    <path
       d="m 81.968403,15.971157 v 0.474258 c -0.06312,-0.07506 -0.141595,-0.1143 -0.252482,-0.1143 -0.22007,0 -0.349723,0.199598 -0.349723,0.467434 0,0.27466 0.107476,0.462316 0.346311,0.462316 0.09212,0 0.184243,-0.03924 0.255894,-0.139889 l 0.01365,0.122829 h 0.09212 v -1.259 z m -0.225187,0.45208 c 0.09212,0 0.172302,0.04777 0.225187,0.127947 v 0.464022 c -0.05288,0.07847 -0.129653,0.153537 -0.243953,0.153537 -0.158654,0 -0.238834,-0.134771 -0.238834,-0.3719 0,-0.247365 0.09212,-0.373606 0.2576,-0.373606 z"
       style="font-style:normal;font-variant:normal;font-weight:300;font-stretch:normal;font-size:1.70596194px;font-family:'Fira Code';-inkscape-font-specification:'Fira Code Light';text-align:end;text-anchor:end;fill:#734da0;fill-opacity:1;stroke-width:0.05917531px"
       id="path846"
       inkscape:connector-curvature="0" />
    <path
       d="m 82.52388,16.837786 h 0.609029 c 0,-0.01706 0.0017,-0.04094 0.0017,-0.07165 0,-0.267836 -0.129653,-0.435021 -0.348016,-0.435021 -0.225187,0 -0.377018,0.192774 -0.377018,0.465728 0,0.278072 0.146713,0.464022 0.394077,0.464022 0.09895,0 0.209833,-0.03753 0.29172,-0.100652 l -0.05459,-0.07847 c -0.08189,0.05459 -0.148419,0.08189 -0.242247,0.08189 -0.145007,0 -0.271248,-0.100652 -0.27466,-0.325839 z m 0.26613,-0.407725 c 0.141595,0 0.238835,0.102358 0.243953,0.313897 h -0.508377 c 0.01194,-0.211539 0.119418,-0.313897 0.264424,-0.313897 z"
       style="font-style:normal;font-variant:normal;font-weight:300;font-stretch:normal;font-size:1.70596194px;font-family:'Fira Code';-inkscape-font-specification:'Fira Code Light';text-align:end;text-anchor:end;fill:#734da0;fill-opacity:1;stroke-width:0.05917531px"
       id="path848"
       inkscape:connector-curvature="0" />
    <path
       d="m 83.853864,17.163625 c -0.167185,0 -0.286602,-0.112594 -0.286602,-0.365076 0,-0.247365 0.119417,-0.3719 0.284896,-0.3719 0.08189,0 0.158654,0.0273 0.24054,0.08189 l 0.0563,-0.07506 c -0.08359,-0.06653 -0.182538,-0.102358 -0.291719,-0.102358 -0.261013,0 -0.407725,0.20301 -0.407725,0.467434 0,0.281484 0.146712,0.462316 0.407725,0.462316 0.09553,0 0.216657,-0.03924 0.293425,-0.10577 l -0.05459,-0.06995 c -0.06653,0.04606 -0.146712,0.07848 -0.242246,0.07848 z"
       style="font-style:normal;font-variant:normal;font-weight:300;font-stretch:normal;font-size:1.70596194px;font-family:'Fira Code';-inkscape-font-specification:'Fira Code Light';text-align:end;text-anchor:end;fill:#43b8ca;fill-opacity:1;stroke-width:0.05917531px"
       id="path850"
       inkscape:connector-curvature="0" />
    <path
       d="m 84.864833,16.331115 c -0.116005,0 -0.209833,0.058 -0.272954,0.148419 l -0.01194,-0.131359 h -0.08871 v 1.252176 l 0.10577,-0.01365 v -0.431608 c 0.06312,0.06994 0.143301,0.10577 0.245658,0.10577 0.237129,0 0.344605,-0.19448 0.344605,-0.465728 0,-0.278072 -0.08359,-0.464022 -0.322427,-0.464022 z m -0.02047,0.09212 c 0.158655,0 0.226893,0.133065 0.226893,0.370194 0,0.250776 -0.08189,0.370194 -0.245658,0.370194 -0.09383,0 -0.17742,-0.04777 -0.228599,-0.121124 V 16.57848 c 0.05289,-0.07506 0.138183,-0.155243 0.247364,-0.155243 z"
       style="font-style:normal;font-variant:normal;font-weight:300;font-stretch:normal;font-size:1.70596194px;font-family:'Fira Code';-inkscape-font-specification:'Fira Code Light';text-align:end;text-anchor:end;fill:#43b8ca;fill-opacity:1;stroke-width:0.05917531px"
       id="path852"
       inkscape:connector-curvature="0" />
    <path
       d="m 85.887744,16.331115 c -0.116005,0 -0.209833,0.058 -0.272954,0.148419 l -0.01194,-0.131359 h -0.08871 v 1.252176 l 0.10577,-0.01365 v -0.431608 c 0.06312,0.06994 0.143301,0.10577 0.245659,0.10577 0.237128,0 0.344604,-0.19448 0.344604,-0.465728 0,-0.278072 -0.08359,-0.464022 -0.322427,-0.464022 z m -0.02047,0.09212 c 0.158654,0 0.226892,0.133065 0.226892,0.370194 0,0.250776 -0.08189,0.370194 -0.245658,0.370194 -0.09383,0 -0.17742,-0.04777 -0.228599,-0.121124 V 16.57848 c 0.05289,-0.07506 0.138183,-0.155243 0.247365,-0.155243 z"
       style="font-style:normal;font-variant:normal;font-weight:300;font-stretch:normal;font-size:1.70596194px;font-family:'Fira Code';-inkscape-font-specification:'Fira Code Light';text-align:end;text-anchor:end;fill:#43b8ca;fill-opacity:1;stroke-width:0.05917531px"
       id="path854"
       inkscape:connector-curvature="0" />
    <path
       d="m 86.722998,17.120976 c 0,0.08018 0.058,0.139889 0.138183,0.139889 0.08018,0 0.138183,-0.05971 0.138183,-0.139889 0,-0.07677 -0.058,-0.136477 -0.138183,-0.136477 -0.08018,0 -0.138183,0.05971 -0.138183,0.136477 z"
       style="font-style:normal;font-variant:normal;font-weight:300;font-stretch:normal;font-size:1.70596194px;font-family:'Fira Code';-inkscape-font-specification:'Fira Code Light';text-align:end;text-anchor:end;fill:#43b8ca;fill-opacity:1;stroke-width:0.05917531px"
       id="path856"
       inkscape:connector-curvature="0" />
    <path
       d="m 87.887504,16.331115 c -0.245658,0 -0.371899,0.192774 -0.371899,0.465728 0,0.276366 0.124535,0.464022 0.370193,0.464022 0.243953,0 0.370194,-0.197892 0.370194,-0.465728 0,-0.281484 -0.122829,-0.464022 -0.368488,-0.464022 z m 0,0.09383 c 0.167185,0 0.252483,0.119418 0.252483,0.370194 0,0.250776 -0.0853,0.3719 -0.254189,0.3719 -0.16889,0 -0.254188,-0.121124 -0.254188,-0.370194 0,-0.252482 0.08871,-0.3719 0.255894,-0.3719 z"
       style="font-style:normal;font-variant:normal;font-weight:300;font-stretch:normal;font-size:1.70596194px;font-family:'Fira Code';-inkscape-font-specification:'Fira Code Light';text-align:end;text-anchor:end;fill:#1294ae;fill-opacity:1;stroke-width:0.05917531px"
       id="path858"
       inkscape:connector-curvature="0" />
    <path
       d="m 89.164604,16.331115 c -0.167185,0 -0.255895,0.087 -0.325839,0.232011 l -0.02047,-0.214951 H 88.5914 v 0.08871 h 0.146713 v 0.71821 H 88.5914 v 0.08871 h 0.436727 v -0.08871 H 88.843883 V 16.73884 c 0.06312,-0.211539 0.163772,-0.307073 0.307073,-0.307073 h 0.02218 l -0.0017,0.02218 v 0.175714 h 0.102357 l 0.01194,-0.281484 c -0.04094,-0.01024 -0.07506,-0.01706 -0.121123,-0.01706 z"
       style="font-style:normal;font-variant:normal;font-weight:300;font-stretch:normal;font-size:1.70596194px;font-family:'Fira Code';-inkscape-font-specification:'Fira Code Light';text-align:end;text-anchor:end;fill:#1294ae;fill-opacity:1;stroke-width:0.05917531px"
       id="path860"
       inkscape:connector-curvature="0" />
    <path
       d="m 90.315462,16.267995 c -0.104064,0.03924 -0.172302,0.06141 -0.404313,0.06312 -0.206421,0 -0.344604,0.131359 -0.344604,0.307073 0,0.1143 0.04777,0.192774 0.146712,0.243953 -0.06483,0.04265 -0.09724,0.09895 -0.09724,0.151831 0,0.08871 0.06653,0.167184 0.209834,0.167184 h 0.165478 c 0.122829,0 0.223481,0.04606 0.223481,0.139889 0,0.109181 -0.102358,0.162066 -0.307073,0.162066 -0.209833,0 -0.261012,-0.05459 -0.261012,-0.167184 h -0.09724 c 0,0.184244 0.09383,0.264424 0.361664,0.264424 0.259306,0 0.412843,-0.09212 0.412843,-0.26613 0,-0.134771 -0.138183,-0.237129 -0.310485,-0.237129 h -0.165479 c -0.09383,0 -0.126241,-0.03582 -0.126241,-0.08189 0,-0.03753 0.02388,-0.07506 0.05118,-0.09895 0.04094,0.01535 0.07677,0.02047 0.143301,0.02047 0.206421,0 0.324133,-0.127947 0.324133,-0.305367 0,-0.09895 -0.04777,-0.17742 -0.150125,-0.225187 0.09724,0 0.182538,0 0.262718,-0.02218 z m -0.407725,0.146712 c 0.145007,0 0.216657,0.07848 0.216657,0.223481 0,0.139889 -0.07336,0.225187 -0.211539,0.225187 -0.165478,0 -0.237129,-0.09553 -0.237129,-0.225187 0,-0.127947 0.06995,-0.223481 0.232011,-0.223481 z"
       style="font-style:normal;font-variant:normal;font-weight:300;font-stretch:normal;font-size:1.70596194px;font-family:'Fira Code';-inkscape-font-specification:'Fira Code Light';text-align:end;text-anchor:end;fill:#1294ae;fill-opacity:1;stroke-width:0.05917531px"
       id="path862"
       inkscape:connector-curvature="0" />
  </g>
</svg>
