<?xml version="1.0" encoding="UTF-8" standalone="no"?>
<svg
   xmlns:dc="http://purl.org/dc/elements/1.1/"
   xmlns:cc="http://creativecommons.org/ns#"
   xmlns:rdf="http://www.w3.org/1999/02/22-rdf-syntax-ns#"
   xmlns:svg="http://www.w3.org/2000/svg"
   xmlns="http://www.w3.org/2000/svg"
   xmlns:sodipodi="http://sodipodi.sourceforge.net/DTD/sodipodi-0.dtd"
   xmlns:inkscape="http://www.inkscape.org/namespaces/inkscape"
   id="svg8"
   version="1.1"
   viewBox="0 0 91.167862 18.029465"
   height="18.029465mm"
   width="91.167862mm"
   sodipodi:docname="sticker_skin_curves.svg"
   inkscape:version="0.92.2 (5c3e80d, 2017-08-06)">
  <sodipodi:namedview
     pagecolor="#ffffff"
     bordercolor="#666666"
     borderopacity="1"
     objecttolerance="10"
     gridtolerance="10"
     guidetolerance="10"
     inkscape:pageopacity="0"
     inkscape:pageshadow="2"
     inkscape:window-width="1920"
     inkscape:window-height="1137"
     id="namedview31"
     showgrid="false"
     inkscape:zoom="2.4194167"
     inkscape:cx="79.547004"
     inkscape:cy="103.66129"
     inkscape:window-x="-8"
     inkscape:window-y="311"
     inkscape:window-maximized="1"
     inkscape:current-layer="svg8" />
  <defs
     id="defs2" />
  <metadata
     id="metadata5">
    <rdf:RDF>
      <cc:Work
         rdf:about="">
        <dc:format>image/svg+xml</dc:format>
        <dc:type
           rdf:resource="http://purl.org/dc/dcmitype/StillImage" />
        <dc:title />
      </cc:Work>
    </rdf:RDF>
  </metadata>
  <g
     id="g1214">
    <rect
       style="opacity:1;fill:#000000;fill-opacity:1;fill-rule:nonzero;stroke:#000000;stroke-width:0.18903376;stroke-linecap:square;stroke-linejoin:round;stroke-miterlimit:4;stroke-dasharray:none;stroke-opacity:1;paint-order:normal"
       id="rect1087"
       width="90.978828"
       height="17.840431"
       x="0.094517261"
       y="0.094516866"
       ry="0.017858855" />
    <path
       d="m 62.096756,5.961442 -4.09575,2.529417 v 1.026583 l 4.064,2.529417 0.582083,-0.85725 -3.630083,-2.180167 3.630083,-2.19075 z"
       style="font-style:normal;font-variant:normal;font-weight:500;font-stretch:normal;font-size:10.58333302px;line-height:125%;font-family:'Fira Code';-inkscape-font-specification:'Fira Code, Medium';font-variant-ligatures:no-contextual;font-variant-caps:normal;font-variant-numeric:normal;font-feature-settings:normal;text-align:end;letter-spacing:-0.25664583px;word-spacing:0px;writing-mode:lr-tb;text-anchor:end;fill:#e6bb91;fill-opacity:1;stroke:none;stroke-width:0.26458332px;stroke-linecap:butt;stroke-linejoin:miter;stroke-opacity:1"
       id="path982"
       inkscape:connector-curvature="0" />
    <path
       d="m 67.021809,4.871359 c -1.778,0 -3.2385,1.3335 -3.2385,3.788833 0,2.4765 1.397,3.799417 3.259667,3.799417 1.068916,0 1.799166,-0.391584 2.286,-0.867834 l -0.592667,-0.751416 c -0.402167,0.3175 -0.867833,0.624416 -1.651,0.624416 -1.153583,0 -2.021417,-0.783166 -2.021417,-2.804583 0,-2.06375 0.92075,-2.82575 2.010834,-2.82575 0.5715,0 1.068916,0.179917 1.513416,0.53975 l 0.635,-0.762 c -0.592666,-0.47625 -1.2065,-0.740833 -2.201333,-0.740833 z"
       style="font-style:normal;font-variant:normal;font-weight:500;font-stretch:normal;font-size:10.58333302px;line-height:125%;font-family:'Fira Code';-inkscape-font-specification:'Fira Code, Medium';font-variant-ligatures:no-contextual;font-variant-caps:normal;font-variant-numeric:normal;font-feature-settings:normal;text-align:end;letter-spacing:-0.25664583px;word-spacing:0px;writing-mode:lr-tb;text-anchor:end;fill:#c78e63;fill-opacity:1;stroke:none;stroke-width:0.26458332px;stroke-linecap:butt;stroke-linejoin:miter;stroke-opacity:1"
       id="path984"
       inkscape:connector-curvature="0" />
    <path
       d="m 73.005196,6.416526 h -1.037167 v 2.137833 h -2.084917 v 0.941916 h 2.084917 v 2.137834 h 1.037167 V 9.496275 h 2.106083 V 8.554359 h -2.106083 z"
       style="font-style:normal;font-variant:normal;font-weight:500;font-stretch:normal;font-size:10.58333302px;line-height:125%;font-family:'Fira Code';-inkscape-font-specification:'Fira Code, Medium';font-variant-ligatures:no-contextual;font-variant-caps:normal;font-variant-numeric:normal;font-feature-settings:normal;text-align:end;letter-spacing:-0.25664583px;word-spacing:0px;writing-mode:lr-tb;text-anchor:end;fill:#a46135;fill-opacity:1;stroke:none;stroke-width:0.26458332px;stroke-linecap:butt;stroke-linejoin:miter;stroke-opacity:1"
       id="path986"
       inkscape:connector-curvature="0" />
    <path
       d="m 79.094414,6.416526 h -1.03716 v 2.137833 h -2.08492 v 0.941916 h 2.08492 v 2.137834 h 1.03716 V 9.496275 h 2.10609 V 8.554359 h -2.10609 z"
       style="font-style:normal;font-variant:normal;font-weight:500;font-stretch:normal;font-size:10.58333302px;line-height:125%;font-family:'Fira Code';-inkscape-font-specification:'Fira Code, Medium';font-variant-ligatures:no-contextual;font-variant-caps:normal;font-variant-numeric:normal;font-feature-settings:normal;text-align:end;letter-spacing:-0.25664583px;word-spacing:0px;writing-mode:lr-tb;text-anchor:end;fill:#a46135;fill-opacity:1;stroke:none;stroke-width:0.26458332px;stroke-linecap:butt;stroke-linejoin:miter;stroke-opacity:1"
       id="path988"
       inkscape:connector-curvature="0" />
    <path
       d="m 82.908224,5.961442 -0.55034,0.878417 3.6195,2.169583 -3.6195,2.19075 0.58209,0.846667 4.064,-2.529417 V 8.490859 Z"
       style="font-style:normal;font-variant:normal;font-weight:500;font-stretch:normal;font-size:10.58333302px;line-height:125%;font-family:'Fira Code';-inkscape-font-specification:'Fira Code, Medium';font-variant-ligatures:no-contextual;font-variant-caps:normal;font-variant-numeric:normal;font-feature-settings:normal;text-align:end;letter-spacing:-0.25664583px;word-spacing:0px;writing-mode:lr-tb;text-anchor:end;fill:#5d4437;fill-opacity:1;stroke:none;stroke-width:0.26458332px;stroke-linecap:butt;stroke-linejoin:miter;stroke-opacity:1"
       id="path990"
       inkscape:connector-curvature="0" />
    <path
       d="M 7.924184,7.538355 H 8.8026 V 6.681105 H 8.030017 L 8.26285,5.019522 H 7.268017 L 7.045767,6.681105 H 5.701684 L 5.934517,5.019522 H 4.939684 L 4.717434,6.681105 H 3.817851 v 0.85725 H 4.601017 L 4.294101,9.782021 H 3.426267 v 0.846667 h 0.762 l -0.22225,1.693333 H 4.960851 L 5.1831,10.628688 h 1.344084 l -0.22225,1.693333 h 0.98425 l 0.22225,-1.693333 H 8.411017 V 9.782021 H 7.62785 Z M 5.288934,9.782021 5.585267,7.538355 H 6.939934 L 6.633017,9.782021 Z"
       style="font-style:normal;font-variant:normal;font-weight:500;font-stretch:normal;font-size:medium;line-height:125%;font-family:'Fira Code';-inkscape-font-specification:'Fira Code Medium';letter-spacing:-0.26458332px;word-spacing:0px;fill:#ffcc00;fill-opacity:1;stroke:none;stroke-width:0.26458332px;stroke-linecap:butt;stroke-linejoin:miter;stroke-opacity:1"
       id="path901"
       inkscape:connector-curvature="0" />
    <path
       d="m 12.195716,3.992938 c -0.465666,0 -0.772583,0.328084 -0.772583,0.751417 0,0.423333 0.306917,0.740833 0.772583,0.740833 0.455084,0 0.772584,-0.3175 0.772584,-0.740833 0,-0.423333 -0.3175,-0.751417 -0.772584,-0.751417 z m 0.814917,2.741084 h -2.794 V 7.601855 H 11.8253 v 3.852333 h -1.661584 v 0.867833 h 4.370917 v -0.867833 h -1.524 z"
       style="font-style:normal;font-variant:normal;font-weight:500;font-stretch:normal;font-size:medium;line-height:125%;font-family:'Fira Code';-inkscape-font-specification:'Fira Code Medium';letter-spacing:-0.26458332px;word-spacing:0px;fill:#5d4437;fill-opacity:1;stroke:none;stroke-width:0.26458332px;stroke-linecap:butt;stroke-linejoin:miter;stroke-opacity:1"
       id="path903"
       inkscape:connector-curvature="0" />
    <path
       d="m 16.043916,12.322021 h 1.185335 V 8.310938 c 0.29633,-0.423333 0.762,-0.814916 1.31233,-0.814916 0.67734,0 0.79375,0.370416 0.79375,1.344083 v 3.481916 h 1.18534 V 8.247438 c 0,-1.04775 -0.51859,-1.661583 -1.55576,-1.661583 -0.67733,0 -1.34408,0.306917 -1.80975,0.878417 l -0.0847,-0.73025 h -1.026578 z"
       style="font-style:normal;font-variant:normal;font-weight:500;font-stretch:normal;font-size:medium;line-height:125%;font-family:'Fira Code';-inkscape-font-specification:'Fira Code Medium';letter-spacing:-0.26458332px;word-spacing:0px;fill:#a46135;fill-opacity:1;stroke:none;stroke-width:0.26458332px;stroke-linecap:butt;stroke-linejoin:miter;stroke-opacity:1"
       id="path905"
       inkscape:connector-curvature="0" />
    <path
       d="m 24.823951,11.485938 c -0.86784,0 -1.50284,-0.529167 -1.50284,-1.926167 0,-1.396999 0.61384,-2.021416 1.50284,-2.021416 0.47625,0 0.93133,0.169333 1.36525,0.465667 l 0.55033,-0.740834 c -0.53975,-0.4445 -1.17475,-0.677333 -1.93675,-0.677333 -1.72508,0 -2.74108,1.27 -2.74108,2.973916 0,1.74625 0.99483,2.899834 2.71991,2.899834 0.74084,0 1.47109,-0.275167 1.95792,-0.687917 l -0.53975,-0.762 c -0.41275,0.275167 -0.85725,0.47625 -1.37583,0.47625 z"
       style="font-style:normal;font-weight:normal;font-size:medium;line-height:125%;font-family:sans-serif;letter-spacing:-0.54504168px;word-spacing:0px;fill:#a46135;fill-opacity:1;stroke:none;stroke-width:0.26458332px;stroke-linecap:butt;stroke-linejoin:miter;stroke-opacity:1"
       id="path907"
       inkscape:connector-curvature="0" />
    <path
       d="m 30.381361,4.490355 h -2.86809 v 0.867833 h 1.68275 v 5.334 c 0,1.100667 0.65617,1.767417 1.778,1.767417 0.62442,0 1.11125,-0.137584 1.43933,-0.3175 l -0.29633,-0.8255 c -0.28575,0.116416 -0.5715,0.1905 -0.889,0.1905 -0.49742,0 -0.84666,-0.1905 -0.84666,-0.709084 z"
       style="font-style:normal;font-variant:normal;font-weight:500;font-stretch:normal;font-size:medium;line-height:125%;font-family:'Fira Code';-inkscape-font-specification:'Fira Code Medium';letter-spacing:-0.26458332px;word-spacing:0px;fill:#c78e63;fill-opacity:1;stroke:none;stroke-width:0.26458332px;stroke-linecap:butt;stroke-linejoin:miter;stroke-opacity:1"
       id="path909"
       inkscape:connector-curvature="0" />
    <path
       d="m 35.192641,6.734022 h -1.18534 v 4.053416 c 0,1.04775 0.51859,1.672167 1.60867,1.672167 0.65617,0 1.34408,-0.296334 1.75683,-0.85725 l 0.0741,0.719666 h 1.02659 V 6.734022 h -1.18534 v 4.042833 c -0.27516,0.433916 -0.78316,0.783166 -1.30175,0.783166 -0.52916,0 -0.79375,-0.264583 -0.79375,-0.92075 z"
       style="font-style:normal;font-variant:normal;font-weight:500;font-stretch:normal;font-size:medium;line-height:125%;font-family:'Fira Code';-inkscape-font-specification:'Fira Code Medium';letter-spacing:-0.26458332px;word-spacing:0px;fill:#c78e63;fill-opacity:1;stroke:none;stroke-width:0.26458332px;stroke-linecap:butt;stroke-linejoin:miter;stroke-opacity:1"
       id="path911"
       inkscape:connector-curvature="0" />
    <path
       d="m 43.369421,4.352772 v 2.846916 c -0.35983,-0.402166 -0.8255,-0.613833 -1.40758,-0.613833 -1.37584,0 -2.21192,1.23825 -2.21192,2.942166 0,1.756834 0.66675,2.931584 2.10608,2.931584 0.65617,0 1.19592,-0.296334 1.56634,-0.8255 l 0.0847,0.687916 h 1.04775 V 4.490355 Z m -1.10067,3.14325 c 0.45509,0 0.8255,0.232833 1.10067,0.624416 v 2.63525 c -0.27517,0.4445 -0.66675,0.804333 -1.19592,0.804333 -0.74083,0 -1.16416,-0.60325 -1.16416,-2.032 0,-1.396999 0.46566,-2.031999 1.25941,-2.031999 z"
       style="font-style:normal;font-variant:normal;font-weight:500;font-stretch:normal;font-size:medium;line-height:125%;font-family:'Fira Code';-inkscape-font-specification:'Fira Code Medium';letter-spacing:-0.26458332px;word-spacing:0px;fill:#e6bb91;fill-opacity:1;stroke:none;stroke-width:0.26458332px;stroke-linecap:butt;stroke-linejoin:miter;stroke-opacity:1"
       id="path913"
       inkscape:connector-curvature="0" />
    <path
       d="m 47.154121,9.909021 h 3.70416 c 0.0212,-0.137583 0.0317,-0.338666 0.0317,-0.529166 0,-1.735667 -0.93133,-2.794 -2.413,-2.794 -1.5875,0 -2.55058,1.27 -2.55058,2.942166 0,1.74625 0.9525,2.931584 2.69875,2.931584 0.78317,0 1.51342,-0.264584 2.032,-0.687917 l -0.508,-0.719667 c -0.47625,0.3175 -0.93133,0.486834 -1.47108,0.486834 -0.80434,0 -1.44992,-0.486834 -1.524,-1.629834 z m 1.3335,-2.444749 c 0.79375,0 1.22766,0.582083 1.24883,1.640416 h -2.59292 c 0.0741,-1.121833 0.60325,-1.640416 1.34409,-1.640416 z"
       style="font-style:normal;font-variant:normal;font-weight:500;font-stretch:normal;font-size:medium;line-height:125%;font-family:'Fira Code';-inkscape-font-specification:'Fira Code Medium';letter-spacing:-0.26458332px;word-spacing:0px;fill:#ffdcb9;fill-opacity:1;stroke:none;stroke-width:0.26458332px;stroke-linecap:butt;stroke-linejoin:miter;stroke-opacity:1"
       id="path915"
       inkscape:connector-curvature="0" />
  </g>
</svg>
