<?xml version="1.0" encoding="UTF-8"?>
<svg width="272px" height="262px" viewBox="0 0 272 262" version="1.1" xmlns="http://www.w3.org/2000/svg" xmlns:xlink="http://www.w3.org/1999/xlink" xmlns:sketch="http://www.bohemiancoding.com/sketch/ns">
    <!-- Generator: Sketch 3.4.2 (15855) - http://www.bohemiancoding.com/sketch -->
    <title>cpponsea-logo-text</title>
    <desc>Created with Sketch.</desc>
    <defs></defs>
    <g id="Page-1" stroke="none" stroke-width="1" fill="none" fill-rule="evenodd" sketch:type="MSPage">
        <g id="cpponsea-logo-text" sketch:type="MSLayerGroup">
            <g id="cpponsea-logo" sketch:type="MSShapeGroup">
                <g id="C++-Pixels" transform="translate(2.000000, 0.000000)">
                    <rect id="Rectangle-1" fill="#FFDB31" x="0" y="0" width="38.5714286" height="40.149999"></rect>
                    <rect id="Rectangle-1" fill="#FB8A24" x="0" y="40.149999" width="38.5714286" height="40.149999"></rect>
                    <rect id="Rectangle-1" fill="#FFDB31" x="0" y="80.299998" width="38.5714286" height="40.149999"></rect>
                    <rect id="Rectangle-1" fill="#FCB52B" x="38.5714286" y="0" width="38.5714286" height="40.149999"></rect>
                    <rect id="Rectangle-1" fill="#FDB52B" x="38.5714286" y="80.299998" width="38.5714286" height="40.149999"></rect>
                    <rect id="Rectangle-1" fill="#FCB52B" x="231.428571" y="40.149999" width="38.5714286" height="40.149999"></rect>
                    <rect id="Rectangle-1" fill="#F98724" x="192.857143" y="40.149999" width="38.5714286" height="40.149999"></rect>
                    <rect id="Rectangle-1" fill="#FFDA32" x="115.714286" y="0" width="38.5714286" height="40.149999"></rect>
                    <rect id="Rectangle-1" fill="#FFDA32" x="115.714286" y="80.299998" width="38.5714286" height="40.149999"></rect>
                    <rect id="Rectangle-1" fill="#FCB52B" x="154.285714" y="40.149999" width="38.5714286" height="40.149999"></rect>
                    <rect id="Rectangle-1" fill="#F4D131" x="192.857143" y="0" width="38.5714286" height="40.149999"></rect>
                    <rect id="Rectangle-1" fill="#F2D22F" x="192.857143" y="80.299998" width="38.5714286" height="40.149999"></rect>
                </g>
                <path d="M202.376101,225.001355 C187.886909,225.158868 180.867601,238.995807 168.687151,239.713379 C156.50336,240.431147 150.438189,225.166838 135.0018,225.001355 C120.512607,225.158868 113.493299,238.995807 101.312849,239.713379 C89.1290585,240.431147 83.0638869,225.166838 67.6274981,225.001355 C53.1383054,225.158868 46.1189976,238.995807 33.9385475,239.713379 C21.688362,240.435059 15.6236634,225 9.09514396e-08,225 C5.29306479e-08,225 -9.31638524e-08,248 9.09514396e-08,248 C0.247513465,248 0.495972975,248.008181 0.745369671,248.024138 C10.5439995,248.651063 21.789318,261.280273 33.9385475,261.280273 C46.2956996,261.280273 57.0752715,248.21509 67.6178624,248.00262 C67.7847065,248.006195 67.9519771,248.013409 68.1196713,248.024138 C77.9183012,248.651063 89.1636197,261.280273 101.312849,261.280273 C113.670001,261.280273 124.449573,248.21509 134.992164,248.00262 C135.159008,248.006195 135.326279,248.013409 135.493973,248.024138 C145.292603,248.651063 156.537921,261.280273 168.687151,261.280273 C181.044303,261.280273 191.823875,248.21509 202.366466,248.00262 C202.53331,248.006195 202.70058,248.013409 202.868275,248.024138 C212.666905,248.651063 223.912223,261.280273 236.061453,261.280273 C248.519907,261.280273 259.374809,247.999999 270,248 C270,248 270,225 270,225 C255.341415,225 248.311638,238.991699 236.061453,239.713379 C223.877662,240.431147 217.81249,225.166838 202.376101,225.001355 Z" id="Path-15" fill="#5096E6"></path>
                <path d="M202.376101,183.001355 C187.886909,183.158868 180.867601,196.995807 168.687151,197.713379 C156.50336,198.431147 150.438189,183.166838 135.0018,183.001355 C120.512607,183.158868 113.493299,196.995807 101.312849,197.713379 C89.1290585,198.431147 83.0638869,183.166838 67.6274981,183.001355 C53.1383054,183.158868 46.1189976,196.995807 33.9385475,197.713379 C21.688362,198.435059 15.6236634,183 9.09514396e-08,183 C5.29306479e-08,183 -9.31638524e-08,206 9.09514396e-08,206 C0.247513465,206 0.495972975,206.008181 0.745369671,206.024138 C10.5439995,206.651063 21.789318,219.280273 33.9385475,219.280273 C46.2956996,219.280273 57.0752715,206.21509 67.6178624,206.00262 C67.7847065,206.006195 67.9519771,206.013409 68.1196713,206.024138 C77.9183012,206.651063 89.1636197,219.280273 101.312849,219.280273 C113.670001,219.280273 124.449573,206.21509 134.992164,206.00262 C135.159008,206.006195 135.326279,206.013409 135.493973,206.024138 C145.292603,206.651063 156.537921,219.280273 168.687151,219.280273 C181.044303,219.280273 191.823875,206.21509 202.366466,206.00262 C202.53331,206.006195 202.70058,206.013409 202.868275,206.024138 C212.666905,206.651063 223.912223,219.280273 236.061453,219.280273 C248.519907,219.280273 259.374809,205.999999 270,206 C270,206 270,183 270,183 C255.341415,183 248.311638,196.991699 236.061453,197.713379 C223.877662,198.431147 217.81249,183.166838 202.376101,183.001355 Z" id="Path-15" fill="#7CBEF8"></path>
            </g>
            <path d="M23.664,162.668 C22.5986613,163.892006 21.2840078,164.860996 19.72,165.575 C18.1559922,166.289004 16.3540102,166.646 14.314,166.646 C12.455324,166.646 10.7383412,166.340003 9.163,165.728 C7.58765879,165.115997 6.22200578,164.249006 5.066,163.127 C3.90999422,162.004994 3.00333662,160.662008 2.346,159.098 C1.68866338,157.533992 1.36,155.811343 1.36,153.93 C1.36,152.003324 1.69432999,150.258008 2.363,148.694 C3.03167001,147.129992 3.95532744,145.798339 5.134,144.699 C6.31267256,143.599661 7.6953254,142.755336 9.282,142.166 C10.8686746,141.576664 12.5799908,141.282 14.416,141.282 C16.1160085,141.282 17.7876584,141.58233 19.431,142.183 C21.0743415,142.78367 22.4059949,143.661994 23.426,144.818 L19.482,148.762 C18.9379973,148.013996 18.2240044,147.458668 17.34,147.096 C16.4559956,146.733332 15.549338,146.552 14.62,146.552 C13.5999949,146.552 12.6650042,146.738998 11.815,147.113 C10.9649957,147.487002 10.2340031,148.002663 9.622,148.66 C9.00999694,149.317337 8.5340017,150.093662 8.194,150.989 C7.8539983,151.884338 7.684,152.864661 7.684,153.93 C7.684,155.018005 7.8539983,156.015329 8.194,156.922 C8.5340017,157.828671 9.00433033,158.604997 9.605,159.251 C10.2056697,159.897003 10.9253291,160.401332 11.764,160.764 C12.6026709,161.126668 13.5206617,161.308 14.518,161.308 C15.6740058,161.308 16.6826624,161.081336 17.544,160.628 C18.4053376,160.174664 19.0966641,159.585337 19.618,158.86 L23.664,162.668 Z" id="C" fill="#5096E6" sketch:type="MSShapeGroup"></path>
            <path d="M67.566,157.84 L67.566,164.946 L63.146,164.946 L63.146,157.84 L55.904,157.84 L55.904,153.556 L63.112,153.556 L63.112,146.45 L67.532,146.45 L67.532,153.556 L74.774,153.556 L74.774,157.84 L67.566,157.84 Z" id="+" fill="#5096E6" sketch:type="MSShapeGroup"></path>
            <path d="M40.566,162.84 L40.566,169.946 L36.146,169.946 L36.146,162.84 L28.904,162.84 L28.904,158.556 L36.112,158.556 L36.112,151.45 L40.532,151.45 L40.532,158.556 L47.774,158.556 L47.774,162.84 L40.566,162.84 Z" id="+" fill="#5096E6" sketch:type="MSShapeGroup"></path>
            <path d="M133.128,157.466 C133.128,158.848674 132.878669,160.100994 132.38,161.223 C131.881331,162.345006 131.201338,163.296996 130.34,164.079 C129.478662,164.861004 128.481339,165.467331 127.348,165.898 C126.214661,166.328669 125.002006,166.544 123.71,166.544 C122.44066,166.544 121.233672,166.328669 120.089,165.898 C118.944328,165.467331 117.947004,164.861004 117.097,164.079 C116.246996,163.296996 115.572669,162.345006 115.074,161.223 C114.575331,160.100994 114.326,158.848674 114.326,157.466 C114.326,156.083326 114.575331,154.836672 115.074,153.726 C115.572669,152.615328 116.246996,151.674671 117.097,150.904 C117.947004,150.133329 118.944328,149.544002 120.089,149.136 C121.233672,148.727998 122.44066,148.524 123.71,148.524 C125.002006,148.524 126.214661,148.727998 127.348,149.136 C128.481339,149.544002 129.478662,150.133329 130.34,150.904 C131.201338,151.674671 131.881331,152.615328 132.38,153.726 C132.878669,154.836672 133.128,156.083326 133.128,157.466 L133.128,157.466 Z M127.756,157.466 C127.756,156.921997 127.665334,156.389336 127.484,155.868 C127.302666,155.346664 127.042002,154.887669 126.702,154.491 C126.361998,154.094331 125.942669,153.771335 125.444,153.522 C124.945331,153.272665 124.367337,153.148 123.71,153.148 C123.052663,153.148 122.474669,153.272665 121.976,153.522 C121.477331,153.771335 121.063668,154.094331 120.735,154.491 C120.406332,154.887669 120.157001,155.346664 119.987,155.868 C119.816999,156.389336 119.732,156.921997 119.732,157.466 C119.732,158.010003 119.816999,158.542664 119.987,159.064 C120.157001,159.585336 120.411998,160.055665 120.752,160.475 C121.092002,160.894335 121.511331,161.228665 122.01,161.478 C122.508669,161.727335 123.086663,161.852 123.744,161.852 C124.401337,161.852 124.979331,161.727335 125.478,161.478 C125.976669,161.228665 126.395998,160.894335 126.736,160.475 C127.076002,160.055665 127.330999,159.585336 127.501,159.064 C127.671001,158.542664 127.756,158.010003 127.756,157.466 L127.756,157.466 Z" id="o" fill="#5096E6" sketch:type="MSShapeGroup"></path>
            <path d="M153.294,166 L153.294,156.752 C153.294,156.275998 153.254334,155.822669 153.175,155.392 C153.095666,154.961331 152.965334,154.581668 152.784,154.253 C152.602666,153.924332 152.347668,153.663668 152.019,153.471 C151.690332,153.278332 151.276669,153.182 150.778,153.182 C150.279331,153.182 149.843002,153.278332 149.469,153.471 C149.094998,153.663668 148.783335,153.929998 148.534,154.27 C148.284665,154.610002 148.097667,155.000998 147.973,155.443 C147.848333,155.885002 147.786,156.343998 147.786,156.82 L147.786,166 L142.176,166 L142.176,149.068 L147.582,149.068 L147.582,151.414 L147.65,151.414 C147.854001,151.051332 148.120332,150.694335 148.449,150.343 C148.777668,149.991665 149.162998,149.691335 149.605,149.442 C150.047002,149.192665 150.528664,148.988667 151.05,148.83 C151.571336,148.671333 152.126664,148.592 152.716,148.592 C153.849339,148.592 154.812663,148.795998 155.606,149.204 C156.399337,149.612002 157.039664,150.138997 157.527,150.785 C158.014336,151.431003 158.365666,152.173329 158.581,153.012 C158.796334,153.850671 158.904,154.689329 158.904,155.528 L158.904,166 L153.294,166 Z" id="n" fill="#5096E6" sketch:type="MSShapeGroup"></path>
            <path d="M213.198,148.184 C212.699331,147.54933 212.047671,147.045002 211.243,146.671 C210.438329,146.296998 209.662004,146.11 208.914,146.11 C208.528665,146.11 208.137669,146.144 207.741,146.212 C207.344331,146.28 206.987335,146.410332 206.67,146.603 C206.352665,146.795668 206.086334,147.044998 205.871,147.351 C205.655666,147.657002 205.548,148.047998 205.548,148.524 C205.548,148.932002 205.632999,149.271999 205.803,149.544 C205.973001,149.816001 206.222332,150.053999 206.551,150.258 C206.879668,150.462001 207.270664,150.648999 207.724,150.819 C208.177336,150.989001 208.687331,151.164666 209.254,151.346 C210.070004,151.618001 210.919996,151.918332 211.804,152.247 C212.688004,152.575668 213.492663,153.011997 214.218,153.556 C214.943337,154.100003 215.543998,154.774329 216.02,155.579 C216.496002,156.383671 216.734,157.386661 216.734,158.588 C216.734,159.970674 216.479003,161.166328 215.969,162.175 C215.458997,163.183672 214.773338,164.016663 213.912,164.674 C213.050662,165.331337 212.064672,165.818665 210.954,166.136 C209.843328,166.453335 208.698673,166.612 207.52,166.612 C205.797325,166.612 204.131341,166.31167 202.522,165.711 C200.912659,165.11033 199.575339,164.254672 198.51,163.144 L202.318,159.268 C202.907336,159.993337 203.683662,160.599664 204.647,161.087 C205.610338,161.574336 206.567995,161.818 207.52,161.818 C207.950669,161.818 208.369998,161.772667 208.778,161.682 C209.186002,161.591333 209.542998,161.444001 209.849,161.24 C210.155002,161.035999 210.398666,160.764002 210.58,160.424 C210.761334,160.083998 210.852,159.676002 210.852,159.2 C210.852,158.746664 210.738668,158.361335 210.512,158.044 C210.285332,157.726665 209.962335,157.437668 209.543,157.177 C209.123665,156.916332 208.602336,156.678334 207.979,156.463 C207.355664,156.247666 206.647337,156.015335 205.854,155.766 C205.083329,155.516665 204.32967,155.222002 203.593,154.882 C202.85633,154.541998 202.199003,154.105669 201.621,153.573 C201.042997,153.040331 200.578335,152.394337 200.227,151.635 C199.875665,150.875663 199.7,149.952005 199.7,148.864 C199.7,147.52666 199.971997,146.382005 200.516,145.43 C201.060003,144.477995 201.773996,143.696003 202.658,143.084 C203.542004,142.471997 204.539328,142.024335 205.65,141.741 C206.760672,141.457665 207.882661,141.316 209.016,141.316 C210.376007,141.316 211.764326,141.565331 213.181,142.064 C214.597674,142.562669 215.838661,143.299328 216.904,144.274 L213.198,148.184 Z" id="S" fill="#5096E6" sketch:type="MSShapeGroup"></path>
            <path d="M238.838,159.596 C238.838,158.711996 238.560336,157.95267 238.005,157.318 C237.449664,156.68333 236.616672,156.366 235.506,156.366 C234.961997,156.366 234.463336,156.450999 234.01,156.621 C233.556664,156.791001 233.160002,157.023332 232.82,157.318 C232.479998,157.612668 232.208001,157.958331 232.004,158.355 C231.799999,158.751669 231.686667,159.165331 231.664,159.596 L238.838,159.596 Z M243.972,161.738 L243.972,162.418 C243.972,162.644668 243.960667,162.859999 243.938,163.064 L231.664,163.064 C231.709334,163.540002 231.850999,163.970665 232.089,164.356 C232.327001,164.741335 232.632998,165.075665 233.007,165.359 C233.381002,165.642335 233.800331,165.863333 234.265,166.022 C234.729669,166.180667 235.211331,166.26 235.71,166.26 C236.594004,166.26 237.341997,166.095668 237.954,165.767 C238.566003,165.438332 239.064665,165.013336 239.45,164.492 L243.326,166.94 C242.532663,168.096006 241.48434,168.985664 240.181,169.609 C238.87766,170.232336 237.364675,170.544 235.642,170.544 C234.37266,170.544 233.171339,170.345669 232.038,169.949 C230.904661,169.552331 229.913004,168.974337 229.063,168.215 C228.212996,167.455663 227.544336,166.520672 227.057,165.41 C226.569664,164.299328 226.326,163.030007 226.326,161.602 C226.326,160.219326 226.563998,158.967006 227.04,157.845 C227.516002,156.722994 228.161996,155.771004 228.978,154.989 C229.794004,154.206996 230.757328,153.600669 231.868,153.17 C232.978672,152.739331 234.179994,152.524 235.472,152.524 C236.718673,152.524 237.863328,152.733665 238.906,153.153 C239.948672,153.572335 240.843996,154.178663 241.592,154.972 C242.340004,155.765337 242.923665,156.728661 243.343,157.862 C243.762335,158.995339 243.972,160.287326 243.972,161.738 L243.972,161.738 Z" id="e" fill="#5096E6" sketch:type="MSShapeGroup"></path>
            <path d="M264.172,158.622 L263.458,158.622 C262.845997,158.622 262.228336,158.650333 261.605,158.707 C260.981664,158.763667 260.426336,158.871333 259.939,159.03 C259.451664,159.188667 259.049335,159.420998 258.732,159.727 C258.414665,160.033002 258.256,160.435331 258.256,160.934 C258.256,161.251335 258.329666,161.523332 258.477,161.75 C258.624334,161.976668 258.811332,162.157999 259.038,162.294 C259.264668,162.430001 259.525332,162.526333 259.82,162.583 C260.114668,162.639667 260.397999,162.668 260.67,162.668 C261.803339,162.668 262.67033,162.356336 263.271,161.733 C263.87167,161.109664 264.172,160.265339 264.172,159.2 L264.172,158.622 Z M253.938,151.38 C254.935338,150.427995 256.096993,149.714002 257.423,149.238 C258.749007,148.761998 260.103326,148.524 261.486,148.524 C262.914007,148.524 264.120995,148.699665 265.107,149.051 C266.093005,149.402335 266.891997,149.94633 267.504,150.683 C268.116003,151.41967 268.563665,152.348994 268.847,153.471 C269.130335,154.593006 269.272,155.924659 269.272,157.466 L269.272,166 L264.172,166 L264.172,164.198 L264.07,164.198 C263.639331,164.90067 262.987671,165.444665 262.115,165.83 C261.242329,166.215335 260.296005,166.408 259.276,166.408 C258.595997,166.408 257.893337,166.317334 257.168,166.136 C256.442663,165.954666 255.77967,165.660002 255.179,165.252 C254.57833,164.843998 254.085335,164.300003 253.7,163.62 C253.314665,162.939997 253.122,162.101338 253.122,161.104 C253.122,159.879994 253.45633,158.894004 254.125,158.146 C254.79367,157.397996 255.654995,156.820002 256.709,156.412 C257.763005,156.003998 258.935994,155.732001 260.228,155.596 C261.520006,155.459999 262.777994,155.392 264.002,155.392 L264.002,155.12 C264.002,154.281329 263.707336,153.663669 263.118,153.267 C262.528664,152.870331 261.803338,152.672 260.942,152.672 C260.148663,152.672 259.38367,152.841998 258.647,153.182 C257.91033,153.522002 257.281336,153.929998 256.76,154.406 L253.938,151.38 Z" id="a" fill="#5096E6" sketch:type="MSShapeGroup"></path>
        </g>
    </g>
</svg>