<?xml version="1.0" encoding="UTF-8" standalone="no"?>
<svg
   xmlns:sketch="http://www.bohemiancoding.com/sketch/ns"
   xmlns:dc="http://purl.org/dc/elements/1.1/"
   xmlns:cc="http://creativecommons.org/ns#"
   xmlns:rdf="http://www.w3.org/1999/02/22-rdf-syntax-ns#"
   xmlns:svg="http://www.w3.org/2000/svg"
   xmlns="http://www.w3.org/2000/svg"
   xmlns:sodipodi="http://sodipodi.sourceforge.net/DTD/sodipodi-0.dtd"
   xmlns:inkscape="http://www.inkscape.org/namespaces/inkscape"
   inkscape:export-ydpi="96"
   inkscape:export-xdpi="96"
   inkscape:export-filename="/Users/richard/dev/github/softwarebear/include-cpp/assets/web/pairings/C++OnSea/with_rainbow_include_for_dark.png"
   width="272px"
   height="262px"
   viewBox="0 0 272 262"
   version="1.1"
   id="svg47"
   sodipodi:docname="with_rainbow_include_for_dark.svg"
   inkscape:version="1.0beta2 (2b71d25, 2019-12-03)">
  <metadata
     id="metadata51">
    <rdf:RDF>
      <cc:Work
         rdf:about="">
        <dc:format>image/svg+xml</dc:format>
        <dc:type
           rdf:resource="http://purl.org/dc/dcmitype/StillImage" />
        <dc:title>cpponsea-logo</dc:title>
      </cc:Work>
    </rdf:RDF>
  </metadata>
  <sodipodi:namedview
     pagecolor="#ffffff"
     bordercolor="#666666"
     inkscape:document-rotation="0"
     borderopacity="1"
     objecttolerance="10"
     gridtolerance="10"
     guidetolerance="10"
     inkscape:pageopacity="0"
     inkscape:pageshadow="2"
     inkscape:window-width="1440"
     inkscape:window-height="874"
     id="namedview49"
     showgrid="false"
     inkscape:zoom="1.5554586"
     inkscape:cx="199.32177"
     inkscape:cy="170.65943"
     inkscape:window-x="0"
     inkscape:window-y="26"
     inkscape:window-maximized="0"
     inkscape:current-layer="svg47" />
  <!-- Generator: Sketch 3.4.2 (15855) - http://www.bohemiancoding.com/sketch -->
  <title
     id="title10">cpponsea-logo</title>
  <desc
     id="desc12">Created with Sketch.</desc>
  <rect
     inkscape:export-ydpi="699.86102"
     inkscape:export-xdpi="699.86102"
     style="fill:#000000;stroke-width:1.28123;stop-color:#000000"
     id="rect71"
     width="600"
     height="400"
     x="-42.415062"
     y="-34.036713" />
  <defs
     id="defs14">
    <linearGradient
       id="SVGID_1_"
       gradientUnits="userSpaceOnUse"
       x1="249.7"
       y1="-6379.4976"
       x2="249.7"
       y2="-6846.1475"
       gradientTransform="matrix(1,0,0,-1,0,-6379.4976)">
      <stop
         offset="0"
         style="stop-color:#A7489A"
         id="stop57" />
      <stop
         offset="0.1411"
         style="stop-color:#734DA0"
         id="stop59" />
      <stop
         offset="0.2871"
         style="stop-color:#43B8CA"
         id="stop61" />
      <stop
         offset="0.3861"
         style="stop-color:#1294AE"
         id="stop63" />
      <stop
         offset="0.521"
         style="stop-color:#6A9B40"
         id="stop65" />
      <stop
         offset="0.6061"
         style="stop-color:#E5DC1D"
         id="stop67" />
      <stop
         offset="0.7833"
         style="stop-color:#E79525"
         id="stop69" />
      <stop
         offset="0.9541"
         style="stop-color:#D83E3E"
         id="stop71" />
    </linearGradient>
    <linearGradient
       id="SVGID_1_-5"
       gradientUnits="userSpaceOnUse"
       x1="249.7"
       y1="-6379.4976"
       x2="249.7"
       y2="-6846.1475"
       gradientTransform="matrix(1,0,0,-1,0,-6379.4976)">
      <stop
         offset="0"
         style="stop-color:#A7489A"
         id="stop57-9" />
      <stop
         offset="0.1411"
         style="stop-color:#734DA0"
         id="stop59-4" />
      <stop
         offset="0.2871"
         style="stop-color:#43B8CA"
         id="stop61-3" />
      <stop
         offset="0.3861"
         style="stop-color:#1294AE"
         id="stop63-9" />
      <stop
         offset="0.521"
         style="stop-color:#6A9B40"
         id="stop65-0" />
      <stop
         offset="0.6061"
         style="stop-color:#E5DC1D"
         id="stop67-5" />
      <stop
         offset="0.7833"
         style="stop-color:#E79525"
         id="stop69-6" />
      <stop
         offset="0.9541"
         style="stop-color:#D83E3E"
         id="stop71-3" />
    </linearGradient>
  </defs>
  <g
     transform="matrix(0.85571071,0,0,0.85571071,4.1796677,51.651085)"
     id="g1549">
    <g
       id="g592"
       transform="matrix(0.59920776,0,0,0.59920776,280.46218,39.849455)"
       inkscape:export-xdpi="699.86102"
       inkscape:export-ydpi="699.86102">
      <g
         id="text899"
         transform="matrix(2.1605298,0,0,2.1606223,3.0940287,286.24398)">
        <path
           inkscape:connector-curvature="0"
           d="m 176.023,16.898 -11.611,7.17 v 2.91 l 11.521,7.17 1.65,-2.43 -10.29,-6.18 10.29,-6.21 z"
           fill="#ffffff"
           id="path4527" />
        <path
           inkscape:connector-curvature="0"
           d="m 189.983,13.808 c -5.04,0 -9.18,3.78 -9.18,10.74 0,7.02 3.96,10.77 9.239,10.77 3.031,0 5.101,-1.109 6.48,-2.46 l -1.68,-2.13 c -1.141,0.9 -2.46,1.771 -4.68,1.771 -3.271,0 -5.73,-2.221 -5.73,-7.95 0,-5.85 2.609,-8.01 5.7,-8.01 1.62,0 3.03,0.51 4.29,1.529 l 1.8,-2.159 c -1.68,-1.351 -3.419,-2.101 -6.239,-2.101 z"
           fill="#ffffff"
           id="path4529" />
        <path
           inkscape:connector-curvature="0"
           d="m 206.944,18.188 h -2.94 v 6.061 h -5.91 v 2.67 h 5.91 v 6.06 h 2.94 v -6.06 h 5.97 v -2.67 h -5.97 z"
           fill="#ffffff"
           id="path4531" />
        <path
           inkscape:connector-curvature="0"
           d="m 224.205,18.188 h -2.939 v 6.061 h -5.91 v 2.67 h 5.91 v 6.06 h 2.939 v -6.06 h 5.971 v -2.67 h -5.971 z"
           fill="#ffffff"
           id="path4533" />
        <path
           inkscape:connector-curvature="0"
           d="m 235.015,16.898 -1.56,2.49 10.26,6.15 -10.26,6.21 1.649,2.399 11.521,-7.17 v -2.91 z"
           fill="#ffffff"
           id="path4535" />
      </g>
      <g
         transform="matrix(2.1605298,0,0,2.1606223,-123.33909,355.25208)"
         id="g917">
        <path
           inkscape:connector-curvature="0"
           d="m 80.982,-10.57 h 2.49 v -2.431 h -2.19 l 0.66,-4.71 h -2.82 l -0.63,4.71 h -3.81 l 0.66,-4.71 h -2.82 l -0.63,4.71 h -2.55 v 2.431 h 2.22 l -0.87,6.359 h -2.46 v 2.4 h 2.16 l -0.63,4.8 h 2.82 l 0.63,-4.8 h 3.81 l -0.63,4.8 h 2.79 l 0.63,-4.8 h 2.55 v -2.4 h -2.22 z m -7.47,6.359 0.84,-6.359 h 3.84 l -0.87,6.359 z"
           fill="#a7489a"
           id="path901" />
        <path
           inkscape:connector-curvature="0"
           d="m 93.09,-20.621 c -1.32,0 -2.19,0.931 -2.19,2.131 0,1.199 0.87,2.1 2.19,2.1 1.29,0 2.19,-0.9 2.19,-2.1 0,-1.2 -0.9,-2.131 -2.19,-2.131 z m 2.31,7.771 h -7.92 v 2.46 h 4.56 V 0.53 H 87.33 V 2.99 H 99.72 V 0.53 H 95.4 Z"
           fill="#734da0"
           id="path903" />
        <path
           inkscape:connector-curvature="0"
           d="m 103.998,2.989 h 3.36 v -11.37 c 0.84,-1.2 2.16,-2.31 3.72,-2.31 1.92,0 2.25,1.05 2.25,3.81 v 9.87 h 3.36 V -8.56 c 0,-2.97 -1.47,-4.71 -4.41,-4.71 -1.92,0 -3.81,0.87 -5.13,2.49 l -0.24,-2.07 h -2.91 z"
           fill="#43b8ca"
           id="path905" />
        <path
           inkscape:connector-curvature="0"
           d="m 128.887,0.619 c -2.46,0 -4.26,-1.5 -4.26,-5.46 0,-3.96 1.74,-5.729 4.26,-5.729 1.35,0 2.64,0.479 3.87,1.319 l 1.56,-2.1 c -1.53,-1.26 -3.33,-1.92 -5.49,-1.92 -4.89,0 -7.77,3.6 -7.77,8.43 0,4.95 2.82,8.22 7.71,8.22 2.1,0 4.17,-0.779 5.55,-1.949 l -1.53,-2.16 c -1.17,0.78 -2.431,1.349 -3.9,1.349 z"
           fill="#1294ae"
           id="path907" />
        <path
           inkscape:connector-curvature="0"
           d="m 144.64,-19.211 h -8.13 v 2.46 h 4.77 v 15.12 c 0,3.12 1.86,5.01 5.04,5.01 1.77,0 3.15,-0.39 4.08,-0.899 l -0.84,-2.34 c -0.81,0.33 -1.62,0.54 -2.52,0.54 -1.41,0 -2.4,-0.54 -2.4,-2.011 z"
           fill="#6a9b40"
           id="path909" />
        <path
           inkscape:connector-curvature="0"
           d="m 158.278,-12.85 h -3.36 v 11.49 c 0,2.97 1.47,4.739 4.56,4.739 1.86,0 3.81,-0.84 4.98,-2.43 l 0.21,2.04 h 2.91 v -15.84 h -3.36 v 11.46 c -0.78,1.229 -2.22,2.22 -3.69,2.22 -1.5,0 -2.25,-0.75 -2.25,-2.609 z"
           fill="#e5dc1d"
           id="path911" />
        <path
           inkscape:connector-curvature="0"
           d="m 181.457,-19.6 v 8.07 c -1.02,-1.141 -2.34,-1.74 -3.99,-1.74 -3.9,0 -6.27,3.51 -6.27,8.34 0,4.98 1.89,8.31 5.97,8.31 1.86,0 3.39,-0.84 4.44,-2.34 l 0.24,1.95 h 2.97 v -22.2 z m -3.121,8.91 c 1.29,0 2.34,0.66 3.12,1.77 v 7.471 c -0.78,1.26 -1.89,2.279 -3.39,2.279 -2.1,0 -3.3,-1.71 -3.3,-5.76 0.001,-3.96 1.32,-5.76 3.57,-5.76 z"
           fill="#e79525"
           id="path913" />
        <path
           inkscape:connector-curvature="0"
           d="m 192.185,-3.85 h 10.5 c 0.06,-0.39 0.09,-0.96 0.09,-1.5 0,-4.92 -2.641,-7.92 -6.84,-7.92 -4.5,0 -7.23,3.6 -7.23,8.34 0,4.95 2.7,8.31 7.65,8.31 2.22,0 4.289,-0.75 5.76,-1.949 l -1.439,-2.04 c -1.351,0.899 -2.641,1.38 -4.171,1.38 -2.281,-0.001 -4.111,-1.381 -4.32,-4.621 z m 3.779,-6.93 c 2.25,0 3.48,1.649 3.541,4.649 h -7.351 c 0.211,-3.179 1.711,-4.649 3.81,-4.649 z"
           fill="#d83e3e"
           id="path915" />
      </g>
    </g>
    <g
       sketch:type="MSPage"
       fill-rule="evenodd"
       fill="none"
       stroke-width="1"
       stroke="none"
       id="Page-1-3"
       transform="translate(-0.06386495,2.9919951)"
       inkscape:export-xdpi="699.86102"
       inkscape:export-ydpi="699.86102">
      <g
         sketch:type="MSLayerGroup"
         id="cpponsea-logo-text">
        <g
           sketch:type="MSShapeGroup"
           id="cpponsea-logo-8">
          <g
             transform="translate(2)"
             id="C++-Pixels-4">
            <rect
               height="40.149998"
               width="38.57143"
               y="0"
               x="0"
               fill="#FFDB31"
               id="Rectangle-1-8" />
            <rect
               height="40.149998"
               width="38.57143"
               y="40.149998"
               x="0"
               fill="#FB8A24"
               id="rect394" />
            <rect
               height="40.149998"
               width="38.57143"
               y="80.299995"
               x="0"
               fill="#FFDB31"
               id="rect396" />
            <rect
               height="40.149998"
               width="38.57143"
               y="0"
               x="38.57143"
               fill="#FCB52B"
               id="rect398" />
            <rect
               height="40.149998"
               width="38.57143"
               y="80.299995"
               x="38.57143"
               fill="#FDB52B"
               id="rect400" />
            <rect
               height="40.149998"
               width="38.57143"
               y="40.149998"
               x="231.42857"
               fill="#FCB52B"
               id="rect402" />
            <rect
               height="40.149998"
               width="38.57143"
               y="40.149998"
               x="192.85715"
               fill="#F98724"
               id="rect404" />
            <rect
               height="40.149998"
               width="38.57143"
               y="0"
               x="115.71429"
               fill="#FFDA32"
               id="rect406" />
            <rect
               height="40.149998"
               width="38.57143"
               y="80.299995"
               x="115.71429"
               fill="#FFDA32"
               id="rect408" />
            <rect
               height="40.149998"
               width="38.57143"
               y="40.149998"
               x="154.28572"
               fill="#FCB52B"
               id="rect410" />
            <rect
               height="40.149998"
               width="38.57143"
               y="0"
               x="192.85715"
               fill="#F4D131"
               id="rect412" />
            <rect
               height="40.149998"
               width="38.57143"
               y="80.299995"
               x="192.85715"
               fill="#F2D22F"
               id="rect414" />
          </g>
          <path
             fill="#5096E6"
             id="Path-15-0"
             d="m 202.3761,225.00135 c -14.48919,0.15752 -21.5085,13.99446 -33.68895,14.71203 -12.18379,0.71777 -18.24896,-14.54654 -33.68535,-14.71203 -14.48919,0.15752 -21.5085,13.99446 -33.68895,14.71203 -12.183792,0.71777 -18.248963,-14.54654 -33.685352,-14.71203 -14.489193,0.15752 -21.5085,13.99446 -33.688951,14.71203 C 21.688362,240.43506 15.623663,225 9.095144e-8,225 c -3.8020792e-8,0 -1.84115292e-7,23 0,23 C 0.24751346,248 0.49597297,248.00818 0.74536967,248.02414 10.544,248.65106 21.789318,261.28027 33.938547,261.28027 c 12.357153,0 23.136724,-13.06518 33.679315,-13.27765 0.166844,0.004 0.334115,0.0108 0.501809,0.0215 9.79863,0.62692 21.043949,13.25613 33.193179,13.25613 12.35715,0 23.13672,-13.06518 33.67931,-13.27765 0.16685,0.004 0.33412,0.0108 0.50181,0.0215 9.79863,0.62692 21.04395,13.25613 33.19318,13.25613 12.35715,0 23.13672,-13.06518 33.67932,-13.27765 0.16684,0.004 0.33411,0.0108 0.5018,0.0215 9.79864,0.62692 21.04395,13.25613 33.19318,13.25613 C 248.51991,261.28027 259.37481,248 270,248 c 0,0 0,-23 0,-23 -14.65859,0 -21.68836,13.9917 -33.93855,14.71338 -12.18379,0.71777 -18.24896,-14.54654 -33.68535,-14.71203 z"
             inkscape:connector-curvature="0" />
          <path
             fill="#7CBEF8"
             id="path418"
             d="m 202.3761,183.00135 c -14.48919,0.15752 -21.5085,13.99446 -33.68895,14.71203 -12.18379,0.71777 -18.24896,-14.54654 -33.68535,-14.71203 -14.48919,0.15752 -21.5085,13.99446 -33.68895,14.71203 -12.183792,0.71777 -18.248963,-14.54654 -33.685352,-14.71203 -14.489193,0.15752 -21.5085,13.99446 -33.688951,14.71203 C 21.688362,198.43506 15.623663,183 9.095144e-8,183 c -3.8020792e-8,0 -1.84115292e-7,23 0,23 C 0.24751346,206 0.49597297,206.00818 0.74536967,206.02414 10.544,206.65106 21.789318,219.28027 33.938547,219.28027 c 12.357153,0 23.136724,-13.06518 33.679315,-13.27765 0.166844,0.004 0.334115,0.0108 0.501809,0.0215 9.79863,0.62692 21.043949,13.25613 33.193179,13.25613 12.35715,0 23.13672,-13.06518 33.67931,-13.27765 0.16685,0.004 0.33412,0.0108 0.50181,0.0215 9.79863,0.62692 21.04395,13.25613 33.19318,13.25613 12.35715,0 23.13672,-13.06518 33.67932,-13.27765 0.16684,0.004 0.33411,0.0108 0.5018,0.0215 9.79864,0.62692 21.04395,13.25613 33.19318,13.25613 C 248.51991,219.28027 259.37481,206 270,206 c 0,0 0,-23 0,-23 -14.65859,0 -21.68836,13.9917 -33.93855,14.71338 -12.18379,0.71777 -18.24896,-14.54654 -33.68535,-14.71203 z"
             inkscape:connector-curvature="0" />
        </g>
        <path
           sketch:type="MSShapeGroup"
           fill="#5096E6"
           id="C"
           d="m 23.664,162.668 c -1.065339,1.22401 -2.379992,2.193 -3.944,2.907 -1.564008,0.714 -3.36599,1.071 -5.406,1.071 -1.858676,0 -3.575659,-0.306 -5.151,-0.918 -1.5753412,-0.612 -2.9409942,-1.47899 -4.097,-2.601 -1.1560058,-1.12201 -2.0626634,-2.46499 -2.72,-4.029 -0.6573366,-1.56401 -0.986,-3.28666 -0.986,-5.168 0,-1.92668 0.33433,-3.67199 1.003,-5.236 0.66867,-1.56401 1.5923274,-2.89566 2.771,-3.995 1.1786726,-1.09934 2.5613254,-1.94366 4.148,-2.533 1.586675,-0.58934 3.297991,-0.884 5.134,-0.884 1.700008,0 3.371658,0.30033 5.015,0.901 1.643341,0.60067 2.974995,1.47899 3.995,2.635 l -3.944,3.944 c -0.544003,-0.748 -1.257996,-1.30333 -2.142,-1.666 -0.884004,-0.36267 -1.790662,-0.544 -2.72,-0.544 -1.020005,0 -1.954996,0.187 -2.805,0.561 -0.850004,0.374 -1.580997,0.88966 -2.193,1.547 -0.6120031,0.65734 -1.0879983,1.43366 -1.428,2.329 -0.3400017,0.89534 -0.51,1.87566 -0.51,2.941 0,1.088 0.1699983,2.08533 0.51,2.992 0.3400017,0.90667 0.8103303,1.683 1.411,2.329 0.60067,0.646 1.320329,1.15033 2.159,1.513 0.838671,0.36267 1.756662,0.544 2.754,0.544 1.156006,0 2.164662,-0.22666 3.026,-0.68 0.861338,-0.45334 1.552664,-1.04266 2.074,-1.768 z"
           inkscape:connector-curvature="0" />
        <path
           sketch:type="MSShapeGroup"
           fill="#5096E6"
           id="+"
           d="m 67.566,157.84 v 7.106 h -4.42 v -7.106 h -7.242 v -4.284 h 7.208 v -7.106 h 4.42 v 7.106 h 7.242 v 4.284 z"
           inkscape:connector-curvature="0" />
        <path
           sketch:type="MSShapeGroup"
           fill="#5096E6"
           id="path423"
           d="m 40.566,162.84 v 7.106 h -4.42 v -7.106 h -7.242 v -4.284 h 7.208 v -7.106 h 4.42 v 7.106 h 7.242 v 4.284 z"
           inkscape:connector-curvature="0" />
        <path
           sketch:type="MSShapeGroup"
           fill="#5096E6"
           id="o"
           d="m 133.128,157.466 c 0,1.38267 -0.24933,2.63499 -0.748,3.757 -0.49867,1.12201 -1.17866,2.074 -2.04,2.856 -0.86134,0.782 -1.85866,1.38833 -2.992,1.819 -1.13334,0.43067 -2.34599,0.646 -3.638,0.646 -1.26934,0 -2.47633,-0.21533 -3.621,-0.646 -1.14467,-0.43067 -2.142,-1.037 -2.992,-1.819 -0.85,-0.782 -1.52433,-1.73399 -2.023,-2.856 -0.49867,-1.12201 -0.748,-2.37433 -0.748,-3.757 0,-1.38267 0.24933,-2.62933 0.748,-3.74 0.49867,-1.11067 1.173,-2.05133 2.023,-2.822 0.85,-0.77067 1.84733,-1.36 2.992,-1.768 1.14467,-0.408 2.35166,-0.612 3.621,-0.612 1.29201,0 2.50466,0.204 3.638,0.612 1.13334,0.408 2.13066,0.99733 2.992,1.768 0.86134,0.77067 1.54133,1.71133 2.04,2.822 0.49867,1.11067 0.748,2.35733 0.748,3.74 z m -5.372,0 c 0,-0.544 -0.0907,-1.07666 -0.272,-1.598 -0.18133,-0.52134 -0.442,-0.98033 -0.782,-1.377 -0.34,-0.39667 -0.75933,-0.71967 -1.258,-0.969 -0.49867,-0.24934 -1.07666,-0.374 -1.734,-0.374 -0.65734,0 -1.23533,0.12466 -1.734,0.374 -0.49867,0.24933 -0.91233,0.57233 -1.241,0.969 -0.32867,0.39667 -0.578,0.85566 -0.748,1.377 -0.17,0.52134 -0.255,1.054 -0.255,1.598 0,0.544 0.085,1.07666 0.255,1.598 0.17,0.52134 0.425,0.99166 0.765,1.411 0.34,0.41933 0.75933,0.75366 1.258,1.003 0.49867,0.24933 1.07666,0.374 1.734,0.374 0.65734,0 1.23533,-0.12467 1.734,-0.374 0.49867,-0.24934 0.918,-0.58367 1.258,-1.003 0.34,-0.41934 0.595,-0.88966 0.765,-1.411 0.17,-0.52134 0.255,-1.054 0.255,-1.598 z"
           inkscape:connector-curvature="0" />
        <path
           sketch:type="MSShapeGroup"
           fill="#5096E6"
           id="n"
           d="m 153.294,166 v -9.248 c 0,-0.476 -0.0397,-0.92933 -0.119,-1.36 -0.0793,-0.43067 -0.20967,-0.81033 -0.391,-1.139 -0.18133,-0.32867 -0.43633,-0.58933 -0.765,-0.782 -0.32867,-0.19267 -0.74233,-0.289 -1.241,-0.289 -0.49867,0 -0.935,0.0963 -1.309,0.289 -0.374,0.19267 -0.68567,0.459 -0.935,0.799 -0.24934,0.34 -0.43633,0.731 -0.561,1.173 -0.12467,0.442 -0.187,0.901 -0.187,1.377 V 166 h -5.61 v -16.932 h 5.406 v 2.346 h 0.068 c 0.204,-0.36267 0.47033,-0.71967 0.799,-1.071 0.32867,-0.35134 0.714,-0.65167 1.156,-0.901 0.442,-0.24934 0.92366,-0.45333 1.445,-0.612 0.52134,-0.15867 1.07666,-0.238 1.666,-0.238 1.13334,0 2.09666,0.204 2.89,0.612 0.79334,0.408 1.43366,0.935 1.921,1.581 0.48734,0.646 0.83867,1.38833 1.054,2.227 0.21533,0.83867 0.323,1.67733 0.323,2.516 V 166 Z"
           inkscape:connector-curvature="0" />
        <path
           sketch:type="MSShapeGroup"
           fill="#5096E6"
           id="S"
           d="m 213.198,148.184 c -0.49867,-0.63467 -1.15033,-1.139 -1.955,-1.513 -0.80467,-0.374 -1.581,-0.561 -2.329,-0.561 -0.38534,0 -0.77633,0.034 -1.173,0.102 -0.39667,0.068 -0.75367,0.19833 -1.071,0.391 -0.31734,0.19267 -0.58367,0.442 -0.799,0.748 -0.21533,0.306 -0.323,0.697 -0.323,1.173 0,0.408 0.085,0.748 0.255,1.02 0.17,0.272 0.41933,0.51 0.748,0.714 0.32867,0.204 0.71966,0.391 1.173,0.561 0.45334,0.17 0.96333,0.34567 1.53,0.527 0.816,0.272 1.666,0.57233 2.55,0.901 0.884,0.32867 1.68866,0.765 2.414,1.309 0.72534,0.544 1.326,1.21833 1.802,2.023 0.476,0.80467 0.714,1.80766 0.714,3.009 0,1.38267 -0.255,2.57833 -0.765,3.587 -0.51,1.00867 -1.19566,1.84166 -2.057,2.499 -0.86134,0.65734 -1.84733,1.14466 -2.958,1.462 -1.11067,0.31733 -2.25533,0.476 -3.434,0.476 -1.72268,0 -3.38866,-0.30033 -4.998,-0.901 -1.60934,-0.60067 -2.94666,-1.45633 -4.012,-2.567 l 3.808,-3.876 c 0.58934,0.72534 1.36566,1.33166 2.329,1.819 0.96334,0.48734 1.92099,0.731 2.873,0.731 0.43067,0 0.85,-0.0453 1.258,-0.136 0.408,-0.0907 0.765,-0.238 1.071,-0.442 0.306,-0.204 0.54967,-0.476 0.731,-0.816 0.18133,-0.34 0.272,-0.748 0.272,-1.224 0,-0.45334 -0.11333,-0.83867 -0.34,-1.156 -0.22667,-0.31734 -0.54967,-0.60633 -0.969,-0.867 -0.41934,-0.26067 -0.94066,-0.49867 -1.564,-0.714 -0.62334,-0.21533 -1.33166,-0.44767 -2.125,-0.697 -0.77067,-0.24934 -1.52433,-0.544 -2.261,-0.884 -0.73667,-0.34 -1.394,-0.77633 -1.972,-1.309 -0.578,-0.53267 -1.04267,-1.17866 -1.394,-1.938 -0.35134,-0.75934 -0.527,-1.68299 -0.527,-2.771 0,-1.33734 0.272,-2.482 0.816,-3.434 0.544,-0.95201 1.258,-1.734 2.142,-2.346 0.884,-0.612 1.88133,-1.05967 2.992,-1.343 1.11067,-0.28334 2.23266,-0.425 3.366,-0.425 1.36001,0 2.74833,0.24933 4.165,0.748 1.41667,0.49867 2.65766,1.23533 3.723,2.21 z"
           inkscape:connector-curvature="0" />
        <path
           sketch:type="MSShapeGroup"
           fill="#5096E6"
           id="e"
           d="m 238.838,159.596 c 0,-0.884 -0.27766,-1.64333 -0.833,-2.278 -0.55534,-0.63467 -1.38833,-0.952 -2.499,-0.952 -0.544,0 -1.04266,0.085 -1.496,0.255 -0.45334,0.17 -0.85,0.40233 -1.19,0.697 -0.34,0.29467 -0.612,0.64033 -0.816,1.037 -0.204,0.39667 -0.31733,0.81033 -0.34,1.241 z m 5.134,2.142 v 0.68 c 0,0.22667 -0.0113,0.442 -0.034,0.646 h -12.274 c 0.0453,0.476 0.187,0.90666 0.425,1.292 0.238,0.38533 0.544,0.71966 0.918,1.003 0.374,0.28333 0.79333,0.50433 1.258,0.663 0.46467,0.15867 0.94633,0.238 1.445,0.238 0.884,0 1.632,-0.16433 2.244,-0.493 0.612,-0.32867 1.11066,-0.75366 1.496,-1.275 l 3.876,2.448 c -0.79334,1.15601 -1.84166,2.04566 -3.145,2.669 -1.30334,0.62334 -2.81633,0.935 -4.539,0.935 -1.26934,0 -2.47066,-0.19833 -3.604,-0.595 -1.13334,-0.39667 -2.125,-0.97466 -2.975,-1.734 -0.85,-0.75934 -1.51866,-1.69433 -2.006,-2.805 -0.48734,-1.11067 -0.731,-2.37999 -0.731,-3.808 0,-1.38267 0.238,-2.63499 0.714,-3.757 0.476,-1.12201 1.122,-2.074 1.938,-2.856 0.816,-0.782 1.77933,-1.38833 2.89,-1.819 1.11067,-0.43067 2.31199,-0.646 3.604,-0.646 1.24667,0 2.39133,0.20966 3.434,0.629 1.04267,0.41933 1.938,1.02566 2.686,1.819 0.748,0.79334 1.33166,1.75666 1.751,2.89 0.41933,1.13334 0.629,2.42533 0.629,3.876 z"
           inkscape:connector-curvature="0" />
        <path
           sketch:type="MSShapeGroup"
           fill="#5096E6"
           id="a"
           d="m 264.172,158.622 h -0.714 c -0.612,0 -1.22966,0.0283 -1.853,0.085 -0.62334,0.0567 -1.17866,0.16433 -1.666,0.323 -0.48734,0.15867 -0.88967,0.391 -1.207,0.697 -0.31733,0.306 -0.476,0.70833 -0.476,1.207 0,0.31733 0.0737,0.58933 0.221,0.816 0.14733,0.22667 0.33433,0.408 0.561,0.544 0.22667,0.136 0.48733,0.23233 0.782,0.289 0.29467,0.0567 0.578,0.085 0.85,0.085 1.13334,0 2.00033,-0.31166 2.601,-0.935 0.60067,-0.62334 0.901,-1.46766 0.901,-2.533 z m -10.234,-7.242 c 0.99734,-0.95201 2.15899,-1.666 3.485,-2.142 1.32601,-0.476 2.68033,-0.714 4.063,-0.714 1.42801,0 2.63499,0.17566 3.621,0.527 0.986,0.35133 1.785,0.89533 2.397,1.632 0.612,0.73667 1.05967,1.66599 1.343,2.788 0.28333,1.12201 0.425,2.45366 0.425,3.995 V 166 h -5.1 v -1.802 h -0.102 c -0.43067,0.70267 -1.08233,1.24666 -1.955,1.632 -0.87267,0.38533 -1.819,0.578 -2.839,0.578 -0.68,0 -1.38266,-0.0907 -2.108,-0.272 -0.72534,-0.18133 -1.38833,-0.476 -1.989,-0.884 -0.60067,-0.408 -1.09367,-0.952 -1.479,-1.632 -0.38534,-0.68 -0.578,-1.51866 -0.578,-2.516 0,-1.22401 0.33433,-2.21 1.003,-2.958 0.66867,-0.748 1.53,-1.326 2.584,-1.734 1.05401,-0.408 2.22699,-0.68 3.519,-0.816 1.29201,-0.136 2.54999,-0.204 3.774,-0.204 v -0.272 c 0,-0.83867 -0.29466,-1.45633 -0.884,-1.853 -0.58934,-0.39667 -1.31466,-0.595 -2.176,-0.595 -0.79334,0 -1.55833,0.17 -2.295,0.51 -0.73667,0.34 -1.36566,0.748 -1.887,1.224 z"
           inkscape:connector-curvature="0" />
      </g>
    </g>
    <g
       id="g78"
       transform="matrix(0.41619652,0,0,0.40157759,348.41208,15.937932)"
       inkscape:export-xdpi="699.86102"
       inkscape:export-ydpi="699.86102">
      <g
         id="g76">
        <linearGradient
           gradientTransform="matrix(1,0,0,-1,0,-6379.4976)"
           y2="-6846.1475"
           x2="249.7"
           y1="-6379.4976"
           x1="249.7"
           gradientUnits="userSpaceOnUse"
           id="linearGradient1335">
          <stop
             id="stop1319"
             style="stop-color:#A7489A"
             offset="0" />
          <stop
             id="stop1321"
             style="stop-color:#734DA0"
             offset="0.1411" />
          <stop
             id="stop1323"
             style="stop-color:#43B8CA"
             offset="0.2871" />
          <stop
             id="stop1325"
             style="stop-color:#1294AE"
             offset="0.3861" />
          <stop
             id="stop1327"
             style="stop-color:#6A9B40"
             offset="0.521" />
          <stop
             id="stop1329"
             style="stop-color:#E5DC1D"
             offset="0.6061" />
          <stop
             id="stop1331"
             style="stop-color:#E79525"
             offset="0.7833" />
          <stop
             id="stop1333"
             style="stop-color:#D83E3E"
             offset="0.9541" />
        </linearGradient>
        <path
           id="path74"
           d="m 486.6,184.3 13.1,-74.5 H 421.1 L 465.7,0 H 386.3 L 341.7,109.7 H 261.2 L 305.8,0 H 226.5 L 181.9,109.7 H 73.1 L 60,184.3 h 91.7 l -40,98.5 H 12.8 L -0.3,357.3 H 81.4 L 37,466.7 h 79.3 l 44.4,-109.3 h 80.5 l -44.4,109.3 h 79.3 l 44.4,-109.3 h 105.8 l 13.1,-74.5 h -88.5 l 40,-98.5 z M 271.5,282.7 H 191 l 40,-98.5 h 80.5 z"
           class="st0"
           inkscape:connector-curvature="0"
           style="fill:url(#SVGID_1_-5)" />
      </g>
    </g>
  </g>
</svg>
