<?xml version="1.0" encoding="UTF-8" standalone="no"?>
<svg
   xmlns:sketch="http://www.bohemiancoding.com/sketch/ns"
   xmlns:dc="http://purl.org/dc/elements/1.1/"
   xmlns:cc="http://creativecommons.org/ns#"
   xmlns:rdf="http://www.w3.org/1999/02/22-rdf-syntax-ns#"
   xmlns:svg="http://www.w3.org/2000/svg"
   xmlns="http://www.w3.org/2000/svg"
   xmlns:sodipodi="http://sodipodi.sourceforge.net/DTD/sodipodi-0.dtd"
   xmlns:inkscape="http://www.inkscape.org/namespaces/inkscape"
   inkscape:version="1.0beta2 (2b71d25, 2019-12-03)"
   sodipodi:docname="with_rainbow_include_for_dark.svg"
   id="svg47"
   version="1.1"
   viewBox="0 0 272 262"
   height="262px"
   width="272px">
  <metadata
     id="metadata51">
    <rdf:RDF>
      <cc:Work
         rdf:about="">
        <dc:format>image/svg+xml</dc:format>
        <dc:type
           rdf:resource="http://purl.org/dc/dcmitype/StillImage" />
        <dc:title>cpponsea-logo</dc:title>
      </cc:Work>
    </rdf:RDF>
  </metadata>
  <sodipodi:namedview
     inkscape:current-layer="svg47"
     inkscape:window-maximized="0"
     inkscape:window-y="23"
     inkscape:window-x="0"
     inkscape:cy="167.50927"
     inkscape:cx="223.27354"
     inkscape:zoom="0.86805471"
     showgrid="false"
     id="namedview49"
     inkscape:window-height="831"
     inkscape:window-width="1440"
     inkscape:pageshadow="2"
     inkscape:pageopacity="0"
     guidetolerance="10"
     gridtolerance="10"
     objecttolerance="10"
     borderopacity="1"
     inkscape:document-rotation="0"
     bordercolor="#666666"
     pagecolor="#ffffff" />
  <!-- Generator: Sketch 3.4.2 (15855) - http://www.bohemiancoding.com/sketch -->
  <title
     id="title10">cpponsea-logo</title>
  <desc
     id="desc12">Created with Sketch.</desc>
  <rect
     y="-40.320038"
     x="-51.84005"
     height="346.75235"
     width="421.63242"
     id="rect71"
     style="fill:#ffff00;stop-color:#000000" />
  <defs
     id="defs14" />
  <g
     sketch:type="MSPage"
     fill-rule="evenodd"
     fill="none"
     stroke-width="1"
     stroke="none"
     id="Page-1">
    <g
       sketch:type="MSLayerGroup"
       id="cpponsea-logo">
      <g
         sketch:type="MSShapeGroup"
         transform="translate(2.000000, 0.000000)"
         id="C++-Pixels">
        <rect
           height="40.149999"
           width="38.5714286"
           y="0"
           x="0"
           fill="#FFDB31"
           id="Rectangle-1" />
        <rect
           height="40.149999"
           width="38.5714286"
           y="40.149999"
           x="0"
           fill="#FB8A24"
           id="rect17" />
        <rect
           height="40.149999"
           width="38.5714286"
           y="80.299998"
           x="0"
           fill="#FFDB31"
           id="rect19" />
        <rect
           height="40.149999"
           width="38.5714286"
           y="0"
           x="38.5714286"
           fill="#FCB52B"
           id="rect21" />
        <rect
           height="40.149999"
           width="38.5714286"
           y="80.299998"
           x="38.5714286"
           fill="#FDB52B"
           id="rect23" />
        <rect
           height="40.149999"
           width="38.5714286"
           y="40.149999"
           x="231.428571"
           fill="#FCB52B"
           id="rect25" />
        <rect
           height="40.149999"
           width="38.5714286"
           y="40.149999"
           x="192.857143"
           fill="#F98724"
           id="rect27" />
        <rect
           height="40.149999"
           width="38.5714286"
           y="0"
           x="115.714286"
           fill="#FFDA32"
           id="rect29" />
        <rect
           height="40.149999"
           width="38.5714286"
           y="80.299998"
           x="115.714286"
           fill="#FFDA32"
           id="rect31" />
        <rect
           height="40.149999"
           width="38.5714286"
           y="40.149999"
           x="154.285714"
           fill="#FCB52B"
           id="rect33" />
        <rect
           height="40.149999"
           width="38.5714286"
           y="0"
           x="192.857143"
           fill="#F4D131"
           id="rect35" />
        <rect
           height="40.149999"
           width="38.5714286"
           y="80.299998"
           x="192.857143"
           fill="#F2D22F"
           id="rect37" />
      </g>
      <path
         sketch:type="MSShapeGroup"
         fill="#5096E6"
         id="Path-15"
         d="M202.376101,225.001355 C187.886909,225.158868 180.867601,238.995807 168.687151,239.713379 C156.50336,240.431147 150.438189,225.166838 135.0018,225.001355 C120.512607,225.158868 113.493299,238.995807 101.312849,239.713379 C89.1290585,240.431147 83.0638869,225.166838 67.6274981,225.001355 C53.1383054,225.158868 46.1189976,238.995807 33.9385475,239.713379 C21.688362,240.435059 15.6236634,225 9.09514396e-08,225 C5.29306479e-08,225 -9.31638524e-08,248 9.09514396e-08,248 C0.247513465,248 0.495972975,248.008181 0.745369671,248.024138 C10.5439995,248.651063 21.789318,261.280273 33.9385475,261.280273 C46.2956996,261.280273 57.0752715,248.21509 67.6178624,248.00262 C67.7847065,248.006195 67.9519771,248.013409 68.1196713,248.024138 C77.9183012,248.651063 89.1636197,261.280273 101.312849,261.280273 C113.670001,261.280273 124.449573,248.21509 134.992164,248.00262 C135.159008,248.006195 135.326279,248.013409 135.493973,248.024138 C145.292603,248.651063 156.537921,261.280273 168.687151,261.280273 C181.044303,261.280273 191.823875,248.21509 202.366466,248.00262 C202.53331,248.006195 202.70058,248.013409 202.868275,248.024138 C212.666905,248.651063 223.912223,261.280273 236.061453,261.280273 C248.519907,261.280273 259.374809,247.999999 270,248 C270,248 270,225 270,225 C255.341415,225 248.311638,238.991699 236.061453,239.713379 C223.877662,240.431147 217.81249,225.166838 202.376101,225.001355 Z" />
      <path
         sketch:type="MSShapeGroup"
         fill="#7CBEF8"
         id="path41"
         d="M202.376101,183.001355 C187.886909,183.158868 180.867601,196.995807 168.687151,197.713379 C156.50336,198.431147 150.438189,183.166838 135.0018,183.001355 C120.512607,183.158868 113.493299,196.995807 101.312849,197.713379 C89.1290585,198.431147 83.0638869,183.166838 67.6274981,183.001355 C53.1383054,183.158868 46.1189976,196.995807 33.9385475,197.713379 C21.688362,198.435059 15.6236634,183 9.09514396e-08,183 C5.29306479e-08,183 -9.31638524e-08,206 9.09514396e-08,206 C0.247513465,206 0.495972975,206.008181 0.745369671,206.024138 C10.5439995,206.651063 21.789318,219.280273 33.9385475,219.280273 C46.2956996,219.280273 57.0752715,206.21509 67.6178624,206.00262 C67.7847065,206.006195 67.9519771,206.013409 68.1196713,206.024138 C77.9183012,206.651063 89.1636197,219.280273 101.312849,219.280273 C113.670001,219.280273 124.449573,206.21509 134.992164,206.00262 C135.159008,206.006195 135.326279,206.013409 135.493973,206.024138 C145.292603,206.651063 156.537921,219.280273 168.687151,219.280273 C181.044303,219.280273 191.823875,206.21509 202.366466,206.00262 C202.53331,206.006195 202.70058,206.013409 202.868275,206.024138 C212.666905,206.651063 223.912223,219.280273 236.061453,219.280273 C248.519907,219.280273 259.374809,205.999999 270,206 C270,206 270,183 270,183 C255.341415,183 248.311638,196.991699 236.061453,197.713379 C223.877662,198.431147 217.81249,183.166838 202.376101,183.001355 Z" />
      <path
         sketch:type="MSShapeGroup"
         fill="#F8FAFC"
         id="path43"
         d="M202.376101,142.001355 C187.886909,142.158868 180.867601,155.995807 168.687151,156.713379 C156.50336,157.431147 150.438189,142.166838 135.0018,142.001355 C120.512607,142.158868 113.493299,155.995807 101.312849,156.713379 C89.1290585,157.431147 83.0638869,142.166838 67.6274981,142.001355 C53.1383054,142.158868 46.1189976,155.995807 33.9385475,156.713379 C21.688362,157.435059 15.6236634,142 9.09514396e-08,142 C5.29306479e-08,142 -9.31638524e-08,165 9.09514396e-08,165 C0.247513465,165 0.495972975,165.008181 0.745369671,165.024138 C10.5439995,165.651063 21.789318,178.280273 33.9385475,178.280273 C46.2956996,178.280273 57.0752715,165.21509 67.6178624,165.00262 C67.7847065,165.006195 67.9519771,165.013409 68.1196713,165.024138 C77.9183012,165.651063 89.1636197,178.280273 101.312849,178.280273 C113.670001,178.280273 124.449573,165.21509 134.992164,165.00262 C135.159008,165.006195 135.326279,165.013409 135.493973,165.024138 C145.292603,165.651063 156.537921,178.280273 168.687151,178.280273 C181.044303,178.280273 191.823875,165.21509 202.366466,165.00262 C202.53331,165.006195 202.70058,165.013409 202.868275,165.024138 C212.666905,165.651063 223.912223,178.280273 236.061453,178.280273 C248.519907,178.280273 259.374809,164.999999 270,165 C270,165 270,142 270,142 C255.341415,142 248.311638,155.991699 236.061453,156.713379 C223.877662,157.431147 217.81249,142.166838 202.376101,142.001355 Z" />
    </g>
  </g>
</svg>
