<?xml version="1.0" encoding="utf-8"?>
<!-- Generator: Adobe Illustrator 24.0.3, SVG Export Plug-In . SVG Version: 6.00 Build 0)  -->
<svg version="1.1" id="Layer_1" xmlns="http://www.w3.org/2000/svg" xmlns:xlink="http://www.w3.org/1999/xlink" x="0px" y="0px"
	 viewBox="0 0 583.2 549" style="enable-background:new 0 0 583.2 549;" xml:space="preserve">
<style type="text/css">
	.st0{fill:url(#SVGID_1_);}
</style>
<g>
	<rect x="0.1" y="-17" width="583" height="583"/>
	<g>
		<g>
			
				<linearGradient id="SVGID_1_" gradientUnits="userSpaceOnUse" x1="291.6" y1="-6340.4976" x2="291.6" y2="-6805.6973" gradientTransform="matrix(1 0 0 -1 0 -6298.5977)">
				<stop  offset="0" style="stop-color:#A7489A"/>
				<stop  offset="0.1411" style="stop-color:#734DA0"/>
				<stop  offset="0.2871" style="stop-color:#43B8CA"/>
				<stop  offset="0.3861" style="stop-color:#1294AE"/>
				<stop  offset="0.521" style="stop-color:#6A9B40"/>
				<stop  offset="0.6061" style="stop-color:#E5DC1D"/>
				<stop  offset="0.7833" style="stop-color:#E79525"/>
				<stop  offset="0.9541" style="stop-color:#D83E3E"/>
			</linearGradient>
			<path class="st0" d="M528.2,225.6l13.1-74.3h-78.5l44.5-109.4H428l-44.5,109.4h-80.4l44.5-109.4h-79.2l-44.5,109.4H115.2
				l-13.1,74.3h91.6l-40,98.2H55l-13.1,74.3h81.6l-44.3,109h79.2l44.3-109h80.4l-44.3,109H318l44.3-109H468l13.1-74.3h-88.4l40-98.2
				L528.2,225.6L528.2,225.6z M313.4,323.7H233l40-98.2h80.4L313.4,323.7z"/>
		</g>
	</g>
</g>
</svg>
