<?xml version="1.0" encoding="UTF-8" standalone="no"?> <!-- Created with Vectornator for iOS (http://vectornator.io/) --><!DOCTYPE svg PUBLIC "-//W3C//DTD SVG 1.1//EN" "http://www.w3.org/Graphics/SVG/1.1/DTD/svg11.dtd">
<svg style="fill-rule:evenodd;clip-rule:evenodd;stroke-linecap:round;stroke-linejoin:round;" xmlns:vectornator="http://vectornator.io" xmlns:xlink="http://www.w3.org/1999/xlink" xmlns="http://www.w3.org/2000/svg" xml:space="preserve" version="1.1" viewBox="0 0 258.429 51.107">
<metadata>
<vectornator:setting key="DynamicGuides" value="1"/>
<vectornator:setting key="Units" value="Pixels"/>
<vectornator:setting key="GridSpacing" value="36"/>
<vectornator:setting key="SnapToGuides" value="1"/>
<vectornator:setting key="RulersVisible" value="1"/>
</metadata>
<defs/>
<g id="text899" vectornator:layerName="text899">
<path d="M176.023+16.898L164.412+24.068L164.412+26.978L175.933+34.148L177.583+31.718L167.293+25.538L177.583+19.328L176.023+16.898Z" opacity="1" fill="#ffffff"/>
<path d="M189.983+13.808C184.943+13.808+180.803+17.588+180.803+24.548C180.803+31.568+184.763+35.318+190.042+35.318C193.073+35.318+195.143+34.209+196.522+32.858L194.842+30.728C193.701+31.628+192.382+32.499+190.162+32.499C186.891+32.499+184.432+30.278+184.432+24.549C184.432+18.699+187.041+16.539+190.132+16.539C191.752+16.539+193.162+17.049+194.422+18.068L196.222+15.909C194.542+14.558+192.803+13.808+189.983+13.808Z" opacity="1" fill="#ffffff"/>
<path d="M206.944+18.188L204.004+18.188L204.004+24.249L198.094+24.249L198.094+26.919L204.004+26.919L204.004+32.979L206.944+32.979L206.944+26.919L212.914+26.919L212.914+24.249L206.944+24.249L206.944+18.188Z" opacity="1" fill="#ffffff"/>
<path d="M224.205+18.188L221.266+18.188L221.266+24.249L215.356+24.249L215.356+26.919L221.266+26.919L221.266+32.979L224.205+32.979L224.205+26.919L230.176+26.919L230.176+24.249L224.205+24.249L224.205+18.188Z" opacity="1" fill="#ffffff"/>
<path d="M235.015+16.898L233.455+19.388L243.715+25.538L233.455+31.748L235.104+34.147L246.625+26.977L246.625+24.067L235.015+16.898Z" opacity="1" fill="#ffffff"/>
</g>
<g id="g917" vectornator:layerName="g917">
<path d="M22.4625+21.369L24.9525+21.369L24.9525+18.938L22.7625+18.938L23.4225+14.228L20.6025+14.228L19.9725+18.938L16.1625+18.938L16.8225+14.228L14.0025+14.228L13.3725+18.938L10.8225+18.938L10.8225+21.369L13.0425+21.369L12.1725+27.728L9.71251+27.728L9.71251+30.128L11.8725+30.128L11.2425+34.928L14.0625+34.928L14.6925+30.128L18.5025+30.128L17.8725+34.928L20.6625+34.928L21.2925+30.128L23.8425+30.128L23.8425+27.728L21.6225+27.728L22.4625+21.369ZM14.9925+27.728L15.8325+21.369L19.6725+21.369L18.8025+27.728L14.9925+27.728Z" opacity="1" fill="#a7489a"/>
<path d="M34.5705+11.318C33.2505+11.318+32.3805+12.249+32.3805+13.449C32.3805+14.648+33.2505+15.549+34.5705+15.549C35.8605+15.549+36.7605+14.649+36.7605+13.449C36.7605+12.249+35.8605+11.318+34.5705+11.318ZM36.8805+19.089L28.9605+19.089L28.9605+21.549L33.5205+21.549L33.5205+32.469L28.8105+32.469L28.8105+34.929L41.2005+34.929L41.2005+32.469L36.8805+32.469L36.8805+19.089Z" opacity="1" fill="#734da0"/>
<path d="M45.4785+34.928L48.8385+34.928L48.8385+23.558C49.6785+22.358+50.9985+21.248+52.5585+21.248C54.4785+21.248+54.8085+22.298+54.8085+25.058L54.8085+34.928L58.1685+34.928L58.1685+23.379C58.1685+20.409+56.6985+18.669+53.7585+18.669C51.8385+18.669+49.9485+19.539+48.6285+21.159L48.3885+19.089L45.4785+19.089L45.4785+34.928Z" opacity="1" fill="#43b8ca"/>
<path d="M70.3675+32.558C67.9075+32.558+66.1075+31.058+66.1075+27.098C66.1075+23.138+67.8475+21.369+70.3675+21.369C71.7175+21.369+73.0075+21.848+74.2375+22.688L75.7975+20.588C74.2675+19.328+72.4675+18.668+70.3075+18.668C65.4175+18.668+62.5375+22.268+62.5375+27.098C62.5375+32.048+65.3575+35.318+70.2475+35.318C72.3475+35.318+74.4175+34.539+75.7975+33.369L74.2675+31.209C73.0975+31.989+71.8365+32.558+70.3675+32.558Z" opacity="1" fill="#1294ae"/>
<path d="M86.1205+12.728L77.9905+12.728L77.9905+15.188L82.7605+15.188L82.7605+30.308C82.7605+33.428+84.6205+35.318+87.8005+35.318C89.5705+35.318+90.9505+34.928+91.8805+34.419L91.0405+32.079C90.2305+32.409+89.4205+32.619+88.5205+32.619C87.1105+32.619+86.1205+32.079+86.1205+30.608L86.1205+12.728Z" opacity="1" fill="#6a9b40"/>
<path d="M99.7585+19.089L96.3985+19.089L96.3985+30.579C96.3985+33.549+97.8685+35.318+100.959+35.318C102.819+35.318+104.769+34.478+105.939+32.888L106.149+34.928L109.059+34.928L109.059+19.088L105.699+19.088L105.699+30.548C104.919+31.777+103.479+32.768+102.009+32.768C100.509+32.768+99.7585+32.018+99.7585+30.159L99.7585+19.089Z" opacity="1" fill="#e5dc1d"/>
<path d="M122.938+12.339L122.938+20.409C121.918+19.268+120.598+18.669+118.948+18.669C115.048+18.669+112.678+22.179+112.678+27.009C112.678+31.989+114.568+35.319+118.648+35.319C120.508+35.319+122.038+34.479+123.088+32.979L123.328+34.929L126.298+34.929L126.298+12.729L122.938+12.339ZM119.817+21.249C121.107+21.249+122.157+21.909+122.937+23.019L122.937+30.49C122.157+31.75+121.047+32.769+119.547+32.769C117.447+32.769+116.247+31.059+116.247+27.009C116.248+23.049+117.567+21.249+119.817+21.249Z" opacity="1" fill="#e79525"/>
<path d="M133.666+28.089L144.166+28.089C144.226+27.699+144.256+27.129+144.256+26.589C144.256+21.669+141.615+18.669+137.416+18.669C132.916+18.669+130.186+22.269+130.186+27.009C130.186+31.959+132.886+35.319+137.836+35.319C140.056+35.319+142.125+34.569+143.596+33.37L142.157+31.33C140.806+32.229+139.516+32.71+137.986+32.71C135.705+32.709+133.875+31.329+133.666+28.089ZM137.445+21.159C139.695+21.159+140.925+22.808+140.986+25.808L133.635+25.808C133.846+22.629+135.346+21.159+137.445+21.159Z" opacity="1" fill="#d83e3e"/>
</g>
</svg>
