<?xml version="1.0" encoding="utf-8"?>
<!-- Generator: Adobe Illustrator 24.0.3, SVG Export Plug-In . SVG Version: 6.00 Build 0)  -->
<svg version="1.1" id="Layer_1" xmlns:vectornator="http://vectornator.io"
	 xmlns="http://www.w3.org/2000/svg" xmlns:xlink="http://www.w3.org/1999/xlink" x="0px" y="0px" viewBox="0 0 259.05 27.32"
	 style="enable-background:new 0 0 259.05 27.32;" xml:space="preserve">
<style type="text/css">
	.st0{fill-rule:evenodd;clip-rule:evenodd;fill:#4472C4;}
	.st1{fill-rule:evenodd;clip-rule:evenodd;fill:#A7489A;}
	.st2{fill-rule:evenodd;clip-rule:evenodd;fill:#734DA0;}
	.st3{fill-rule:evenodd;clip-rule:evenodd;fill:#43B8CA;}
	.st4{fill-rule:evenodd;clip-rule:evenodd;fill:#1294AE;}
	.st5{fill-rule:evenodd;clip-rule:evenodd;fill:#6A9B40;}
	.st6{fill-rule:evenodd;clip-rule:evenodd;fill:#FFCC00;}
	.st7{fill-rule:evenodd;clip-rule:evenodd;fill:#FF6600;}
	.st8{fill-rule:evenodd;clip-rule:evenodd;fill:#D83E3E;}
</style>
<g id="layer1" vectornator:layerName="layer1">
	<g>
		<g>
			<path class="st0" d="M179.32,6.38l-13.02,8.04v3.26l12.92,8.04l1.85-2.72l-11.54-6.93l11.54-6.96L179.32,6.38z"/>
			<path class="st0" d="M194.97,2.92c-5.65,0-10.29,4.24-10.29,12.04c0,7.87,4.44,12.08,10.36,12.08c3.4,0,5.72-1.24,7.27-2.76
				l-1.88-2.39c-1.28,1.01-2.76,1.98-5.25,1.98c-3.67,0-6.43-2.49-6.43-8.91c0-6.56,2.93-8.98,6.39-8.98c1.82,0,3.4,0.57,4.81,1.72
				l2.02-2.42C200.09,3.76,198.14,2.92,194.97,2.92z"/>
			<path class="st0" d="M213.99,7.83h-3.3v6.8h-6.63v2.99h6.63v6.8h3.3v-6.8h6.69v-2.99h-6.69V7.83z"/>
			<path class="st0" d="M233.35,7.83h-3.3v6.8h-6.63v2.99h6.63v6.8h3.3v-6.8h6.69v-2.99h-6.69V7.83z"/>
			<path class="st0" d="M245.47,6.38l-1.75,2.79l11.5,6.9l-11.5,6.96l1.85,2.69l12.92-8.04v-3.26L245.47,6.38z"/>
		</g>
		<g>
			<path class="st1" d="M14.3,11.39h2.79V8.67h-2.46l0.74-5.28h-3.16L11.5,8.67H7.23l0.74-5.28H4.81L4.1,8.67H1.24v2.72h2.49
				l-0.98,7.13H0v2.69h2.42L1.72,26.6h3.16l0.71-5.38h4.27L9.15,26.6h3.13l0.71-5.38h2.86v-2.69h-2.49L14.3,11.39z M5.92,18.52
				l0.94-7.13h4.31l-0.98,7.13H5.92z"/>
			<path class="st2" d="M27.87,0.12c-1.48,0-2.46,1.04-2.46,2.39c0,1.35,0.98,2.35,2.46,2.35c1.45,0,2.46-1.01,2.46-2.35
				C30.33,1.17,29.32,0.12,27.87,0.12z M30.46,8.84h-8.88v2.76h5.11v12.24h-5.28v2.76h13.89v-2.76h-4.84V8.84z"/>
			<path class="st3" d="M40.11,26.6h3.77V13.85c0.94-1.35,2.42-2.59,4.17-2.59c2.15,0,2.52,1.18,2.52,4.27V26.6h3.77V13.65
				c0-3.33-1.65-5.28-4.95-5.28c-2.15,0-4.27,0.98-5.75,2.79l-0.27-2.32h-3.26L40.11,26.6z"/>
			<path class="st4" d="M68.01,23.94c-2.76,0-4.78-1.68-4.78-6.12s1.95-6.43,4.78-6.43c1.51,0,2.96,0.54,4.34,1.48l1.75-2.35
				c-1.72-1.41-3.73-2.15-6.16-2.15c-5.48,0-8.71,4.04-8.71,9.45c0,5.55,3.16,9.22,8.65,9.22c2.35,0,4.68-0.87,6.22-2.19l-1.72-2.42
				C71.07,23.3,69.66,23.94,68.01,23.94z"/>
			<path class="st5" d="M85.68,1.7h-9.12v2.76h5.35v16.95c0,3.5,2.09,5.62,5.65,5.62c1.98,0,3.53-0.44,4.57-1.01l-0.94-2.62
				c-0.91,0.37-1.82,0.61-2.83,0.61c-1.58,0-2.69-0.61-2.69-2.25V1.7z"/>
			<path class="st6" d="M100.97,8.84H97.2v12.88c0,3.33,1.65,5.32,5.11,5.32c2.09,0,4.27-0.94,5.58-2.72l0.24,2.29h3.26V8.84h-3.77
				v12.85c-0.87,1.38-2.49,2.49-4.14,2.49c-1.68,0-2.52-0.84-2.52-2.93V8.84z"/>
			<path class="st7" d="M126.96,1.27v9.05c-1.14-1.28-2.62-1.95-4.47-1.95c-4.37,0-7.03,3.94-7.03,9.35c0,5.58,2.12,9.32,6.69,9.32
				c2.09,0,3.8-0.94,4.98-2.62l0.27,2.19h3.33V1.7L126.96,1.27z M123.46,11.26c1.45,0,2.62,0.74,3.5,1.98v8.38
				c-0.87,1.41-2.12,2.56-3.8,2.56c-2.36,0-3.7-1.92-3.7-6.46C119.46,13.28,120.94,11.26,123.46,11.26z"/>
			<path class="st8" d="M138.99,18.93h11.77c0.07-0.44,0.1-1.08,0.1-1.68c0-5.52-2.96-8.88-7.67-8.88c-5.05,0-8.11,4.04-8.11,9.35
				c0,5.55,3.03,9.32,8.58,9.32c2.49,0,4.81-0.84,6.46-2.19l-1.61-2.29c-1.51,1.01-2.96,1.55-4.68,1.55
				C141.28,24.11,139.23,22.56,138.99,18.93L138.99,18.93z M143.23,11.16c2.52,0,3.9,1.85,3.97,5.21h-8.24
				C139.19,12.81,140.87,11.16,143.23,11.16z"/>
		</g>
	</g>
</g>
</svg>
