<?xml version="1.0" encoding="UTF-8" standalone="no"?> <!-- Created with Vectornator for iOS (http://vectornator.io/) --><!DOCTYPE svg PUBLIC "-//W3C//DTD SVG 1.1//EN" "http://www.w3.org/Graphics/SVG/1.1/DTD/svg11.dtd">
<svg style="fill-rule:evenodd;clip-rule:evenodd;stroke-linecap:round;stroke-linejoin:round;" xmlns:vectornator="http://vectornator.io" xmlns:xlink="http://www.w3.org/1999/xlink" xmlns="http://www.w3.org/2000/svg" xml:space="preserve" version="1.1" viewBox="0 0 260 51.1135">
<metadata>
<vectornator:setting key="DisplayWhiteBackground" value="0"/>
<vectornator:setting key="RulersVisible" value="1"/>
<vectornator:setting key="OutlineMode" value="0"/>
<vectornator:setting key="Units" value="Pixels"/>
<vectornator:setting key="DynamicGuides" value="1"/>
<vectornator:setting key="CMYKEnabledKey" value="0"/>
<vectornator:setting key="SnapToGuides" value="1"/>
<vectornator:setting key="GridSpacing" value="36"/>
</metadata>
<defs/>
<g id="layer1" vectornator:layerName="layer1">
<g opacity="1">
<g opacity="1">
<path d="M172.895+19.1521L161.283+26.323L161.283+29.2334L172.805+36.4043L174.455+33.974L164.163+27.7932L174.455+21.5824L172.895+19.1521Z" opacity="1" fill="#4472c4"/>
<path d="M186.857+16.0617C181.816+16.0617+177.676+19.8422+177.676+26.8031C177.676+33.8239+181.636+37.5744+186.917+37.5744C189.947+37.5744+192.018+36.4643+193.398+35.1141L191.718+32.9838C190.578+33.8839+189.257+34.754+187.037+34.754C183.767+34.754+181.306+32.5338+181.306+26.8031C181.306+20.9523+183.917+18.7921+187.007+18.7921C188.627+18.7921+190.037+19.3021+191.298+20.3222L193.098+18.162C191.418+16.8118+189.677+16.0617+186.857+16.0617Z" opacity="1" fill="#4472c4"/>
<path d="M203.82+20.4423L200.88+20.4423L200.88+26.503L194.969+26.503L194.969+29.1734L200.88+29.1734L200.88+35.2341L203.82+35.2341L203.82+29.1734L209.791+29.1734L209.791+26.503L203.82+26.503L203.82+20.4423Z" opacity="1" fill="#4472c4"/>
<path d="M221.083+20.4423L218.143+20.4423L218.143+26.503L212.232+26.503L212.232+29.1734L218.143+29.1734L218.143+35.2341L221.083+35.2341L221.083+29.1734L227.054+29.1734L227.054+26.503L221.083+26.503L221.083+20.4423Z" opacity="1" fill="#4472c4"/>
<path d="M231.895+19.1521L230.335+21.6424L240.596+27.7932L230.335+34.004L231.985+36.4043L243.506+29.2334L243.506+26.323L231.895+19.1521Z" opacity="1" fill="#4472c4"/>
</g>
<g opacity="1">
<path d="M25.7059+23.6227L28.1962+23.6227L28.1962+21.1924L26.006+21.1924L26.666+16.4818L23.8457+16.4818L23.2156+21.1924L19.4051+21.1924L20.0652+16.4818L17.2449+16.4818L16.6148+21.1924L14.0645+21.1924L14.0645+23.6227L16.2848+23.6227L15.4146+29.9834L12.9543+29.9834L12.9543+32.3837L15.1146+32.3837L14.4845+37.1843L17.3049+37.1843L17.935+32.3837L21.7454+32.3837L21.1154+37.1843L23.9057+37.1843L24.5358+32.3837L27.0861+32.3837L27.0861+29.9834L24.8658+29.9834L25.7059+23.6227ZM18.235+29.9834L19.0751+23.6227L22.9156+23.6227L22.0455+29.9834L18.235+29.9834Z" opacity="1" fill="#a7489a"/>
<path d="M37.8157+13.5714C36.4956+13.5714+35.6254+14.5015+35.6254+15.7017C35.6254+16.9018+36.4956+17.8019+37.8157+17.8019C39.1059+17.8019+40.006+16.9018+40.006+15.7017C40.006+14.5015+39.1059+13.5714+37.8157+13.5714ZM40.126+21.3424L32.205+21.3424L32.205+23.8027L36.7656+23.8027L36.7656+34.724L32.055+34.724L32.055+37.1843L44.4465+37.1843L44.4465+34.724L40.126+34.724L40.126+21.3424Z" opacity="1" fill="#734da0"/>
<path d="M48.7254+37.1843L52.0858+37.1843L52.0858+25.8129C52.9259+24.6128+54.2461+23.5026+55.8063+23.5026C57.7265+23.5026+58.0565+24.5528+58.0565+27.3131L58.0565+37.1843L61.417+37.1843L61.417+25.6329C61.417+22.6625+59.9468+20.9223+57.0064+20.9223C55.0862+20.9223+53.1959+21.7924+51.8758+23.4126L51.6356+21.3424L48.7253+21.3424L48.7254+37.1843Z" opacity="1" fill="#43b8ca"/>
<path d="M73.6168+34.8141C71.1564+34.8141+69.3562+33.3139+69.3562+29.3534C69.3562+25.3929+71.0964+23.6227+73.6168+23.6227C74.9669+23.6227+76.2571+24.1027+77.4872+24.9428L79.0474+22.8426C77.5172+21.5824+75.717+20.9223+73.5567+20.9223C68.6661+20.9223+65.7858+24.5228+65.7858+29.3534C65.7858+34.304+68.6061+37.5744+73.4967+37.5744C75.597+37.5744+77.6673+36.7943+79.0474+35.6242L77.5172+33.4639C76.3471+34.244+75.0869+34.8141+73.6168+34.8141Z" opacity="1" fill="#1294ae"/>
<path d="M89.372+14.9816L81.241+14.9816L81.241+17.4419L86.0116+17.4419L86.0116+32.5638C86.0116+35.6842+87.8718+37.5744+91.0522+37.5744C92.8224+37.5744+94.2026+37.1843+95.1327+36.6743L94.2926+34.334C93.4825+34.664+92.6724+34.8741+91.7723+34.8741C90.3621+34.8741+89.372+34.334+89.372+32.8638L89.372+14.9816Z" opacity="1" fill="#6a9b40"/>
<path d="M103.012+21.3424L99.6516+21.3424L99.6516+32.8338C99.6516+35.8042+101.122+37.5744+104.212+37.5744C106.072+37.5744+108.023+36.7343+109.193+35.1441L109.403+37.1843L112.313+37.1843L112.313+21.3424L108.953+21.3424L108.953+32.8038C108.173+34.034+106.733+35.0241+105.262+35.0241C103.762+35.0241+103.012+34.274+103.012+32.4138L103.012+21.3424Z" opacity="1" fill="#ffcc00"/>
<path d="M126.193+14.5915L126.193+22.6625C125.173+21.5224+123.853+20.9223+122.203+20.9223C118.302+20.9223+115.932+24.4328+115.932+29.2634C115.932+34.244+117.822+37.5744+121.903+37.5744C123.763+37.5744+125.293+36.7343+126.343+35.2341L126.583+37.1843L129.554+37.1843L129.554+14.9816L126.193+14.5915ZM123.073+23.5026C124.363+23.5026+125.413+24.1627+126.193+25.2729L126.193+32.7438C125.413+34.004+124.303+35.0241+122.803+35.0241C120.702+35.0241+119.502+33.3139+119.502+29.2634C119.502+25.3029+120.822+23.5026+123.073+23.5026Z" opacity="1" fill="#ff6600"/>
<path d="M136.923+30.3435L147.424+30.3435C147.484+29.9534+147.514+29.3834+147.514+28.8433C147.514+23.9227+144.874+20.9223+140.673+20.9223C136.173+20.9223+133.442+24.5228+133.442+29.2634C133.442+34.214+136.143+37.5744+141.093+37.5744C143.313+37.5744+145.384+36.8243+146.854+35.6242L145.414+33.5839C144.064+34.484+142.773+34.9641+141.243+34.9641C138.963+34.9641+137.133+33.5839+136.923+30.3435L136.923+30.3435ZM140.703+23.4126C142.954+23.4126+144.184+25.0628+144.244+28.0632L136.893+28.0632C137.103+24.8828+138.603+23.4126+140.703+23.4126Z" opacity="1" fill="#d83e3e"/>
</g>
</g>
</g>
</svg>
