<?xml version="1.0" encoding="UTF-8" standalone="no"?>
<!-- Created with Inkscape (http://www.inkscape.org/) -->

<svg
   width="184.12874mm"
   height="52.568317mm"
   viewBox="0 0 184.12874 52.568318"
   version="1.1"
   id="svg5"
   inkscape:version="1.1.1 (c3084ef, 2021-09-22)"
   sodipodi:docname="solid_black_rainbow_nourl_accu2022.svg"
   xmlns:inkscape="http://www.inkscape.org/namespaces/inkscape"
   xmlns:sodipodi="http://sodipodi.sourceforge.net/DTD/sodipodi-0.dtd"
   xmlns="http://www.w3.org/2000/svg"
   xmlns:svg="http://www.w3.org/2000/svg">
  <sodipodi:namedview
     id="namedview7"
     pagecolor="#505050"
     bordercolor="#eeeeee"
     borderopacity="1"
     inkscape:pageshadow="0"
     inkscape:pageopacity="0"
     inkscape:pagecheckerboard="0"
     inkscape:document-units="mm"
     showgrid="false"
     inkscape:zoom="1.144904"
     inkscape:cx="363.34924"
     inkscape:cy="431.47722"
     inkscape:window-width="2219"
     inkscape:window-height="1358"
     inkscape:window-x="680"
     inkscape:window-y="184"
     inkscape:window-maximized="0"
     inkscape:current-layer="layer1" />
  <defs
     id="defs2">
    <pattern
       inkscape:collect="always"
       patternUnits="userSpaceOnUse"
       width="2"
       height="1"
       patternTransform="translate(0,0) scale(10,10)"
       id="Strips1_1"
       inkscape:stockid="Stripes 1:1">
      <rect
         style="fill:black;stroke:none"
         x="0"
         y="-0.5"
         width="1"
         height="2"
         id="rect2037" />
    </pattern>
    <rect
       x="192.03049"
       y="257.60187"
       width="206.0815"
       height="112.40809"
       id="rect4050" />
    <rect
       x="95.234634"
       y="163.92847"
       width="532.3772"
       height="256.04065"
       id="rect1464" />
    <rect
       x="192.03049"
       y="257.60187"
       width="206.0815"
       height="112.40809"
       id="rect4050-8" />
  </defs>
  <g
     inkscape:label="Layer 1"
     inkscape:groupmode="layer"
     id="layer1"
     transform="translate(21.577276,-0.34385016)">
    <g
       id="g20764"
       transform="matrix(1.7883432,0,0,1.7883432,-69.747223,-114.3045)"
       inkscape:export-filename="/Users/richard/dev/github/include-cpp/include/assets/web/pairings/accu/accu2022.2.png"
       inkscape:export-xdpi="91.160004"
       inkscape:export-ydpi="91.160004">
      <g
         id="g1171"
         transform="matrix(0.73634947,0,0,0.73634947,37.693102,14.964823)">
        <text
           xml:space="preserve"
           transform="matrix(0.39927972,0,0,0.43190385,-26.981896,-35.526803)"
           id="text4048"
           style="font-style:normal;font-variant:normal;font-weight:500;font-stretch:normal;font-size:40px;line-height:1.25;font-family:'Aggie Normal';-inkscape-font-specification:'Aggie Normal, Medium';font-variant-ligatures:normal;font-variant-caps:normal;font-variant-numeric:normal;font-variant-east-asian:normal;white-space:pre;shape-inside:url(#rect4050);fill:#a901f7;fill-opacity:1;stroke:none;stroke-width:0.999289;stroke-miterlimit:4;stroke-dasharray:none"><tspan
             x="192.03125"
             y="299.40715"
             id="tspan3052"><tspan
   style="font-size:46.6667px"
   id="tspan3050">accu</tspan>
</tspan></text>
        <text
           xml:space="preserve"
           transform="matrix(0.40698552,0,0,0.41571568,-28.586871,-15.325729)"
           id="text4048-1"
           style="font-style:normal;font-variant:normal;font-weight:500;font-stretch:normal;font-size:40px;line-height:1.25;font-family:'Aggie Normal';-inkscape-font-specification:'Aggie Normal, Medium';font-variant-ligatures:normal;font-variant-caps:normal;font-variant-numeric:normal;font-variant-east-asian:normal;white-space:pre;shape-inside:url(#rect4050-8);fill:#a901f7;fill-opacity:1;stroke:none"><tspan
             x="192.03125"
             y="293.4349"
             id="tspan3054">2022</tspan></text>
      </g>
    </g>
    <g
       id="g1164"
       transform="matrix(2.2627975,-0.65378056,0.65378056,2.2627975,-111.75902,-113.92354)">
      <g
         id="text899"
         transform="matrix(0.26458333,0,0,0.26458333,15.739754,68.540685)">
        <path
           style="fill:#ffffff"
           inkscape:connector-curvature="0"
           d="m 176.023,16.898 -11.611,7.17 v 2.91 l 11.521,7.17 1.65,-2.43 -10.29,-6.18 10.29,-6.21 z"
           id="path4527" />
        <path
           style="fill:#ffffff"
           inkscape:connector-curvature="0"
           d="m 189.983,13.808 c -5.04,0 -9.18,3.78 -9.18,10.74 0,7.02 3.96,10.77 9.239,10.77 3.031,0 5.101,-1.109 6.48,-2.46 l -1.68,-2.13 c -1.141,0.9 -2.46,1.771 -4.68,1.771 -3.271,0 -5.73,-2.221 -5.73,-7.95 0,-5.85 2.609,-8.01 5.7,-8.01 1.62,0 3.03,0.51 4.29,1.529 l 1.8,-2.159 c -1.68,-1.351 -3.419,-2.101 -6.239,-2.101 z"
           id="path4529" />
        <path
           style="fill:#ffffff"
           inkscape:connector-curvature="0"
           d="m 206.944,18.188 h -2.94 v 6.061 h -5.91 v 2.67 h 5.91 v 6.06 h 2.94 v -6.06 h 5.97 v -2.67 h -5.97 z"
           id="path4531" />
        <path
           style="fill:#ffffff"
           inkscape:connector-curvature="0"
           d="m 224.205,18.188 h -2.939 v 6.061 h -5.91 v 2.67 h 5.91 v 6.06 h 2.939 v -6.06 h 5.971 v -2.67 h -5.971 z"
           id="path4533" />
        <path
           style="fill:#ffffff"
           inkscape:connector-curvature="0"
           d="m 235.015,16.898 -1.56,2.49 10.26,6.15 -10.26,6.21 1.649,2.399 11.521,-7.17 v -2.91 z"
           id="path4535" />
      </g>
      <g
         transform="matrix(0.26458333,0,0,0.26458333,0.25647147,76.991209)"
         id="g917">
        <path
           style="fill:#a7489a"
           inkscape:connector-curvature="0"
           d="m 80.982,-10.57 h 2.49 v -2.431 h -2.19 l 0.66,-4.71 h -2.82 l -0.63,4.71 h -3.81 l 0.66,-4.71 h -2.82 l -0.63,4.71 h -2.55 v 2.431 h 2.22 l -0.87,6.359 h -2.46 v 2.4 h 2.16 l -0.63,4.8 h 2.82 l 0.63,-4.8 h 3.81 l -0.63,4.8 h 2.79 l 0.63,-4.8 h 2.55 v -2.4 h -2.22 z m -7.47,6.359 0.84,-6.359 h 3.84 l -0.87,6.359 z"
           id="path901" />
        <path
           style="fill:#734da0"
           inkscape:connector-curvature="0"
           d="m 93.09,-20.621 c -1.32,0 -2.19,0.931 -2.19,2.131 0,1.199 0.87,2.1 2.19,2.1 1.29,0 2.19,-0.9 2.19,-2.1 0,-1.2 -0.9,-2.131 -2.19,-2.131 z m 2.31,7.771 h -7.92 v 2.46 h 4.56 V 0.53 H 87.33 V 2.99 H 99.72 V 0.53 H 95.4 Z"
           id="path903" />
        <path
           style="fill:#43b8ca"
           inkscape:connector-curvature="0"
           d="m 103.998,2.989 h 3.36 v -11.37 c 0.84,-1.2 2.16,-2.31 3.72,-2.31 1.92,0 2.25,1.05 2.25,3.81 v 9.87 h 3.36 V -8.56 c 0,-2.97 -1.47,-4.71 -4.41,-4.71 -1.92,0 -3.81,0.87 -5.13,2.49 l -0.24,-2.07 h -2.91 z"
           id="path905" />
        <path
           style="fill:#1294ae"
           inkscape:connector-curvature="0"
           d="m 128.887,0.619 c -2.46,0 -4.26,-1.5 -4.26,-5.46 0,-3.96 1.74,-5.729 4.26,-5.729 1.35,0 2.64,0.479 3.87,1.319 l 1.56,-2.1 c -1.53,-1.26 -3.33,-1.92 -5.49,-1.92 -4.89,0 -7.77,3.6 -7.77,8.43 0,4.95 2.82,8.22 7.71,8.22 2.1,0 4.17,-0.779 5.55,-1.949 l -1.53,-2.16 c -1.17,0.78 -2.431,1.349 -3.9,1.349 z"
           id="path907" />
        <path
           style="fill:#6a9b40"
           inkscape:connector-curvature="0"
           d="m 144.64,-19.211 h -8.13 v 2.46 h 4.77 v 15.12 c 0,3.12 1.86,5.01 5.04,5.01 1.77,0 3.15,-0.39 4.08,-0.899 l -0.84,-2.34 c -0.81,0.33 -1.62,0.54 -2.52,0.54 -1.41,0 -2.4,-0.54 -2.4,-2.011 z"
           id="path909" />
        <path
           style="fill:#e5dc1d"
           inkscape:connector-curvature="0"
           d="m 158.278,-12.85 h -3.36 v 11.49 c 0,2.97 1.47,4.739 4.56,4.739 1.86,0 3.81,-0.84 4.98,-2.43 l 0.21,2.04 h 2.91 v -15.84 h -3.36 v 11.46 c -0.78,1.229 -2.22,2.22 -3.69,2.22 -1.5,0 -2.25,-0.75 -2.25,-2.609 z"
           id="path911" />
        <path
           style="fill:#e79525"
           inkscape:connector-curvature="0"
           d="m 181.457,-19.6 v 8.07 c -1.02,-1.141 -2.34,-1.74 -3.99,-1.74 -3.9,0 -6.27,3.51 -6.27,8.34 0,4.98 1.89,8.31 5.97,8.31 1.86,0 3.39,-0.84 4.44,-2.34 l 0.24,1.95 h 2.97 v -22.2 z m -3.121,8.91 c 1.29,0 2.34,0.66 3.12,1.77 v 7.471 c -0.78,1.26 -1.89,2.279 -3.39,2.279 -2.1,0 -3.3,-1.71 -3.3,-5.76 0.001,-3.96 1.32,-5.76 3.57,-5.76 z"
           id="path913" />
        <path
           style="fill:#d83e3e"
           inkscape:connector-curvature="0"
           d="m 192.185,-3.85 h 10.5 c 0.06,-0.39 0.09,-0.96 0.09,-1.5 0,-4.92 -2.641,-7.92 -6.84,-7.92 -4.5,0 -7.23,3.6 -7.23,8.34 0,4.95 2.7,8.31 7.65,8.31 2.22,0 4.289,-0.75 5.76,-1.949 l -1.439,-2.04 c -1.351,0.899 -2.641,1.38 -4.171,1.38 -2.281,-0.001 -4.111,-1.381 -4.32,-4.621 z m 3.779,-6.93 c 2.25,0 3.48,1.649 3.541,4.649 h -7.351 c 0.211,-3.179 1.711,-4.649 3.81,-4.649 z"
           id="path915" />
      </g>
    </g>
    <rect
       style="opacity:0.003;fill:url(#Strips1_1);stroke:#cf0039;stroke-width:1.17819;paint-order:fill markers stroke;fill-opacity:1.0"
       id="rect933"
       width="197.72363"
       height="77.553436"
       x="-44.408333"
       y="62.09412" />
  </g>
</svg>
